%TF.GenerationSoftware,KiCad,Pcbnew,(5.1.6)-1*%
%TF.CreationDate,2021-12-10T20:44:56+09:00*%
%TF.ProjectId,nixie-kit-1,6e697869-652d-46b6-9974-2d312e6b6963,rev?*%
%TF.SameCoordinates,Original*%
%TF.FileFunction,Legend,Top*%
%TF.FilePolarity,Positive*%
%FSLAX46Y46*%
G04 Gerber Fmt 4.6, Leading zero omitted, Abs format (unit mm)*
G04 Created by KiCad (PCBNEW (5.1.6)-1) date 2021-12-10 20:44:56*
%MOMM*%
%LPD*%
G01*
G04 APERTURE LIST*
%ADD10C,0.150000*%
%ADD11C,0.120000*%
%ADD12C,0.088900*%
G04 APERTURE END LIST*
D10*
X130731190Y-71572380D02*
X130731190Y-70572380D01*
X131302619Y-71572380D01*
X131302619Y-70572380D01*
X131778809Y-71572380D02*
X131778809Y-70572380D01*
X132159761Y-70572380D02*
X132826428Y-71572380D01*
X132826428Y-70572380D02*
X132159761Y-71572380D01*
X133207380Y-71572380D02*
X133207380Y-70572380D01*
X133683571Y-71048571D02*
X134016904Y-71048571D01*
X134159761Y-71572380D02*
X133683571Y-71572380D01*
X133683571Y-70572380D01*
X134159761Y-70572380D01*
X134588333Y-71191428D02*
X135350238Y-71191428D01*
X135826428Y-71572380D02*
X135826428Y-70572380D01*
X136397857Y-71572380D02*
X135969285Y-71000952D01*
X136397857Y-70572380D02*
X135826428Y-71143809D01*
X136826428Y-71572380D02*
X136826428Y-70572380D01*
X137159761Y-70572380D02*
X137731190Y-70572380D01*
X137445476Y-71572380D02*
X137445476Y-70572380D01*
X138064523Y-71191428D02*
X138826428Y-71191428D01*
X139826428Y-71572380D02*
X139255000Y-71572380D01*
X139540714Y-71572380D02*
X139540714Y-70572380D01*
X139445476Y-70715238D01*
X139350238Y-70810476D01*
X139255000Y-70858095D01*
D11*
%TO.C,J1*%
X125730000Y-72390000D02*
X120650000Y-72390000D01*
X125730000Y-69850000D02*
X125730000Y-72390000D01*
X120650000Y-69850000D02*
X125730000Y-69850000D01*
X110490000Y-72390000D02*
X120650000Y-72390000D01*
X120650000Y-69850000D02*
X110490000Y-69850000D01*
%TO.C,J2*%
X102870000Y-72390000D02*
X110490000Y-72390000D01*
X102870000Y-69850000D02*
X102870000Y-72390000D01*
X110490000Y-69850000D02*
X102870000Y-69850000D01*
%TO.C,U2*%
X106750000Y-65180000D02*
X106750000Y-69380000D01*
X101550000Y-65180000D02*
X106750000Y-65180000D01*
X101550000Y-69380000D02*
X101550000Y-65180000D01*
X106750000Y-69380000D02*
X101550000Y-69380000D01*
X106450000Y-68580000D02*
G75*
G03*
X106450000Y-68580000I-500000J0D01*
G01*
%TO.C,U3*%
X127050000Y-65240000D02*
X121850000Y-65240000D01*
X127050000Y-69440000D02*
X127050000Y-65240000D01*
X121850000Y-69440000D02*
X127050000Y-69440000D01*
X121850000Y-65240000D02*
X121850000Y-69440000D01*
X123150000Y-66040000D02*
G75*
G03*
X123150000Y-66040000I-500000J0D01*
G01*
%TO.C,J5*%
X143510000Y-69850000D02*
X143510000Y-62230000D01*
X146050000Y-69850000D02*
X143510000Y-69850000D01*
X146050000Y-62230000D02*
X146050000Y-69850000D01*
X143510000Y-62230000D02*
X146050000Y-62230000D01*
%TO.C,J3*%
X82550000Y-69850000D02*
X82550000Y-62230000D01*
X85090000Y-69850000D02*
X82550000Y-69850000D01*
X85090000Y-62230000D02*
X85090000Y-69850000D01*
X82550000Y-62230000D02*
X85090000Y-62230000D01*
%TO.C,J4*%
X143510000Y-59690000D02*
X143510000Y-34290000D01*
X146050000Y-59690000D02*
X143510000Y-59690000D01*
X146050000Y-34290000D02*
X146050000Y-59690000D01*
X143510000Y-34290000D02*
X146050000Y-34290000D01*
%TO.C,J2*%
X82550000Y-59690000D02*
X82550000Y-34290000D01*
X85090000Y-59690000D02*
X82550000Y-59690000D01*
X85090000Y-34290000D02*
X85090000Y-59690000D01*
X82550000Y-34290000D02*
X85090000Y-34290000D01*
D10*
%TO.C,N1*%
X86790000Y-57990000D02*
X86790000Y-35990000D01*
X108790000Y-35990000D02*
X108790000Y-57990000D01*
X86790000Y-57990000D02*
G75*
G03*
X108790000Y-57990000I11000000J11000000D01*
G01*
X108790000Y-35990000D02*
G75*
G03*
X86790000Y-35990000I-11000000J-11000000D01*
G01*
%TO.C,N2*%
X119810000Y-57990000D02*
X119810000Y-35990000D01*
X141810000Y-35990000D02*
X141810000Y-57990000D01*
X119810000Y-57990000D02*
G75*
G03*
X141810000Y-57990000I11000000J11000000D01*
G01*
X141810000Y-35990000D02*
G75*
G03*
X119810000Y-35990000I-11000000J-11000000D01*
G01*
D11*
%TO.C,R1*%
X97250000Y-67080000D02*
X97250000Y-67410000D01*
X97250000Y-67410000D02*
X90710000Y-67410000D01*
X90710000Y-67410000D02*
X90710000Y-67080000D01*
X97250000Y-65000000D02*
X97250000Y-64670000D01*
X97250000Y-64670000D02*
X90710000Y-64670000D01*
X90710000Y-64670000D02*
X90710000Y-65000000D01*
%TO.C,R2*%
X139160000Y-67410000D02*
X139160000Y-67080000D01*
X132620000Y-67410000D02*
X139160000Y-67410000D01*
X132620000Y-67080000D02*
X132620000Y-67410000D01*
X139160000Y-64670000D02*
X139160000Y-65000000D01*
X132620000Y-64670000D02*
X139160000Y-64670000D01*
X132620000Y-65000000D02*
X132620000Y-64670000D01*
%TO.C,U1*%
X113300000Y-36770000D02*
X111650000Y-36770000D01*
X111650000Y-36770000D02*
X111650000Y-57210000D01*
X111650000Y-57210000D02*
X116950000Y-57210000D01*
X116950000Y-57210000D02*
X116950000Y-36770000D01*
X116950000Y-36770000D02*
X115300000Y-36770000D01*
X115300000Y-36770000D02*
G75*
G02*
X113300000Y-36770000I-1000000J0D01*
G01*
%TO.C,J1*%
D10*
X126456666Y-70572380D02*
X126456666Y-71286666D01*
X126409047Y-71429523D01*
X126313809Y-71524761D01*
X126170952Y-71572380D01*
X126075714Y-71572380D01*
X127456666Y-71572380D02*
X126885238Y-71572380D01*
X127170952Y-71572380D02*
X127170952Y-70572380D01*
X127075714Y-70715238D01*
X126980476Y-70810476D01*
X126885238Y-70858095D01*
%TO.C,U2*%
X103378095Y-66762380D02*
X103378095Y-67571904D01*
X103425714Y-67667142D01*
X103473333Y-67714761D01*
X103568571Y-67762380D01*
X103759047Y-67762380D01*
X103854285Y-67714761D01*
X103901904Y-67667142D01*
X103949523Y-67571904D01*
X103949523Y-66762380D01*
X104378095Y-66857619D02*
X104425714Y-66810000D01*
X104520952Y-66762380D01*
X104759047Y-66762380D01*
X104854285Y-66810000D01*
X104901904Y-66857619D01*
X104949523Y-66952857D01*
X104949523Y-67048095D01*
X104901904Y-67190952D01*
X104330476Y-67762380D01*
X104949523Y-67762380D01*
%TO.C,U3*%
X123698095Y-66762380D02*
X123698095Y-67571904D01*
X123745714Y-67667142D01*
X123793333Y-67714761D01*
X123888571Y-67762380D01*
X124079047Y-67762380D01*
X124174285Y-67714761D01*
X124221904Y-67667142D01*
X124269523Y-67571904D01*
X124269523Y-66762380D01*
X124650476Y-66762380D02*
X125269523Y-66762380D01*
X124936190Y-67143333D01*
X125079047Y-67143333D01*
X125174285Y-67190952D01*
X125221904Y-67238571D01*
X125269523Y-67333809D01*
X125269523Y-67571904D01*
X125221904Y-67667142D01*
X125174285Y-67714761D01*
X125079047Y-67762380D01*
X124793333Y-67762380D01*
X124698095Y-67714761D01*
X124650476Y-67667142D01*
%TO.C,J5*%
X144446666Y-60622380D02*
X144446666Y-61336666D01*
X144399047Y-61479523D01*
X144303809Y-61574761D01*
X144160952Y-61622380D01*
X144065714Y-61622380D01*
X145399047Y-60622380D02*
X144922857Y-60622380D01*
X144875238Y-61098571D01*
X144922857Y-61050952D01*
X145018095Y-61003333D01*
X145256190Y-61003333D01*
X145351428Y-61050952D01*
X145399047Y-61098571D01*
X145446666Y-61193809D01*
X145446666Y-61431904D01*
X145399047Y-61527142D01*
X145351428Y-61574761D01*
X145256190Y-61622380D01*
X145018095Y-61622380D01*
X144922857Y-61574761D01*
X144875238Y-61527142D01*
%TO.C,J3*%
X83486666Y-60622380D02*
X83486666Y-61336666D01*
X83439047Y-61479523D01*
X83343809Y-61574761D01*
X83200952Y-61622380D01*
X83105714Y-61622380D01*
X83867619Y-60622380D02*
X84486666Y-60622380D01*
X84153333Y-61003333D01*
X84296190Y-61003333D01*
X84391428Y-61050952D01*
X84439047Y-61098571D01*
X84486666Y-61193809D01*
X84486666Y-61431904D01*
X84439047Y-61527142D01*
X84391428Y-61574761D01*
X84296190Y-61622380D01*
X84010476Y-61622380D01*
X83915238Y-61574761D01*
X83867619Y-61527142D01*
%TO.C,J4*%
X144446666Y-33107380D02*
X144446666Y-33821666D01*
X144399047Y-33964523D01*
X144303809Y-34059761D01*
X144160952Y-34107380D01*
X144065714Y-34107380D01*
X145351428Y-33440714D02*
X145351428Y-34107380D01*
X145113333Y-33059761D02*
X144875238Y-33774047D01*
X145494285Y-33774047D01*
%TO.C,J2*%
X83486666Y-33107380D02*
X83486666Y-33821666D01*
X83439047Y-33964523D01*
X83343809Y-34059761D01*
X83200952Y-34107380D01*
X83105714Y-34107380D01*
X83915238Y-33202619D02*
X83962857Y-33155000D01*
X84058095Y-33107380D01*
X84296190Y-33107380D01*
X84391428Y-33155000D01*
X84439047Y-33202619D01*
X84486666Y-33297857D01*
X84486666Y-33393095D01*
X84439047Y-33535952D01*
X83867619Y-34107380D01*
X84486666Y-34107380D01*
%TO.C,N1*%
D12*
X96822380Y-34564523D02*
X96822380Y-33294523D01*
X97548095Y-34564523D01*
X97548095Y-33294523D01*
X98818095Y-34564523D02*
X98092380Y-34564523D01*
X98455238Y-34564523D02*
X98455238Y-33294523D01*
X98334285Y-33475952D01*
X98213333Y-33596904D01*
X98092380Y-33657380D01*
D10*
X107479428Y-50836285D02*
X105955428Y-50836285D01*
X107479428Y-50110571D02*
X105955428Y-50110571D01*
X107479428Y-49239714D01*
X105955428Y-49239714D01*
X106898857Y-48514000D02*
X106898857Y-47352857D01*
X107479428Y-45828857D02*
X107479428Y-46699714D01*
X107479428Y-46264285D02*
X105955428Y-46264285D01*
X106173142Y-46409428D01*
X106318285Y-46554571D01*
X106390857Y-46699714D01*
X106100571Y-45248285D02*
X106028000Y-45175714D01*
X105955428Y-45030571D01*
X105955428Y-44667714D01*
X106028000Y-44522571D01*
X106100571Y-44450000D01*
X106245714Y-44377428D01*
X106390857Y-44377428D01*
X106608571Y-44450000D01*
X107479428Y-45320857D01*
X107479428Y-44377428D01*
X107044000Y-43796857D02*
X107044000Y-43071142D01*
X107479428Y-43942000D02*
X105955428Y-43434000D01*
X107479428Y-42926000D01*
%TO.C,N2*%
D12*
X129842380Y-34564523D02*
X129842380Y-33294523D01*
X130568095Y-34564523D01*
X130568095Y-33294523D01*
X131112380Y-33415476D02*
X131172857Y-33355000D01*
X131293809Y-33294523D01*
X131596190Y-33294523D01*
X131717142Y-33355000D01*
X131777619Y-33415476D01*
X131838095Y-33536428D01*
X131838095Y-33657380D01*
X131777619Y-33838809D01*
X131051904Y-34564523D01*
X131838095Y-34564523D01*
D10*
X140499428Y-50836285D02*
X138975428Y-50836285D01*
X140499428Y-50110571D02*
X138975428Y-50110571D01*
X140499428Y-49239714D01*
X138975428Y-49239714D01*
X139918857Y-48514000D02*
X139918857Y-47352857D01*
X140499428Y-45828857D02*
X140499428Y-46699714D01*
X140499428Y-46264285D02*
X138975428Y-46264285D01*
X139193142Y-46409428D01*
X139338285Y-46554571D01*
X139410857Y-46699714D01*
X139120571Y-45248285D02*
X139048000Y-45175714D01*
X138975428Y-45030571D01*
X138975428Y-44667714D01*
X139048000Y-44522571D01*
X139120571Y-44450000D01*
X139265714Y-44377428D01*
X139410857Y-44377428D01*
X139628571Y-44450000D01*
X140499428Y-45320857D01*
X140499428Y-44377428D01*
X140064000Y-43796857D02*
X140064000Y-43071142D01*
X140499428Y-43942000D02*
X138975428Y-43434000D01*
X140499428Y-42926000D01*
%TO.C,R1*%
X93813333Y-66492380D02*
X93480000Y-66016190D01*
X93241904Y-66492380D02*
X93241904Y-65492380D01*
X93622857Y-65492380D01*
X93718095Y-65540000D01*
X93765714Y-65587619D01*
X93813333Y-65682857D01*
X93813333Y-65825714D01*
X93765714Y-65920952D01*
X93718095Y-65968571D01*
X93622857Y-66016190D01*
X93241904Y-66016190D01*
X94765714Y-66492380D02*
X94194285Y-66492380D01*
X94480000Y-66492380D02*
X94480000Y-65492380D01*
X94384761Y-65635238D01*
X94289523Y-65730476D01*
X94194285Y-65778095D01*
%TO.C,R2*%
X135723333Y-66492380D02*
X135390000Y-66016190D01*
X135151904Y-66492380D02*
X135151904Y-65492380D01*
X135532857Y-65492380D01*
X135628095Y-65540000D01*
X135675714Y-65587619D01*
X135723333Y-65682857D01*
X135723333Y-65825714D01*
X135675714Y-65920952D01*
X135628095Y-65968571D01*
X135532857Y-66016190D01*
X135151904Y-66016190D01*
X136104285Y-65587619D02*
X136151904Y-65540000D01*
X136247142Y-65492380D01*
X136485238Y-65492380D01*
X136580476Y-65540000D01*
X136628095Y-65587619D01*
X136675714Y-65682857D01*
X136675714Y-65778095D01*
X136628095Y-65920952D01*
X136056666Y-66492380D01*
X136675714Y-66492380D01*
%TO.C,U1*%
X113538095Y-46442380D02*
X113538095Y-47251904D01*
X113585714Y-47347142D01*
X113633333Y-47394761D01*
X113728571Y-47442380D01*
X113919047Y-47442380D01*
X114014285Y-47394761D01*
X114061904Y-47347142D01*
X114109523Y-47251904D01*
X114109523Y-46442380D01*
X115109523Y-47442380D02*
X114538095Y-47442380D01*
X114823809Y-47442380D02*
X114823809Y-46442380D01*
X114728571Y-46585238D01*
X114633333Y-46680476D01*
X114538095Y-46728095D01*
%TD*%
M02*
