%TF.GenerationSoftware,KiCad,Pcbnew,(5.1.6)-1*%
%TF.CreationDate,2021-12-10T20:44:56+09:00*%
%TF.ProjectId,nixie-kit-1,6e697869-652d-46b6-9974-2d312e6b6963,rev?*%
%TF.SameCoordinates,Original*%
%TF.FileFunction,Copper,L1,Top*%
%TF.FilePolarity,Positive*%
%FSLAX46Y46*%
G04 Gerber Fmt 4.6, Leading zero omitted, Abs format (unit mm)*
G04 Created by KiCad (PCBNEW (5.1.6)-1) date 2021-12-10 20:44:56*
%MOMM*%
%LPD*%
G01*
G04 APERTURE LIST*
%TA.AperFunction,ComponentPad*%
%ADD10C,2.600000*%
%TD*%
%TA.AperFunction,ComponentPad*%
%ADD11C,1.700000*%
%TD*%
%TA.AperFunction,ComponentPad*%
%ADD12O,1.700000X1.700000*%
%TD*%
%TA.AperFunction,ComponentPad*%
%ADD13R,1.700000X1.700000*%
%TD*%
%TA.AperFunction,ComponentPad*%
%ADD14R,1.600000X1.600000*%
%TD*%
%TA.AperFunction,ComponentPad*%
%ADD15O,1.600000X1.600000*%
%TD*%
%TA.AperFunction,ComponentPad*%
%ADD16C,2.400000*%
%TD*%
%TA.AperFunction,ComponentPad*%
%ADD17C,5.400000*%
%TD*%
%TA.AperFunction,ComponentPad*%
%ADD18C,1.600000*%
%TD*%
%TA.AperFunction,ViaPad*%
%ADD19C,0.800000*%
%TD*%
%TA.AperFunction,Conductor*%
%ADD20C,0.400000*%
%TD*%
%TA.AperFunction,Conductor*%
%ADD21C,0.254000*%
%TD*%
G04 APERTURE END LIST*
D10*
%TO.P,REF\u002A\u002A,1*%
%TO.N,N/C*%
X83185000Y-71755000D03*
%TD*%
%TO.P,REF\u002A\u002A,1*%
%TO.N,N/C*%
X145415000Y-71755000D03*
%TD*%
%TO.P,REF\u002A\u002A,1*%
%TO.N,N/C*%
X145415000Y-31115000D03*
%TD*%
%TO.P,REF\u002A\u002A,1*%
%TO.N,N/C*%
X83185000Y-31115000D03*
%TD*%
D11*
%TO.P,J1,1*%
%TO.N,Net-(J4-Pad1)*%
X124460000Y-71120000D03*
D12*
%TO.P,J1,2*%
%TO.N,Net-(J4-Pad2)*%
X121920000Y-71120000D03*
%TD*%
D11*
%TO.P,J1,1*%
%TO.N,Net-(J1-Pad1)*%
X119380000Y-71120000D03*
D12*
%TO.P,J1,2*%
%TO.N,Net-(J1-Pad2)*%
X116840000Y-71120000D03*
%TO.P,J1,3*%
%TO.N,Net-(J1-Pad3)*%
X114300000Y-71120000D03*
%TO.P,J1,4*%
%TO.N,Net-(J1-Pad4)*%
X111760000Y-71120000D03*
%TD*%
%TO.P,J2,3*%
%TO.N,GND*%
X104140000Y-71120000D03*
%TO.P,J2,2*%
%TO.N,VCC*%
X106680000Y-71120000D03*
D13*
%TO.P,J2,1*%
%TO.N,Net-(J2-Pad1)*%
X109220000Y-71120000D03*
%TD*%
D14*
%TO.P,U2,1*%
%TO.N,Net-(J4-Pad2)*%
X107950000Y-68580000D03*
D15*
%TO.P,U2,3*%
%TO.N,Net-(R1-Pad1)*%
X100330000Y-66040000D03*
%TO.P,U2,2*%
%TO.N,GND*%
X107950000Y-66040000D03*
%TO.P,U2,4*%
%TO.N,Net-(J2-Pad1)*%
X100330000Y-68580000D03*
%TD*%
D14*
%TO.P,U3,1*%
%TO.N,Net-(J4-Pad1)*%
X120650000Y-66040000D03*
D15*
%TO.P,U3,3*%
%TO.N,Net-(R2-Pad1)*%
X128270000Y-68580000D03*
%TO.P,U3,2*%
%TO.N,GND*%
X120650000Y-68580000D03*
%TO.P,U3,4*%
%TO.N,Net-(J2-Pad1)*%
X128270000Y-66040000D03*
%TD*%
D12*
%TO.P,J5,3*%
%TO.N,GND*%
X144780000Y-68580000D03*
%TO.P,J5,2*%
%TO.N,VCC*%
X144780000Y-66040000D03*
D13*
%TO.P,J5,1*%
%TO.N,Net-(J2-Pad1)*%
X144780000Y-63500000D03*
%TD*%
%TO.P,J3,1*%
%TO.N,Net-(J2-Pad1)*%
X83820000Y-63500000D03*
D12*
%TO.P,J3,2*%
%TO.N,VCC*%
X83820000Y-66040000D03*
%TO.P,J3,3*%
%TO.N,GND*%
X83820000Y-68580000D03*
%TD*%
%TO.P,J4,10*%
%TO.N,Net-(J3-Pad10)*%
X144780000Y-58420000D03*
%TO.P,J4,9*%
%TO.N,Net-(J3-Pad9)*%
X144780000Y-55880000D03*
%TO.P,J4,8*%
%TO.N,Net-(J3-Pad8)*%
X144780000Y-53340000D03*
%TO.P,J4,7*%
%TO.N,Net-(J3-Pad7)*%
X144780000Y-50800000D03*
%TO.P,J4,6*%
%TO.N,Net-(J3-Pad6)*%
X144780000Y-48260000D03*
%TO.P,J4,5*%
%TO.N,Net-(J3-Pad5)*%
X144780000Y-45720000D03*
%TO.P,J4,4*%
%TO.N,Net-(J3-Pad4)*%
X144780000Y-43180000D03*
%TO.P,J4,3*%
%TO.N,Net-(J3-Pad3)*%
X144780000Y-40640000D03*
%TO.P,J4,2*%
%TO.N,Net-(J3-Pad2)*%
X144780000Y-38100000D03*
D13*
%TO.P,J4,1*%
%TO.N,Net-(J3-Pad1)*%
X144780000Y-35560000D03*
%TD*%
%TO.P,J2,1*%
%TO.N,Net-(J3-Pad1)*%
X83820000Y-35560000D03*
D12*
%TO.P,J2,2*%
%TO.N,Net-(J3-Pad2)*%
X83820000Y-38100000D03*
%TO.P,J2,3*%
%TO.N,Net-(J3-Pad3)*%
X83820000Y-40640000D03*
%TO.P,J2,4*%
%TO.N,Net-(J3-Pad4)*%
X83820000Y-43180000D03*
%TO.P,J2,5*%
%TO.N,Net-(J3-Pad5)*%
X83820000Y-45720000D03*
%TO.P,J2,6*%
%TO.N,Net-(J3-Pad6)*%
X83820000Y-48260000D03*
%TO.P,J2,7*%
%TO.N,Net-(J3-Pad7)*%
X83820000Y-50800000D03*
%TO.P,J2,8*%
%TO.N,Net-(J3-Pad8)*%
X83820000Y-53340000D03*
%TO.P,J2,9*%
%TO.N,Net-(J3-Pad9)*%
X83820000Y-55880000D03*
%TO.P,J2,10*%
%TO.N,Net-(J3-Pad10)*%
X83820000Y-58420000D03*
%TD*%
D16*
%TO.P,N1,0*%
%TO.N,Net-(J3-Pad1)*%
X103540000Y-51490000D03*
%TO.P,N1,1*%
%TO.N,Net-(J3-Pad10)*%
X93790000Y-54990000D03*
%TO.P,N1,2*%
%TO.N,Net-(J3-Pad9)*%
X92040000Y-51490000D03*
%TO.P,N1,3*%
%TO.N,Net-(J3-Pad8)*%
X92040000Y-46990000D03*
%TO.P,N1,4*%
%TO.N,Net-(J3-Pad7)*%
X92040000Y-42490000D03*
%TO.P,N1,5*%
%TO.N,Net-(J3-Pad6)*%
X93790000Y-38990000D03*
%TO.P,N1,6*%
%TO.N,Net-(J3-Pad5)*%
X97790000Y-37990000D03*
%TO.P,N1,7*%
%TO.N,Net-(J3-Pad4)*%
X101790000Y-38990000D03*
%TO.P,N1,8*%
%TO.N,Net-(J3-Pad3)*%
X103540000Y-42490000D03*
%TO.P,N1,9*%
%TO.N,Net-(J3-Pad2)*%
X103540000Y-46990000D03*
%TO.P,N1,A*%
%TO.N,Net-(N1-PadA)*%
X101790000Y-54990000D03*
%TO.P,N1,B*%
%TO.N,N/C*%
X97790000Y-55880000D03*
D17*
X97790000Y-46990000D03*
%TD*%
%TO.P,N2,C*%
%TO.N,N/C*%
X130810000Y-46990000D03*
D16*
%TO.P,N2,B*%
X130810000Y-55880000D03*
%TO.P,N2,0*%
%TO.N,Net-(J3-Pad1)*%
X136560000Y-51490000D03*
%TO.P,N2,1*%
%TO.N,Net-(J3-Pad10)*%
X126810000Y-54990000D03*
%TO.P,N2,2*%
%TO.N,Net-(J3-Pad9)*%
X125060000Y-51490000D03*
%TO.P,N2,3*%
%TO.N,Net-(J3-Pad8)*%
X125060000Y-46990000D03*
%TO.P,N2,4*%
%TO.N,Net-(J3-Pad7)*%
X125060000Y-42490000D03*
%TO.P,N2,5*%
%TO.N,Net-(J3-Pad6)*%
X126810000Y-38990000D03*
%TO.P,N2,6*%
%TO.N,Net-(J3-Pad5)*%
X130810000Y-37990000D03*
%TO.P,N2,7*%
%TO.N,Net-(J3-Pad4)*%
X134810000Y-38990000D03*
%TO.P,N2,8*%
%TO.N,Net-(J3-Pad3)*%
X136560000Y-42490000D03*
%TO.P,N2,9*%
%TO.N,Net-(J3-Pad2)*%
X136560000Y-46990000D03*
%TO.P,N2,A*%
%TO.N,Net-(N2-PadA)*%
X134810000Y-54990000D03*
%TD*%
D18*
%TO.P,R1,1*%
%TO.N,Net-(R1-Pad1)*%
X97790000Y-66040000D03*
D15*
%TO.P,R1,2*%
%TO.N,Net-(N1-PadA)*%
X90170000Y-66040000D03*
%TD*%
%TO.P,R2,2*%
%TO.N,Net-(N2-PadA)*%
X139700000Y-66040000D03*
D18*
%TO.P,R2,1*%
%TO.N,Net-(R2-Pad1)*%
X132080000Y-66040000D03*
%TD*%
D14*
%TO.P,U1,1*%
%TO.N,Net-(J3-Pad3)*%
X110490000Y-38100000D03*
D15*
%TO.P,U1,9*%
%TO.N,Net-(J3-Pad8)*%
X118110000Y-55880000D03*
%TO.P,U1,2*%
%TO.N,Net-(J3-Pad2)*%
X110490000Y-40640000D03*
%TO.P,U1,10*%
%TO.N,Net-(J3-Pad4)*%
X118110000Y-53340000D03*
%TO.P,U1,3*%
%TO.N,Net-(J1-Pad1)*%
X110490000Y-43180000D03*
%TO.P,U1,11*%
%TO.N,Net-(J3-Pad5)*%
X118110000Y-50800000D03*
%TO.P,U1,4*%
%TO.N,Net-(J1-Pad4)*%
X110490000Y-45720000D03*
%TO.P,U1,12*%
%TO.N,GND*%
X118110000Y-48260000D03*
%TO.P,U1,5*%
%TO.N,VCC*%
X110490000Y-48260000D03*
%TO.P,U1,13*%
%TO.N,Net-(J3-Pad7)*%
X118110000Y-45720000D03*
%TO.P,U1,6*%
%TO.N,Net-(J1-Pad2)*%
X110490000Y-50800000D03*
%TO.P,U1,14*%
%TO.N,Net-(J3-Pad6)*%
X118110000Y-43180000D03*
%TO.P,U1,7*%
%TO.N,Net-(J1-Pad3)*%
X110490000Y-53340000D03*
%TO.P,U1,15*%
%TO.N,Net-(J3-Pad10)*%
X118110000Y-40640000D03*
%TO.P,U1,8*%
%TO.N,Net-(J3-Pad9)*%
X110490000Y-55880000D03*
%TO.P,U1,16*%
%TO.N,Net-(J3-Pad1)*%
X118110000Y-38100000D03*
%TD*%
D19*
%TO.N,Net-(J2-Pad1)*%
X128270000Y-63500000D03*
%TO.N,VCC*%
X105410000Y-64770000D03*
X102870000Y-64770000D03*
%TO.N,Net-(J3-Pad1)*%
X140970000Y-52070000D03*
X104140000Y-59690000D03*
X137160000Y-59690000D03*
X87630000Y-59690000D03*
%TO.N,Net-(J3-Pad2)*%
X139700000Y-41910000D03*
X106680000Y-58420000D03*
X139700000Y-58420000D03*
X86360000Y-58420000D03*
X142240000Y-43180000D03*
%TO.N,Net-(J3-Pad3)*%
X106680000Y-30480000D03*
X139700000Y-35560000D03*
%TO.N,Net-(J3-Pad4)*%
X102870000Y-33020000D03*
X135890000Y-33020000D03*
X115570000Y-33020000D03*
%TO.N,Net-(J3-Pad5)*%
X97790000Y-35560000D03*
X130810000Y-35560000D03*
X116840000Y-35560000D03*
%TO.N,Net-(J3-Pad6)*%
X93980000Y-34290000D03*
X127000000Y-34290000D03*
%TO.N,Net-(J3-Pad7)*%
X90170000Y-31750000D03*
X123190000Y-31750000D03*
%TO.N,Net-(J3-Pad8)*%
X88900000Y-63500000D03*
X121920000Y-63500000D03*
%TO.N,Net-(J3-Pad9)*%
X91440000Y-62230000D03*
X124460000Y-62230000D03*
X110490000Y-62230000D03*
%TO.N,Net-(J3-Pad10)*%
X93980000Y-60960000D03*
X127000000Y-60960000D03*
X120650000Y-60960000D03*
X120650000Y-40640000D03*
%TD*%
D20*
%TO.N,Net-(J1-Pad1)*%
X114300000Y-46990000D02*
X114300000Y-51602002D01*
X110490000Y-43180000D02*
X114300000Y-46990000D01*
X116037998Y-53340000D02*
X116037998Y-56347998D01*
X114300000Y-51602002D02*
X116037998Y-53340000D01*
X116037998Y-56347998D02*
X118110000Y-58420000D01*
X119380000Y-71120000D02*
X118110000Y-69850000D01*
X118110000Y-69850000D02*
X118110000Y-58420000D01*
%TO.N,Net-(J1-Pad2)*%
X110490000Y-50800000D02*
X115237988Y-55547988D01*
X115237988Y-69517988D02*
X115237988Y-55547988D01*
X116840000Y-71120000D02*
X115237988Y-69517988D01*
%TO.N,Net-(J1-Pad3)*%
X110490000Y-53340000D02*
X113030000Y-55880000D01*
X113030000Y-69850000D02*
X114300000Y-71120000D01*
X113030000Y-55880000D02*
X113030000Y-69850000D01*
%TO.N,Net-(J1-Pad4)*%
X108289989Y-47920011D02*
X110490000Y-45720000D01*
X108289989Y-58290013D02*
X108289989Y-47920011D01*
X104409999Y-62170003D02*
X108289989Y-58290013D01*
X104409999Y-65250001D02*
X104409999Y-62170003D01*
X104929999Y-65770001D02*
X104409999Y-65250001D01*
X106147997Y-65770001D02*
X104929999Y-65770001D01*
X107277999Y-64639999D02*
X106147997Y-65770001D01*
X109300001Y-64639999D02*
X107277999Y-64639999D01*
X111760000Y-67099998D02*
X109300001Y-64639999D01*
X111760000Y-71120000D02*
X111760000Y-67099998D01*
%TO.N,Net-(J2-Pad1)*%
X99190001Y-67440001D02*
X100330000Y-68580000D01*
X87760001Y-67440001D02*
X99190001Y-67440001D01*
X83820000Y-63500000D02*
X87760001Y-67440001D01*
X128270000Y-63500000D02*
X128270000Y-66040000D01*
X103188631Y-72570001D02*
X107769999Y-72570001D01*
X100330000Y-69711370D02*
X103188631Y-72570001D01*
X107769999Y-72570001D02*
X109220000Y-71120000D01*
X100330000Y-68580000D02*
X100330000Y-69711370D01*
X125910001Y-68399999D02*
X128270000Y-66040000D01*
X125910001Y-72450001D02*
X125910001Y-68399999D01*
X125790001Y-72570001D02*
X125910001Y-72450001D01*
X110670001Y-72570001D02*
X125790001Y-72570001D01*
X109220000Y-71120000D02*
X110670001Y-72570001D01*
%TO.N,VCC*%
X109089999Y-49660001D02*
X110490000Y-48260000D01*
X109089999Y-61090001D02*
X109089999Y-49660001D01*
X105410000Y-64770000D02*
X109089999Y-61090001D01*
X106678614Y-71120000D02*
X106680000Y-71120000D01*
X102870000Y-67310000D02*
X106680000Y-71120000D01*
X102870000Y-64770000D02*
X102870000Y-67310000D01*
%TO.N,GND*%
X118910010Y-66840010D02*
X120650000Y-68580000D01*
X119510001Y-57488635D02*
X118910010Y-58088626D01*
X118910010Y-58088626D02*
X118910010Y-66840010D01*
X119510001Y-49660001D02*
X119510001Y-57488635D01*
X118110000Y-48260000D02*
X119510001Y-49660001D01*
%TO.N,Net-(J3-Pad1)*%
X104140000Y-52090000D02*
X103540000Y-51490000D01*
X104140000Y-59690000D02*
X104140000Y-52090000D01*
X87630000Y-39370000D02*
X87630000Y-59690000D01*
X83820000Y-35560000D02*
X87630000Y-39370000D01*
X137160000Y-52090000D02*
X137160000Y-59690000D01*
X136560000Y-51490000D02*
X137160000Y-52090000D01*
X144780000Y-35805998D02*
X144780000Y-35560000D01*
X140970000Y-39615998D02*
X144780000Y-35805998D01*
X140970000Y-52070000D02*
X140970000Y-39615998D01*
%TO.N,Net-(J3-Pad2)*%
X106680000Y-50130000D02*
X103540000Y-46990000D01*
X106680000Y-58420000D02*
X106680000Y-50130000D01*
X139700000Y-50130000D02*
X136560000Y-46990000D01*
X139700000Y-58420000D02*
X139700000Y-50130000D01*
X86360000Y-40640000D02*
X86360000Y-58420000D01*
X83820000Y-38100000D02*
X86360000Y-40640000D01*
X139700000Y-43850000D02*
X139700000Y-41910000D01*
X136560000Y-46990000D02*
X139700000Y-43850000D01*
X142240000Y-40640000D02*
X144780000Y-38100000D01*
X142240000Y-43180000D02*
X142240000Y-40640000D01*
%TO.N,Net-(J3-Pad3)*%
X136560000Y-42490000D02*
X139700000Y-39350000D01*
X106680000Y-39350000D02*
X103540000Y-42490000D01*
X106680000Y-30480000D02*
X106680000Y-39350000D01*
X139700000Y-35560000D02*
X139700000Y-39350000D01*
%TO.N,Net-(J3-Pad4)*%
X134810000Y-34100000D02*
X135890000Y-33020000D01*
X134810000Y-38990000D02*
X134810000Y-34100000D01*
X102870000Y-37910000D02*
X101790000Y-38990000D01*
X102870000Y-33020000D02*
X102870000Y-37910000D01*
X117899998Y-53340000D02*
X118110000Y-53340000D01*
X115570000Y-51010002D02*
X117899998Y-53340000D01*
X115570000Y-33020000D02*
X115570000Y-51010002D01*
%TO.N,Net-(J3-Pad5)*%
X130810000Y-37990000D02*
X130810000Y-35560000D01*
X97790000Y-35560000D02*
X97790000Y-37990000D01*
X146594990Y-43905010D02*
X144780000Y-45720000D01*
X146594990Y-34414988D02*
X146594990Y-43905010D01*
X146190001Y-34009999D02*
X146594990Y-34414988D01*
X144499999Y-34009999D02*
X146190001Y-34009999D01*
X142409999Y-31919999D02*
X144499999Y-34009999D01*
X134450001Y-31919999D02*
X142409999Y-31919999D01*
X130810000Y-35560000D02*
X134450001Y-31919999D01*
X116609999Y-49299999D02*
X118110000Y-50800000D01*
X116609999Y-37379999D02*
X116609999Y-49299999D01*
X116840000Y-37149998D02*
X116609999Y-37379999D01*
X116840000Y-35560000D02*
X116840000Y-37149998D01*
%TO.N,Net-(J3-Pad6)*%
X127000000Y-38800000D02*
X126810000Y-38990000D01*
X127000000Y-34290000D02*
X127000000Y-38800000D01*
X93980000Y-38800000D02*
X93790000Y-38990000D01*
X93980000Y-34290000D02*
X93980000Y-38800000D01*
%TO.N,Net-(J3-Pad7)*%
X123190000Y-40620000D02*
X125060000Y-42490000D01*
X123190000Y-31750000D02*
X123190000Y-40620000D01*
X90170000Y-40620000D02*
X92040000Y-42490000D01*
X90170000Y-31750000D02*
X90170000Y-40620000D01*
X140420001Y-67540001D02*
X141200001Y-66760001D01*
X138979999Y-67540001D02*
X140420001Y-67540001D01*
X132909999Y-61470001D02*
X138979999Y-67540001D01*
X132909999Y-54077999D02*
X132909999Y-61470001D01*
X141200001Y-66760001D02*
X141200001Y-54379999D01*
X127409999Y-44839999D02*
X127409999Y-48577999D01*
X141200001Y-54379999D02*
X144780000Y-50800000D01*
X127409999Y-48577999D02*
X132909999Y-54077999D01*
X125060000Y-42490000D02*
X127409999Y-44839999D01*
%TO.N,Net-(J3-Pad8)*%
X88900000Y-50130000D02*
X92040000Y-46990000D01*
X88900000Y-63500000D02*
X88900000Y-50130000D01*
X121920000Y-50130000D02*
X125060000Y-46990000D01*
X121920000Y-63500000D02*
X121920000Y-50130000D01*
%TO.N,Net-(J3-Pad9)*%
X91440000Y-52090000D02*
X92040000Y-51490000D01*
X91440000Y-62230000D02*
X91440000Y-52090000D01*
X124460000Y-52090000D02*
X125060000Y-51490000D01*
X124460000Y-62230000D02*
X124460000Y-52090000D01*
X110490000Y-55880000D02*
X110490000Y-62230000D01*
%TO.N,Net-(J3-Pad10)*%
X93980000Y-55180000D02*
X93790000Y-54990000D01*
X93980000Y-60960000D02*
X93980000Y-55180000D01*
X127000000Y-55180000D02*
X126810000Y-54990000D01*
X127000000Y-60960000D02*
X127000000Y-55180000D01*
X120650000Y-60960000D02*
X120650000Y-40640000D01*
%TO.N,Net-(J4-Pad1)*%
X124460000Y-69850000D02*
X124460000Y-71120000D01*
X120650000Y-66040000D02*
X124460000Y-69850000D01*
%TO.N,Net-(J4-Pad2)*%
X122050001Y-70989999D02*
X121920000Y-71120000D01*
%TO.N,Net-(N1-PadA)*%
X90740000Y-66040000D02*
X90170000Y-66040000D01*
X101790000Y-54990000D02*
X90740000Y-66040000D01*
%TO.N,Net-(N2-PadA)*%
X134810000Y-58820002D02*
X139700000Y-63710002D01*
X139700000Y-63710002D02*
X139700000Y-66040000D01*
X134810000Y-54990000D02*
X134810000Y-58820002D01*
%TO.N,Net-(R1-Pad1)*%
X97790000Y-66040000D02*
X100330000Y-66040000D01*
%TO.N,Net-(R2-Pad1)*%
X129540000Y-68580000D02*
X132080000Y-66040000D01*
X128270000Y-68580000D02*
X129540000Y-68580000D01*
%TD*%
D21*
%TO.N,GND*%
G36*
X105762795Y-29989744D02*
G01*
X105684774Y-30178102D01*
X105645000Y-30378061D01*
X105645000Y-30581939D01*
X105684774Y-30781898D01*
X105762795Y-30970256D01*
X105845000Y-31093285D01*
X105845001Y-39004130D01*
X104109449Y-40739684D01*
X104075250Y-40725518D01*
X103720732Y-40655000D01*
X103359268Y-40655000D01*
X103004750Y-40725518D01*
X102670801Y-40863844D01*
X102370256Y-41064662D01*
X102114662Y-41320256D01*
X101913844Y-41620801D01*
X101775518Y-41954750D01*
X101705000Y-42309268D01*
X101705000Y-42670732D01*
X101775518Y-43025250D01*
X101913844Y-43359199D01*
X102114662Y-43659744D01*
X102370256Y-43915338D01*
X102670801Y-44116156D01*
X103004750Y-44254482D01*
X103359268Y-44325000D01*
X103720732Y-44325000D01*
X104075250Y-44254482D01*
X104409199Y-44116156D01*
X104709744Y-43915338D01*
X104965338Y-43659744D01*
X105166156Y-43359199D01*
X105304482Y-43025250D01*
X105375000Y-42670732D01*
X105375000Y-42309268D01*
X105304482Y-41954750D01*
X105290316Y-41920551D01*
X107241432Y-39969437D01*
X107273291Y-39943291D01*
X107342304Y-39859199D01*
X107377636Y-39816146D01*
X107455172Y-39671087D01*
X107481286Y-39585000D01*
X107502918Y-39513689D01*
X107515000Y-39391019D01*
X107515000Y-39391018D01*
X107519040Y-39350000D01*
X107515000Y-39308982D01*
X107515000Y-31093285D01*
X107597205Y-30970256D01*
X107675226Y-30781898D01*
X107715000Y-30581939D01*
X107715000Y-30378061D01*
X107675226Y-30178102D01*
X107597205Y-29989744D01*
X107517195Y-29870000D01*
X143923496Y-29870000D01*
X143911987Y-29881509D01*
X143700225Y-30198434D01*
X143554361Y-30550581D01*
X143480000Y-30924419D01*
X143480000Y-31305581D01*
X143554361Y-31679419D01*
X143698663Y-32027796D01*
X143029445Y-31358578D01*
X143003290Y-31326708D01*
X142876145Y-31222363D01*
X142731086Y-31144827D01*
X142573688Y-31097081D01*
X142451018Y-31084999D01*
X142451017Y-31084999D01*
X142409999Y-31080959D01*
X142368981Y-31084999D01*
X134491019Y-31084999D01*
X134450001Y-31080959D01*
X134408983Y-31084999D01*
X134408982Y-31084999D01*
X134286312Y-31097081D01*
X134145572Y-31139774D01*
X134128914Y-31144827D01*
X133983855Y-31222363D01*
X133908827Y-31283937D01*
X133856710Y-31326708D01*
X133830564Y-31358567D01*
X130653225Y-34535907D01*
X130508102Y-34564774D01*
X130319744Y-34642795D01*
X130150226Y-34756063D01*
X130006063Y-34900226D01*
X129892795Y-35069744D01*
X129814774Y-35258102D01*
X129775000Y-35458061D01*
X129775000Y-35661939D01*
X129814774Y-35861898D01*
X129892795Y-36050256D01*
X129975001Y-36173286D01*
X129975001Y-36349678D01*
X129940801Y-36363844D01*
X129640256Y-36564662D01*
X129384662Y-36820256D01*
X129183844Y-37120801D01*
X129045518Y-37454750D01*
X128975000Y-37809268D01*
X128975000Y-38170732D01*
X129045518Y-38525250D01*
X129183844Y-38859199D01*
X129384662Y-39159744D01*
X129640256Y-39415338D01*
X129940801Y-39616156D01*
X130274750Y-39754482D01*
X130629268Y-39825000D01*
X130990732Y-39825000D01*
X131345250Y-39754482D01*
X131679199Y-39616156D01*
X131979744Y-39415338D01*
X132235338Y-39159744D01*
X132436156Y-38859199D01*
X132574482Y-38525250D01*
X132645000Y-38170732D01*
X132645000Y-37809268D01*
X132574482Y-37454750D01*
X132436156Y-37120801D01*
X132235338Y-36820256D01*
X131979744Y-36564662D01*
X131679199Y-36363844D01*
X131645000Y-36349678D01*
X131645000Y-36173285D01*
X131727205Y-36050256D01*
X131805226Y-35861898D01*
X131834093Y-35716775D01*
X134795870Y-32754999D01*
X134887435Y-32754999D01*
X134865908Y-32863224D01*
X134248574Y-33480559D01*
X134216710Y-33506709D01*
X134190562Y-33538571D01*
X134112364Y-33633855D01*
X134034828Y-33778914D01*
X133987082Y-33936312D01*
X133970960Y-34100000D01*
X133975001Y-34141028D01*
X133975000Y-37349678D01*
X133940801Y-37363844D01*
X133640256Y-37564662D01*
X133384662Y-37820256D01*
X133183844Y-38120801D01*
X133045518Y-38454750D01*
X132975000Y-38809268D01*
X132975000Y-39170732D01*
X133045518Y-39525250D01*
X133183844Y-39859199D01*
X133384662Y-40159744D01*
X133640256Y-40415338D01*
X133940801Y-40616156D01*
X134274750Y-40754482D01*
X134629268Y-40825000D01*
X134990732Y-40825000D01*
X135345250Y-40754482D01*
X135679199Y-40616156D01*
X135979744Y-40415338D01*
X136235338Y-40159744D01*
X136436156Y-39859199D01*
X136574482Y-39525250D01*
X136645000Y-39170732D01*
X136645000Y-38809268D01*
X136574482Y-38454750D01*
X136436156Y-38120801D01*
X136235338Y-37820256D01*
X135979744Y-37564662D01*
X135679199Y-37363844D01*
X135645000Y-37349678D01*
X135645000Y-34445867D01*
X136046776Y-34044092D01*
X136191898Y-34015226D01*
X136380256Y-33937205D01*
X136549774Y-33823937D01*
X136693937Y-33679774D01*
X136807205Y-33510256D01*
X136885226Y-33321898D01*
X136925000Y-33121939D01*
X136925000Y-32918061D01*
X136892565Y-32754999D01*
X142064132Y-32754999D01*
X143527771Y-34218638D01*
X143478815Y-34258815D01*
X143399463Y-34355506D01*
X143340498Y-34465820D01*
X143304188Y-34585518D01*
X143291928Y-34710000D01*
X143291928Y-36113201D01*
X140535000Y-38870131D01*
X140535000Y-36173285D01*
X140617205Y-36050256D01*
X140695226Y-35861898D01*
X140735000Y-35661939D01*
X140735000Y-35458061D01*
X140695226Y-35258102D01*
X140617205Y-35069744D01*
X140503937Y-34900226D01*
X140359774Y-34756063D01*
X140190256Y-34642795D01*
X140001898Y-34564774D01*
X139801939Y-34525000D01*
X139598061Y-34525000D01*
X139398102Y-34564774D01*
X139209744Y-34642795D01*
X139040226Y-34756063D01*
X138896063Y-34900226D01*
X138782795Y-35069744D01*
X138704774Y-35258102D01*
X138665000Y-35458061D01*
X138665000Y-35661939D01*
X138704774Y-35861898D01*
X138782795Y-36050256D01*
X138865000Y-36173285D01*
X138865001Y-39004130D01*
X137129449Y-40739684D01*
X137095250Y-40725518D01*
X136740732Y-40655000D01*
X136379268Y-40655000D01*
X136024750Y-40725518D01*
X135690801Y-40863844D01*
X135390256Y-41064662D01*
X135134662Y-41320256D01*
X134933844Y-41620801D01*
X134795518Y-41954750D01*
X134725000Y-42309268D01*
X134725000Y-42670732D01*
X134795518Y-43025250D01*
X134933844Y-43359199D01*
X135134662Y-43659744D01*
X135390256Y-43915338D01*
X135690801Y-44116156D01*
X136024750Y-44254482D01*
X136379268Y-44325000D01*
X136740732Y-44325000D01*
X137095250Y-44254482D01*
X137429199Y-44116156D01*
X137729744Y-43915338D01*
X137985338Y-43659744D01*
X138186156Y-43359199D01*
X138324482Y-43025250D01*
X138395000Y-42670732D01*
X138395000Y-42309268D01*
X138324482Y-41954750D01*
X138310316Y-41920551D01*
X138762763Y-41468105D01*
X138704774Y-41608102D01*
X138665000Y-41808061D01*
X138665000Y-42011939D01*
X138704774Y-42211898D01*
X138782795Y-42400256D01*
X138865001Y-42523286D01*
X138865000Y-43504131D01*
X137129449Y-45239684D01*
X137095250Y-45225518D01*
X136740732Y-45155000D01*
X136379268Y-45155000D01*
X136024750Y-45225518D01*
X135690801Y-45363844D01*
X135390256Y-45564662D01*
X135134662Y-45820256D01*
X134933844Y-46120801D01*
X134795518Y-46454750D01*
X134725000Y-46809268D01*
X134725000Y-47170732D01*
X134795518Y-47525250D01*
X134933844Y-47859199D01*
X135134662Y-48159744D01*
X135390256Y-48415338D01*
X135690801Y-48616156D01*
X136024750Y-48754482D01*
X136379268Y-48825000D01*
X136740732Y-48825000D01*
X137095250Y-48754482D01*
X137129449Y-48740316D01*
X138865001Y-50475870D01*
X138865000Y-57806715D01*
X138782795Y-57929744D01*
X138704774Y-58118102D01*
X138665000Y-58318061D01*
X138665000Y-58521939D01*
X138704774Y-58721898D01*
X138782795Y-58910256D01*
X138896063Y-59079774D01*
X139040226Y-59223937D01*
X139209744Y-59337205D01*
X139398102Y-59415226D01*
X139598061Y-59455000D01*
X139801939Y-59455000D01*
X140001898Y-59415226D01*
X140190256Y-59337205D01*
X140359774Y-59223937D01*
X140365002Y-59218709D01*
X140365001Y-63204090D01*
X140293291Y-63116711D01*
X140261428Y-63090562D01*
X137726875Y-60556010D01*
X137819774Y-60493937D01*
X137963937Y-60349774D01*
X138077205Y-60180256D01*
X138155226Y-59991898D01*
X138195000Y-59791939D01*
X138195000Y-59588061D01*
X138155226Y-59388102D01*
X138077205Y-59199744D01*
X137995000Y-59076715D01*
X137995000Y-52645284D01*
X138186156Y-52359199D01*
X138324482Y-52025250D01*
X138395000Y-51670732D01*
X138395000Y-51309268D01*
X138324482Y-50954750D01*
X138186156Y-50620801D01*
X137985338Y-50320256D01*
X137729744Y-50064662D01*
X137429199Y-49863844D01*
X137095250Y-49725518D01*
X136740732Y-49655000D01*
X136379268Y-49655000D01*
X136024750Y-49725518D01*
X135690801Y-49863844D01*
X135390256Y-50064662D01*
X135134662Y-50320256D01*
X134933844Y-50620801D01*
X134795518Y-50954750D01*
X134725000Y-51309268D01*
X134725000Y-51670732D01*
X134795518Y-52025250D01*
X134933844Y-52359199D01*
X135134662Y-52659744D01*
X135390256Y-52915338D01*
X135690801Y-53116156D01*
X136024750Y-53254482D01*
X136325000Y-53314205D01*
X136325000Y-53954445D01*
X136235338Y-53820256D01*
X135979744Y-53564662D01*
X135679199Y-53363844D01*
X135345250Y-53225518D01*
X134990732Y-53155000D01*
X134629268Y-53155000D01*
X134274750Y-53225518D01*
X133940801Y-53363844D01*
X133640256Y-53564662D01*
X133601068Y-53603850D01*
X133529438Y-53516569D01*
X133529436Y-53516567D01*
X133503290Y-53484708D01*
X133471432Y-53458563D01*
X130302196Y-50289328D01*
X130481531Y-50325000D01*
X131138469Y-50325000D01*
X131782784Y-50196838D01*
X132389715Y-49945439D01*
X132935939Y-49580464D01*
X133400464Y-49115939D01*
X133765439Y-48569715D01*
X134016838Y-47962784D01*
X134145000Y-47318469D01*
X134145000Y-46661531D01*
X134016838Y-46017216D01*
X133765439Y-45410285D01*
X133400464Y-44864061D01*
X132935939Y-44399536D01*
X132389715Y-44034561D01*
X131782784Y-43783162D01*
X131138469Y-43655000D01*
X130481531Y-43655000D01*
X129837216Y-43783162D01*
X129230285Y-44034561D01*
X128684061Y-44399536D01*
X128248550Y-44835047D01*
X128244999Y-44798990D01*
X128244999Y-44798980D01*
X128232917Y-44676310D01*
X128185171Y-44518912D01*
X128107635Y-44373853D01*
X128003290Y-44246708D01*
X127971427Y-44220559D01*
X126810316Y-43059449D01*
X126824482Y-43025250D01*
X126895000Y-42670732D01*
X126895000Y-42309268D01*
X126824482Y-41954750D01*
X126686156Y-41620801D01*
X126485338Y-41320256D01*
X126229744Y-41064662D01*
X125929199Y-40863844D01*
X125595250Y-40725518D01*
X125240732Y-40655000D01*
X124879268Y-40655000D01*
X124524750Y-40725518D01*
X124490551Y-40739684D01*
X124025000Y-40274133D01*
X124025000Y-38809268D01*
X124975000Y-38809268D01*
X124975000Y-39170732D01*
X125045518Y-39525250D01*
X125183844Y-39859199D01*
X125384662Y-40159744D01*
X125640256Y-40415338D01*
X125940801Y-40616156D01*
X126274750Y-40754482D01*
X126629268Y-40825000D01*
X126990732Y-40825000D01*
X127345250Y-40754482D01*
X127679199Y-40616156D01*
X127979744Y-40415338D01*
X128235338Y-40159744D01*
X128436156Y-39859199D01*
X128574482Y-39525250D01*
X128645000Y-39170732D01*
X128645000Y-38809268D01*
X128574482Y-38454750D01*
X128436156Y-38120801D01*
X128235338Y-37820256D01*
X127979744Y-37564662D01*
X127835000Y-37467947D01*
X127835000Y-34903285D01*
X127917205Y-34780256D01*
X127995226Y-34591898D01*
X128035000Y-34391939D01*
X128035000Y-34188061D01*
X127995226Y-33988102D01*
X127917205Y-33799744D01*
X127803937Y-33630226D01*
X127659774Y-33486063D01*
X127490256Y-33372795D01*
X127301898Y-33294774D01*
X127101939Y-33255000D01*
X126898061Y-33255000D01*
X126698102Y-33294774D01*
X126509744Y-33372795D01*
X126340226Y-33486063D01*
X126196063Y-33630226D01*
X126082795Y-33799744D01*
X126004774Y-33988102D01*
X125965000Y-34188061D01*
X125965000Y-34391939D01*
X126004774Y-34591898D01*
X126082795Y-34780256D01*
X126165000Y-34903285D01*
X126165001Y-37270978D01*
X125940801Y-37363844D01*
X125640256Y-37564662D01*
X125384662Y-37820256D01*
X125183844Y-38120801D01*
X125045518Y-38454750D01*
X124975000Y-38809268D01*
X124025000Y-38809268D01*
X124025000Y-32363285D01*
X124107205Y-32240256D01*
X124185226Y-32051898D01*
X124225000Y-31851939D01*
X124225000Y-31648061D01*
X124185226Y-31448102D01*
X124107205Y-31259744D01*
X123993937Y-31090226D01*
X123849774Y-30946063D01*
X123680256Y-30832795D01*
X123491898Y-30754774D01*
X123291939Y-30715000D01*
X123088061Y-30715000D01*
X122888102Y-30754774D01*
X122699744Y-30832795D01*
X122530226Y-30946063D01*
X122386063Y-31090226D01*
X122272795Y-31259744D01*
X122194774Y-31448102D01*
X122155000Y-31648061D01*
X122155000Y-31851939D01*
X122194774Y-32051898D01*
X122272795Y-32240256D01*
X122355000Y-32363285D01*
X122355001Y-40578971D01*
X122350960Y-40620000D01*
X122367082Y-40783688D01*
X122414828Y-40941086D01*
X122492364Y-41086145D01*
X122492365Y-41086146D01*
X122596710Y-41213291D01*
X122628574Y-41239441D01*
X123309684Y-41920551D01*
X123295518Y-41954750D01*
X123225000Y-42309268D01*
X123225000Y-42670732D01*
X123295518Y-43025250D01*
X123433844Y-43359199D01*
X123634662Y-43659744D01*
X123890256Y-43915338D01*
X124190801Y-44116156D01*
X124524750Y-44254482D01*
X124879268Y-44325000D01*
X125240732Y-44325000D01*
X125595250Y-44254482D01*
X125629449Y-44240316D01*
X126574999Y-45185867D01*
X126574999Y-45954443D01*
X126485338Y-45820256D01*
X126229744Y-45564662D01*
X125929199Y-45363844D01*
X125595250Y-45225518D01*
X125240732Y-45155000D01*
X124879268Y-45155000D01*
X124524750Y-45225518D01*
X124190801Y-45363844D01*
X123890256Y-45564662D01*
X123634662Y-45820256D01*
X123433844Y-46120801D01*
X123295518Y-46454750D01*
X123225000Y-46809268D01*
X123225000Y-47170732D01*
X123295518Y-47525250D01*
X123309683Y-47559448D01*
X121485000Y-49384133D01*
X121485000Y-41253285D01*
X121567205Y-41130256D01*
X121645226Y-40941898D01*
X121685000Y-40741939D01*
X121685000Y-40538061D01*
X121645226Y-40338102D01*
X121567205Y-40149744D01*
X121453937Y-39980226D01*
X121309774Y-39836063D01*
X121140256Y-39722795D01*
X120951898Y-39644774D01*
X120751939Y-39605000D01*
X120548061Y-39605000D01*
X120348102Y-39644774D01*
X120159744Y-39722795D01*
X119990226Y-39836063D01*
X119846063Y-39980226D01*
X119732795Y-40149744D01*
X119654774Y-40338102D01*
X119615000Y-40538061D01*
X119615000Y-40741939D01*
X119654774Y-40941898D01*
X119732795Y-41130256D01*
X119815001Y-41253286D01*
X119815000Y-60346715D01*
X119732795Y-60469744D01*
X119654774Y-60658102D01*
X119615000Y-60858061D01*
X119615000Y-61061939D01*
X119654774Y-61261898D01*
X119732795Y-61450256D01*
X119846063Y-61619774D01*
X119990226Y-61763937D01*
X120159744Y-61877205D01*
X120348102Y-61955226D01*
X120548061Y-61995000D01*
X120751939Y-61995000D01*
X120951898Y-61955226D01*
X121085000Y-61900093D01*
X121085000Y-62886715D01*
X121002795Y-63009744D01*
X120924774Y-63198102D01*
X120885000Y-63398061D01*
X120885000Y-63601939D01*
X120924774Y-63801898D01*
X121002795Y-63990256D01*
X121116063Y-64159774D01*
X121260226Y-64303937D01*
X121429744Y-64417205D01*
X121618102Y-64495226D01*
X121818061Y-64535000D01*
X122021939Y-64535000D01*
X122221898Y-64495226D01*
X122410256Y-64417205D01*
X122579774Y-64303937D01*
X122723937Y-64159774D01*
X122837205Y-63990256D01*
X122915226Y-63801898D01*
X122955000Y-63601939D01*
X122955000Y-63398061D01*
X122915226Y-63198102D01*
X122837205Y-63009744D01*
X122755000Y-62886715D01*
X122755000Y-51309268D01*
X123225000Y-51309268D01*
X123225000Y-51670732D01*
X123295518Y-52025250D01*
X123433844Y-52359199D01*
X123625001Y-52645285D01*
X123625000Y-61616715D01*
X123542795Y-61739744D01*
X123464774Y-61928102D01*
X123425000Y-62128061D01*
X123425000Y-62331939D01*
X123464774Y-62531898D01*
X123542795Y-62720256D01*
X123656063Y-62889774D01*
X123800226Y-63033937D01*
X123969744Y-63147205D01*
X124158102Y-63225226D01*
X124358061Y-63265000D01*
X124561939Y-63265000D01*
X124761898Y-63225226D01*
X124950256Y-63147205D01*
X125119774Y-63033937D01*
X125263937Y-62889774D01*
X125377205Y-62720256D01*
X125455226Y-62531898D01*
X125495000Y-62331939D01*
X125495000Y-62128061D01*
X125455226Y-61928102D01*
X125377205Y-61739744D01*
X125295000Y-61616715D01*
X125295000Y-56025556D01*
X125384662Y-56159744D01*
X125640256Y-56415338D01*
X125940801Y-56616156D01*
X126165001Y-56709022D01*
X126165000Y-60346715D01*
X126082795Y-60469744D01*
X126004774Y-60658102D01*
X125965000Y-60858061D01*
X125965000Y-61061939D01*
X126004774Y-61261898D01*
X126082795Y-61450256D01*
X126196063Y-61619774D01*
X126340226Y-61763937D01*
X126509744Y-61877205D01*
X126698102Y-61955226D01*
X126898061Y-61995000D01*
X127101939Y-61995000D01*
X127301898Y-61955226D01*
X127490256Y-61877205D01*
X127659774Y-61763937D01*
X127803937Y-61619774D01*
X127917205Y-61450256D01*
X127995226Y-61261898D01*
X128035000Y-61061939D01*
X128035000Y-60858061D01*
X127995226Y-60658102D01*
X127917205Y-60469744D01*
X127835000Y-60346715D01*
X127835000Y-56512053D01*
X127979744Y-56415338D01*
X128235338Y-56159744D01*
X128436156Y-55859199D01*
X128574482Y-55525250D01*
X128645000Y-55170732D01*
X128645000Y-54809268D01*
X128574482Y-54454750D01*
X128436156Y-54120801D01*
X128235338Y-53820256D01*
X127979744Y-53564662D01*
X127679199Y-53363844D01*
X127345250Y-53225518D01*
X126990732Y-53155000D01*
X126629268Y-53155000D01*
X126274750Y-53225518D01*
X125940801Y-53363844D01*
X125640256Y-53564662D01*
X125384662Y-53820256D01*
X125295000Y-53954444D01*
X125295000Y-53314205D01*
X125595250Y-53254482D01*
X125929199Y-53116156D01*
X126229744Y-52915338D01*
X126485338Y-52659744D01*
X126686156Y-52359199D01*
X126824482Y-52025250D01*
X126895000Y-51670732D01*
X126895000Y-51309268D01*
X126824482Y-50954750D01*
X126686156Y-50620801D01*
X126485338Y-50320256D01*
X126229744Y-50064662D01*
X125929199Y-49863844D01*
X125595250Y-49725518D01*
X125240732Y-49655000D01*
X124879268Y-49655000D01*
X124524750Y-49725518D01*
X124190801Y-49863844D01*
X123890256Y-50064662D01*
X123634662Y-50320256D01*
X123433844Y-50620801D01*
X123295518Y-50954750D01*
X123225000Y-51309268D01*
X122755000Y-51309268D01*
X122755000Y-50475867D01*
X124490552Y-48740317D01*
X124524750Y-48754482D01*
X124879268Y-48825000D01*
X125240732Y-48825000D01*
X125595250Y-48754482D01*
X125929199Y-48616156D01*
X126229744Y-48415338D01*
X126485338Y-48159744D01*
X126575000Y-48025556D01*
X126575000Y-48536971D01*
X126570959Y-48577999D01*
X126587081Y-48741687D01*
X126634827Y-48899085D01*
X126712363Y-49044144D01*
X126712364Y-49044145D01*
X126816709Y-49171290D01*
X126848573Y-49197440D01*
X132074999Y-54423868D01*
X132074999Y-54549917D01*
X131979744Y-54454662D01*
X131679199Y-54253844D01*
X131345250Y-54115518D01*
X130990732Y-54045000D01*
X130629268Y-54045000D01*
X130274750Y-54115518D01*
X129940801Y-54253844D01*
X129640256Y-54454662D01*
X129384662Y-54710256D01*
X129183844Y-55010801D01*
X129045518Y-55344750D01*
X128975000Y-55699268D01*
X128975000Y-56060732D01*
X129045518Y-56415250D01*
X129183844Y-56749199D01*
X129384662Y-57049744D01*
X129640256Y-57305338D01*
X129940801Y-57506156D01*
X130274750Y-57644482D01*
X130629268Y-57715000D01*
X130990732Y-57715000D01*
X131345250Y-57644482D01*
X131679199Y-57506156D01*
X131979744Y-57305338D01*
X132074999Y-57210083D01*
X132075000Y-61428973D01*
X132070959Y-61470001D01*
X132087081Y-61633689D01*
X132134827Y-61791087D01*
X132212363Y-61936146D01*
X132212364Y-61936147D01*
X132316709Y-62063292D01*
X132348573Y-62089442D01*
X138360558Y-68101428D01*
X138386708Y-68133292D01*
X138513853Y-68237637D01*
X138658912Y-68315173D01*
X138816310Y-68362919D01*
X138938980Y-68375001D01*
X138938990Y-68375001D01*
X138979998Y-68379040D01*
X139021006Y-68375001D01*
X140378983Y-68375001D01*
X140420001Y-68379041D01*
X140461019Y-68375001D01*
X140461020Y-68375001D01*
X140583690Y-68362919D01*
X140741088Y-68315173D01*
X140886147Y-68237637D01*
X141013292Y-68133292D01*
X141039446Y-68101423D01*
X141761434Y-67379437D01*
X141793292Y-67353292D01*
X141830200Y-67308320D01*
X141856468Y-67276312D01*
X141897637Y-67226147D01*
X141975173Y-67081088D01*
X142022919Y-66923690D01*
X142035001Y-66801020D01*
X142035001Y-66801019D01*
X142039041Y-66760001D01*
X142035001Y-66718983D01*
X142035001Y-62650000D01*
X143291928Y-62650000D01*
X143291928Y-64350000D01*
X143304188Y-64474482D01*
X143340498Y-64594180D01*
X143399463Y-64704494D01*
X143478815Y-64801185D01*
X143575506Y-64880537D01*
X143685820Y-64939502D01*
X143758380Y-64961513D01*
X143626525Y-65093368D01*
X143464010Y-65336589D01*
X143352068Y-65606842D01*
X143295000Y-65893740D01*
X143295000Y-66186260D01*
X143352068Y-66473158D01*
X143464010Y-66743411D01*
X143626525Y-66986632D01*
X143833368Y-67193475D01*
X144015534Y-67315195D01*
X143898645Y-67384822D01*
X143682412Y-67579731D01*
X143508359Y-67813080D01*
X143383175Y-68075901D01*
X143338524Y-68223110D01*
X143459845Y-68453000D01*
X144653000Y-68453000D01*
X144653000Y-68433000D01*
X144907000Y-68433000D01*
X144907000Y-68453000D01*
X146100155Y-68453000D01*
X146221476Y-68223110D01*
X146176825Y-68075901D01*
X146051641Y-67813080D01*
X145877588Y-67579731D01*
X145661355Y-67384822D01*
X145544466Y-67315195D01*
X145726632Y-67193475D01*
X145933475Y-66986632D01*
X146095990Y-66743411D01*
X146207932Y-66473158D01*
X146265000Y-66186260D01*
X146265000Y-65893740D01*
X146207932Y-65606842D01*
X146095990Y-65336589D01*
X145933475Y-65093368D01*
X145801620Y-64961513D01*
X145874180Y-64939502D01*
X145984494Y-64880537D01*
X146081185Y-64801185D01*
X146160537Y-64704494D01*
X146219502Y-64594180D01*
X146255812Y-64474482D01*
X146268072Y-64350000D01*
X146268072Y-62650000D01*
X146255812Y-62525518D01*
X146219502Y-62405820D01*
X146160537Y-62295506D01*
X146081185Y-62198815D01*
X145984494Y-62119463D01*
X145874180Y-62060498D01*
X145754482Y-62024188D01*
X145630000Y-62011928D01*
X143930000Y-62011928D01*
X143805518Y-62024188D01*
X143685820Y-62060498D01*
X143575506Y-62119463D01*
X143478815Y-62198815D01*
X143399463Y-62295506D01*
X143340498Y-62405820D01*
X143304188Y-62525518D01*
X143291928Y-62650000D01*
X142035001Y-62650000D01*
X142035001Y-54725866D01*
X143295000Y-53465867D01*
X143295000Y-53486260D01*
X143352068Y-53773158D01*
X143464010Y-54043411D01*
X143626525Y-54286632D01*
X143833368Y-54493475D01*
X144007760Y-54610000D01*
X143833368Y-54726525D01*
X143626525Y-54933368D01*
X143464010Y-55176589D01*
X143352068Y-55446842D01*
X143295000Y-55733740D01*
X143295000Y-56026260D01*
X143352068Y-56313158D01*
X143464010Y-56583411D01*
X143626525Y-56826632D01*
X143833368Y-57033475D01*
X144007760Y-57150000D01*
X143833368Y-57266525D01*
X143626525Y-57473368D01*
X143464010Y-57716589D01*
X143352068Y-57986842D01*
X143295000Y-58273740D01*
X143295000Y-58566260D01*
X143352068Y-58853158D01*
X143464010Y-59123411D01*
X143626525Y-59366632D01*
X143833368Y-59573475D01*
X144076589Y-59735990D01*
X144346842Y-59847932D01*
X144633740Y-59905000D01*
X144926260Y-59905000D01*
X145213158Y-59847932D01*
X145483411Y-59735990D01*
X145726632Y-59573475D01*
X145933475Y-59366632D01*
X146095990Y-59123411D01*
X146207932Y-58853158D01*
X146265000Y-58566260D01*
X146265000Y-58273740D01*
X146207932Y-57986842D01*
X146095990Y-57716589D01*
X145933475Y-57473368D01*
X145726632Y-57266525D01*
X145552240Y-57150000D01*
X145726632Y-57033475D01*
X145933475Y-56826632D01*
X146095990Y-56583411D01*
X146207932Y-56313158D01*
X146265000Y-56026260D01*
X146265000Y-55733740D01*
X146207932Y-55446842D01*
X146095990Y-55176589D01*
X145933475Y-54933368D01*
X145726632Y-54726525D01*
X145552240Y-54610000D01*
X145726632Y-54493475D01*
X145933475Y-54286632D01*
X146095990Y-54043411D01*
X146207932Y-53773158D01*
X146265000Y-53486260D01*
X146265000Y-53193740D01*
X146207932Y-52906842D01*
X146095990Y-52636589D01*
X145933475Y-52393368D01*
X145726632Y-52186525D01*
X145552240Y-52070000D01*
X145726632Y-51953475D01*
X145933475Y-51746632D01*
X146095990Y-51503411D01*
X146207932Y-51233158D01*
X146265000Y-50946260D01*
X146265000Y-50653740D01*
X146207932Y-50366842D01*
X146095990Y-50096589D01*
X145933475Y-49853368D01*
X145726632Y-49646525D01*
X145552240Y-49530000D01*
X145726632Y-49413475D01*
X145933475Y-49206632D01*
X146095990Y-48963411D01*
X146207932Y-48693158D01*
X146265000Y-48406260D01*
X146265000Y-48113740D01*
X146207932Y-47826842D01*
X146095990Y-47556589D01*
X145933475Y-47313368D01*
X145726632Y-47106525D01*
X145552240Y-46990000D01*
X145726632Y-46873475D01*
X145933475Y-46666632D01*
X146095990Y-46423411D01*
X146207932Y-46153158D01*
X146265000Y-45866260D01*
X146265000Y-45573740D01*
X146238807Y-45442060D01*
X146660000Y-45020867D01*
X146660001Y-70263497D01*
X146648491Y-70251987D01*
X146331566Y-70040225D01*
X145979419Y-69894361D01*
X145605581Y-69820000D01*
X145586109Y-69820000D01*
X145661355Y-69775178D01*
X145877588Y-69580269D01*
X146051641Y-69346920D01*
X146176825Y-69084099D01*
X146221476Y-68936890D01*
X146100155Y-68707000D01*
X144907000Y-68707000D01*
X144907000Y-68727000D01*
X144653000Y-68727000D01*
X144653000Y-68707000D01*
X143459845Y-68707000D01*
X143338524Y-68936890D01*
X143383175Y-69084099D01*
X143508359Y-69346920D01*
X143682412Y-69580269D01*
X143898645Y-69775178D01*
X144148748Y-69924157D01*
X144423109Y-70021481D01*
X144652998Y-69900815D01*
X144652998Y-69976203D01*
X144498434Y-70040225D01*
X144181509Y-70251987D01*
X143911987Y-70521509D01*
X143700225Y-70838434D01*
X143554361Y-71190581D01*
X143480000Y-71564419D01*
X143480000Y-71945581D01*
X143554361Y-72319419D01*
X143700225Y-72671566D01*
X143911987Y-72988491D01*
X143923496Y-73000000D01*
X126538821Y-73000000D01*
X126607637Y-72916147D01*
X126685173Y-72771088D01*
X126732919Y-72613690D01*
X126745001Y-72491020D01*
X126745001Y-72491019D01*
X126749041Y-72450001D01*
X126745001Y-72408983D01*
X126745001Y-68745866D01*
X126835000Y-68655867D01*
X126835000Y-68721335D01*
X126890147Y-68998574D01*
X126998320Y-69259727D01*
X127155363Y-69494759D01*
X127355241Y-69694637D01*
X127590273Y-69851680D01*
X127851426Y-69959853D01*
X128128665Y-70015000D01*
X128411335Y-70015000D01*
X128688574Y-69959853D01*
X128949727Y-69851680D01*
X129184759Y-69694637D01*
X129384637Y-69494759D01*
X129437930Y-69415000D01*
X129498982Y-69415000D01*
X129540000Y-69419040D01*
X129581018Y-69415000D01*
X129581019Y-69415000D01*
X129703689Y-69402918D01*
X129861087Y-69355172D01*
X130006146Y-69277636D01*
X130133291Y-69173291D01*
X130159446Y-69141421D01*
X131844582Y-67456286D01*
X131938665Y-67475000D01*
X132221335Y-67475000D01*
X132498574Y-67419853D01*
X132759727Y-67311680D01*
X132994759Y-67154637D01*
X133194637Y-66954759D01*
X133351680Y-66719727D01*
X133459853Y-66458574D01*
X133515000Y-66181335D01*
X133515000Y-65898665D01*
X133459853Y-65621426D01*
X133351680Y-65360273D01*
X133194637Y-65125241D01*
X132994759Y-64925363D01*
X132759727Y-64768320D01*
X132498574Y-64660147D01*
X132221335Y-64605000D01*
X131938665Y-64605000D01*
X131661426Y-64660147D01*
X131400273Y-64768320D01*
X131165241Y-64925363D01*
X130965363Y-65125241D01*
X130808320Y-65360273D01*
X130700147Y-65621426D01*
X130645000Y-65898665D01*
X130645000Y-66181335D01*
X130663714Y-66275418D01*
X129329264Y-67609868D01*
X129184759Y-67465363D01*
X128952241Y-67310000D01*
X129184759Y-67154637D01*
X129384637Y-66954759D01*
X129541680Y-66719727D01*
X129649853Y-66458574D01*
X129705000Y-66181335D01*
X129705000Y-65898665D01*
X129649853Y-65621426D01*
X129541680Y-65360273D01*
X129384637Y-65125241D01*
X129184759Y-64925363D01*
X129105000Y-64872070D01*
X129105000Y-64113285D01*
X129187205Y-63990256D01*
X129265226Y-63801898D01*
X129305000Y-63601939D01*
X129305000Y-63398061D01*
X129265226Y-63198102D01*
X129187205Y-63009744D01*
X129073937Y-62840226D01*
X128929774Y-62696063D01*
X128760256Y-62582795D01*
X128571898Y-62504774D01*
X128371939Y-62465000D01*
X128168061Y-62465000D01*
X127968102Y-62504774D01*
X127779744Y-62582795D01*
X127610226Y-62696063D01*
X127466063Y-62840226D01*
X127352795Y-63009744D01*
X127274774Y-63198102D01*
X127235000Y-63398061D01*
X127235000Y-63601939D01*
X127274774Y-63801898D01*
X127352795Y-63990256D01*
X127435000Y-64113285D01*
X127435001Y-64872070D01*
X127355241Y-64925363D01*
X127155363Y-65125241D01*
X126998320Y-65360273D01*
X126890147Y-65621426D01*
X126835000Y-65898665D01*
X126835000Y-66181335D01*
X126853714Y-66275417D01*
X125348575Y-67780558D01*
X125316711Y-67806708D01*
X125272083Y-67861088D01*
X125212365Y-67933854D01*
X125134829Y-68078913D01*
X125087083Y-68236311D01*
X125070961Y-68399999D01*
X125075002Y-68441027D01*
X125075002Y-69283164D01*
X125053291Y-69256709D01*
X125021433Y-69230564D01*
X122088072Y-66297205D01*
X122088072Y-65240000D01*
X122075812Y-65115518D01*
X122039502Y-64995820D01*
X121980537Y-64885506D01*
X121901185Y-64788815D01*
X121804494Y-64709463D01*
X121694180Y-64650498D01*
X121574482Y-64614188D01*
X121450000Y-64601928D01*
X119850000Y-64601928D01*
X119725518Y-64614188D01*
X119605820Y-64650498D01*
X119495506Y-64709463D01*
X119398815Y-64788815D01*
X119319463Y-64885506D01*
X119260498Y-64995820D01*
X119224188Y-65115518D01*
X119211928Y-65240000D01*
X119211928Y-66840000D01*
X119224188Y-66964482D01*
X119260498Y-67084180D01*
X119319463Y-67194494D01*
X119398815Y-67291185D01*
X119495506Y-67370537D01*
X119605820Y-67429502D01*
X119725518Y-67465812D01*
X119750080Y-67468231D01*
X119586481Y-67616586D01*
X119418963Y-67842580D01*
X119298754Y-68096913D01*
X119258096Y-68230961D01*
X119380085Y-68453000D01*
X120523000Y-68453000D01*
X120523000Y-68433000D01*
X120777000Y-68433000D01*
X120777000Y-68453000D01*
X120797000Y-68453000D01*
X120797000Y-68707000D01*
X120777000Y-68707000D01*
X120777000Y-69850624D01*
X120980482Y-69961772D01*
X120973368Y-69966525D01*
X120766525Y-70173368D01*
X120650000Y-70347760D01*
X120533475Y-70173368D01*
X120326632Y-69966525D01*
X120319518Y-69961772D01*
X120523000Y-69850624D01*
X120523000Y-68707000D01*
X119380085Y-68707000D01*
X119258096Y-68929039D01*
X119298754Y-69063087D01*
X119418963Y-69317420D01*
X119586481Y-69543414D01*
X119732778Y-69676079D01*
X119526260Y-69635000D01*
X119233740Y-69635000D01*
X119102060Y-69661193D01*
X118945000Y-69504133D01*
X118945000Y-58461007D01*
X118949039Y-58419999D01*
X118945000Y-58378991D01*
X118945000Y-58378981D01*
X118932918Y-58256311D01*
X118885172Y-58098913D01*
X118807636Y-57953854D01*
X118703291Y-57826709D01*
X118671427Y-57800559D01*
X118185868Y-57315000D01*
X118251335Y-57315000D01*
X118528574Y-57259853D01*
X118789727Y-57151680D01*
X119024759Y-56994637D01*
X119224637Y-56794759D01*
X119381680Y-56559727D01*
X119489853Y-56298574D01*
X119545000Y-56021335D01*
X119545000Y-55738665D01*
X119489853Y-55461426D01*
X119381680Y-55200273D01*
X119224637Y-54965241D01*
X119024759Y-54765363D01*
X118792241Y-54610000D01*
X119024759Y-54454637D01*
X119224637Y-54254759D01*
X119381680Y-54019727D01*
X119489853Y-53758574D01*
X119545000Y-53481335D01*
X119545000Y-53198665D01*
X119489853Y-52921426D01*
X119381680Y-52660273D01*
X119224637Y-52425241D01*
X119024759Y-52225363D01*
X118792241Y-52070000D01*
X119024759Y-51914637D01*
X119224637Y-51714759D01*
X119381680Y-51479727D01*
X119489853Y-51218574D01*
X119545000Y-50941335D01*
X119545000Y-50658665D01*
X119489853Y-50381426D01*
X119381680Y-50120273D01*
X119224637Y-49885241D01*
X119024759Y-49685363D01*
X118789727Y-49528320D01*
X118779135Y-49523933D01*
X118965131Y-49412385D01*
X119173519Y-49223414D01*
X119341037Y-48997420D01*
X119461246Y-48743087D01*
X119501904Y-48609039D01*
X119379915Y-48387000D01*
X118237000Y-48387000D01*
X118237000Y-48407000D01*
X117983000Y-48407000D01*
X117983000Y-48387000D01*
X117963000Y-48387000D01*
X117963000Y-48133000D01*
X117983000Y-48133000D01*
X117983000Y-48113000D01*
X118237000Y-48113000D01*
X118237000Y-48133000D01*
X119379915Y-48133000D01*
X119501904Y-47910961D01*
X119461246Y-47776913D01*
X119341037Y-47522580D01*
X119173519Y-47296586D01*
X118965131Y-47107615D01*
X118779135Y-46996067D01*
X118789727Y-46991680D01*
X119024759Y-46834637D01*
X119224637Y-46634759D01*
X119381680Y-46399727D01*
X119489853Y-46138574D01*
X119545000Y-45861335D01*
X119545000Y-45578665D01*
X119489853Y-45301426D01*
X119381680Y-45040273D01*
X119224637Y-44805241D01*
X119024759Y-44605363D01*
X118792241Y-44450000D01*
X119024759Y-44294637D01*
X119224637Y-44094759D01*
X119381680Y-43859727D01*
X119489853Y-43598574D01*
X119545000Y-43321335D01*
X119545000Y-43038665D01*
X119489853Y-42761426D01*
X119381680Y-42500273D01*
X119224637Y-42265241D01*
X119024759Y-42065363D01*
X118792241Y-41910000D01*
X119024759Y-41754637D01*
X119224637Y-41554759D01*
X119381680Y-41319727D01*
X119489853Y-41058574D01*
X119545000Y-40781335D01*
X119545000Y-40498665D01*
X119489853Y-40221426D01*
X119381680Y-39960273D01*
X119224637Y-39725241D01*
X119024759Y-39525363D01*
X118792241Y-39370000D01*
X119024759Y-39214637D01*
X119224637Y-39014759D01*
X119381680Y-38779727D01*
X119489853Y-38518574D01*
X119545000Y-38241335D01*
X119545000Y-37958665D01*
X119489853Y-37681426D01*
X119381680Y-37420273D01*
X119224637Y-37185241D01*
X119024759Y-36985363D01*
X118789727Y-36828320D01*
X118528574Y-36720147D01*
X118251335Y-36665000D01*
X117968665Y-36665000D01*
X117691426Y-36720147D01*
X117675000Y-36726951D01*
X117675000Y-36173285D01*
X117757205Y-36050256D01*
X117835226Y-35861898D01*
X117875000Y-35661939D01*
X117875000Y-35458061D01*
X117835226Y-35258102D01*
X117757205Y-35069744D01*
X117643937Y-34900226D01*
X117499774Y-34756063D01*
X117330256Y-34642795D01*
X117141898Y-34564774D01*
X116941939Y-34525000D01*
X116738061Y-34525000D01*
X116538102Y-34564774D01*
X116405000Y-34619907D01*
X116405000Y-33633285D01*
X116487205Y-33510256D01*
X116565226Y-33321898D01*
X116605000Y-33121939D01*
X116605000Y-32918061D01*
X116565226Y-32718102D01*
X116487205Y-32529744D01*
X116373937Y-32360226D01*
X116229774Y-32216063D01*
X116060256Y-32102795D01*
X115871898Y-32024774D01*
X115671939Y-31985000D01*
X115468061Y-31985000D01*
X115268102Y-32024774D01*
X115079744Y-32102795D01*
X114910226Y-32216063D01*
X114766063Y-32360226D01*
X114652795Y-32529744D01*
X114574774Y-32718102D01*
X114535000Y-32918061D01*
X114535000Y-33121939D01*
X114574774Y-33321898D01*
X114652795Y-33510256D01*
X114735000Y-33633285D01*
X114735001Y-46244132D01*
X111906285Y-43415418D01*
X111925000Y-43321335D01*
X111925000Y-43038665D01*
X111869853Y-42761426D01*
X111761680Y-42500273D01*
X111604637Y-42265241D01*
X111404759Y-42065363D01*
X111172241Y-41910000D01*
X111404759Y-41754637D01*
X111604637Y-41554759D01*
X111761680Y-41319727D01*
X111869853Y-41058574D01*
X111925000Y-40781335D01*
X111925000Y-40498665D01*
X111869853Y-40221426D01*
X111761680Y-39960273D01*
X111604637Y-39725241D01*
X111406039Y-39526643D01*
X111414482Y-39525812D01*
X111534180Y-39489502D01*
X111644494Y-39430537D01*
X111741185Y-39351185D01*
X111820537Y-39254494D01*
X111879502Y-39144180D01*
X111915812Y-39024482D01*
X111928072Y-38900000D01*
X111928072Y-37300000D01*
X111915812Y-37175518D01*
X111879502Y-37055820D01*
X111820537Y-36945506D01*
X111741185Y-36848815D01*
X111644494Y-36769463D01*
X111534180Y-36710498D01*
X111414482Y-36674188D01*
X111290000Y-36661928D01*
X109690000Y-36661928D01*
X109565518Y-36674188D01*
X109445820Y-36710498D01*
X109335506Y-36769463D01*
X109238815Y-36848815D01*
X109159463Y-36945506D01*
X109100498Y-37055820D01*
X109064188Y-37175518D01*
X109051928Y-37300000D01*
X109051928Y-38900000D01*
X109064188Y-39024482D01*
X109100498Y-39144180D01*
X109159463Y-39254494D01*
X109238815Y-39351185D01*
X109335506Y-39430537D01*
X109445820Y-39489502D01*
X109565518Y-39525812D01*
X109573961Y-39526643D01*
X109375363Y-39725241D01*
X109218320Y-39960273D01*
X109110147Y-40221426D01*
X109055000Y-40498665D01*
X109055000Y-40781335D01*
X109110147Y-41058574D01*
X109218320Y-41319727D01*
X109375363Y-41554759D01*
X109575241Y-41754637D01*
X109807759Y-41910000D01*
X109575241Y-42065363D01*
X109375363Y-42265241D01*
X109218320Y-42500273D01*
X109110147Y-42761426D01*
X109055000Y-43038665D01*
X109055000Y-43321335D01*
X109110147Y-43598574D01*
X109218320Y-43859727D01*
X109375363Y-44094759D01*
X109575241Y-44294637D01*
X109807759Y-44450000D01*
X109575241Y-44605363D01*
X109375363Y-44805241D01*
X109218320Y-45040273D01*
X109110147Y-45301426D01*
X109055000Y-45578665D01*
X109055000Y-45861335D01*
X109073714Y-45955418D01*
X107728563Y-47300570D01*
X107696699Y-47326720D01*
X107670551Y-47358582D01*
X107592353Y-47453866D01*
X107514817Y-47598925D01*
X107467071Y-47756323D01*
X107450949Y-47920011D01*
X107454990Y-47961040D01*
X107454990Y-49808572D01*
X107377636Y-49663854D01*
X107367833Y-49651909D01*
X107299439Y-49568570D01*
X107299437Y-49568568D01*
X107273291Y-49536709D01*
X107241432Y-49510563D01*
X105290316Y-47559449D01*
X105304482Y-47525250D01*
X105375000Y-47170732D01*
X105375000Y-46809268D01*
X105304482Y-46454750D01*
X105166156Y-46120801D01*
X104965338Y-45820256D01*
X104709744Y-45564662D01*
X104409199Y-45363844D01*
X104075250Y-45225518D01*
X103720732Y-45155000D01*
X103359268Y-45155000D01*
X103004750Y-45225518D01*
X102670801Y-45363844D01*
X102370256Y-45564662D01*
X102114662Y-45820256D01*
X101913844Y-46120801D01*
X101775518Y-46454750D01*
X101705000Y-46809268D01*
X101705000Y-47170732D01*
X101775518Y-47525250D01*
X101913844Y-47859199D01*
X102114662Y-48159744D01*
X102370256Y-48415338D01*
X102670801Y-48616156D01*
X103004750Y-48754482D01*
X103359268Y-48825000D01*
X103720732Y-48825000D01*
X104075250Y-48754482D01*
X104109449Y-48740316D01*
X105845001Y-50475870D01*
X105845000Y-57806715D01*
X105762795Y-57929744D01*
X105684774Y-58118102D01*
X105645000Y-58318061D01*
X105645000Y-58521939D01*
X105684774Y-58721898D01*
X105762795Y-58910256D01*
X105876063Y-59079774D01*
X106020226Y-59223937D01*
X106113125Y-59286010D01*
X103848573Y-61550562D01*
X103816709Y-61576712D01*
X103755389Y-61651431D01*
X103712363Y-61703858D01*
X103634827Y-61848917D01*
X103587081Y-62006315D01*
X103570959Y-62170003D01*
X103575000Y-62211031D01*
X103574999Y-64011288D01*
X103529774Y-63966063D01*
X103360256Y-63852795D01*
X103171898Y-63774774D01*
X102971939Y-63735000D01*
X102768061Y-63735000D01*
X102568102Y-63774774D01*
X102379744Y-63852795D01*
X102210226Y-63966063D01*
X102066063Y-64110226D01*
X101952795Y-64279744D01*
X101874774Y-64468102D01*
X101835000Y-64668061D01*
X101835000Y-64871939D01*
X101874774Y-65071898D01*
X101952795Y-65260256D01*
X102035000Y-65383285D01*
X102035001Y-67268972D01*
X102030960Y-67310000D01*
X102047082Y-67473688D01*
X102094828Y-67631086D01*
X102164316Y-67761088D01*
X102172365Y-67776146D01*
X102276710Y-67903291D01*
X102308574Y-67929441D01*
X104014132Y-69635000D01*
X104012998Y-69635000D01*
X104012998Y-69799844D01*
X103783110Y-69678524D01*
X103635901Y-69723175D01*
X103373080Y-69848359D01*
X103139731Y-70022412D01*
X102944822Y-70238645D01*
X102795843Y-70488748D01*
X102698519Y-70763109D01*
X102819185Y-70992998D01*
X102792496Y-70992998D01*
X101369447Y-69569949D01*
X101444637Y-69494759D01*
X101601680Y-69259727D01*
X101709853Y-68998574D01*
X101765000Y-68721335D01*
X101765000Y-68438665D01*
X101709853Y-68161426D01*
X101601680Y-67900273D01*
X101444637Y-67665241D01*
X101244759Y-67465363D01*
X101012241Y-67310000D01*
X101244759Y-67154637D01*
X101444637Y-66954759D01*
X101601680Y-66719727D01*
X101709853Y-66458574D01*
X101765000Y-66181335D01*
X101765000Y-65898665D01*
X101709853Y-65621426D01*
X101601680Y-65360273D01*
X101444637Y-65125241D01*
X101244759Y-64925363D01*
X101009727Y-64768320D01*
X100748574Y-64660147D01*
X100471335Y-64605000D01*
X100188665Y-64605000D01*
X99911426Y-64660147D01*
X99650273Y-64768320D01*
X99415241Y-64925363D01*
X99215363Y-65125241D01*
X99162070Y-65205000D01*
X98957930Y-65205000D01*
X98904637Y-65125241D01*
X98704759Y-64925363D01*
X98469727Y-64768320D01*
X98208574Y-64660147D01*
X97931335Y-64605000D01*
X97648665Y-64605000D01*
X97371426Y-64660147D01*
X97110273Y-64768320D01*
X96875241Y-64925363D01*
X96675363Y-65125241D01*
X96518320Y-65360273D01*
X96410147Y-65621426D01*
X96355000Y-65898665D01*
X96355000Y-66181335D01*
X96410147Y-66458574D01*
X96470799Y-66605001D01*
X91489201Y-66605001D01*
X91549853Y-66458574D01*
X91561662Y-66399205D01*
X101220552Y-56740317D01*
X101254750Y-56754482D01*
X101609268Y-56825000D01*
X101970732Y-56825000D01*
X102325250Y-56754482D01*
X102659199Y-56616156D01*
X102959744Y-56415338D01*
X103215338Y-56159744D01*
X103305000Y-56025555D01*
X103305000Y-59076715D01*
X103222795Y-59199744D01*
X103144774Y-59388102D01*
X103105000Y-59588061D01*
X103105000Y-59791939D01*
X103144774Y-59991898D01*
X103222795Y-60180256D01*
X103336063Y-60349774D01*
X103480226Y-60493937D01*
X103649744Y-60607205D01*
X103838102Y-60685226D01*
X104038061Y-60725000D01*
X104241939Y-60725000D01*
X104441898Y-60685226D01*
X104630256Y-60607205D01*
X104799774Y-60493937D01*
X104943937Y-60349774D01*
X105057205Y-60180256D01*
X105135226Y-59991898D01*
X105175000Y-59791939D01*
X105175000Y-59588061D01*
X105135226Y-59388102D01*
X105057205Y-59199744D01*
X104975000Y-59076715D01*
X104975000Y-52645284D01*
X105166156Y-52359199D01*
X105304482Y-52025250D01*
X105375000Y-51670732D01*
X105375000Y-51309268D01*
X105304482Y-50954750D01*
X105166156Y-50620801D01*
X104965338Y-50320256D01*
X104709744Y-50064662D01*
X104409199Y-49863844D01*
X104075250Y-49725518D01*
X103720732Y-49655000D01*
X103359268Y-49655000D01*
X103004750Y-49725518D01*
X102670801Y-49863844D01*
X102370256Y-50064662D01*
X102114662Y-50320256D01*
X101913844Y-50620801D01*
X101775518Y-50954750D01*
X101705000Y-51309268D01*
X101705000Y-51670732D01*
X101775518Y-52025250D01*
X101913844Y-52359199D01*
X102114662Y-52659744D01*
X102370256Y-52915338D01*
X102670801Y-53116156D01*
X103004750Y-53254482D01*
X103305001Y-53314206D01*
X103305001Y-53954446D01*
X103215338Y-53820256D01*
X102959744Y-53564662D01*
X102659199Y-53363844D01*
X102325250Y-53225518D01*
X101970732Y-53155000D01*
X101609268Y-53155000D01*
X101254750Y-53225518D01*
X100920801Y-53363844D01*
X100620256Y-53564662D01*
X100364662Y-53820256D01*
X100163844Y-54120801D01*
X100025518Y-54454750D01*
X99955000Y-54809268D01*
X99955000Y-55170732D01*
X100025518Y-55525250D01*
X100039683Y-55559448D01*
X99625000Y-55974131D01*
X99625000Y-55699268D01*
X99554482Y-55344750D01*
X99416156Y-55010801D01*
X99215338Y-54710256D01*
X98959744Y-54454662D01*
X98659199Y-54253844D01*
X98325250Y-54115518D01*
X97970732Y-54045000D01*
X97609268Y-54045000D01*
X97254750Y-54115518D01*
X96920801Y-54253844D01*
X96620256Y-54454662D01*
X96364662Y-54710256D01*
X96163844Y-55010801D01*
X96025518Y-55344750D01*
X95955000Y-55699268D01*
X95955000Y-56060732D01*
X96025518Y-56415250D01*
X96163844Y-56749199D01*
X96364662Y-57049744D01*
X96620256Y-57305338D01*
X96920801Y-57506156D01*
X97254750Y-57644482D01*
X97609268Y-57715000D01*
X97884132Y-57715000D01*
X94965210Y-60633922D01*
X94897205Y-60469744D01*
X94815000Y-60346715D01*
X94815000Y-56512053D01*
X94959744Y-56415338D01*
X95215338Y-56159744D01*
X95416156Y-55859199D01*
X95554482Y-55525250D01*
X95625000Y-55170732D01*
X95625000Y-54809268D01*
X95554482Y-54454750D01*
X95416156Y-54120801D01*
X95215338Y-53820256D01*
X94959744Y-53564662D01*
X94659199Y-53363844D01*
X94325250Y-53225518D01*
X93970732Y-53155000D01*
X93609268Y-53155000D01*
X93254750Y-53225518D01*
X92920801Y-53363844D01*
X92620256Y-53564662D01*
X92364662Y-53820256D01*
X92275000Y-53954444D01*
X92275000Y-53314205D01*
X92575250Y-53254482D01*
X92909199Y-53116156D01*
X93209744Y-52915338D01*
X93465338Y-52659744D01*
X93666156Y-52359199D01*
X93804482Y-52025250D01*
X93875000Y-51670732D01*
X93875000Y-51309268D01*
X93804482Y-50954750D01*
X93666156Y-50620801D01*
X93465338Y-50320256D01*
X93209744Y-50064662D01*
X92909199Y-49863844D01*
X92575250Y-49725518D01*
X92220732Y-49655000D01*
X91859268Y-49655000D01*
X91504750Y-49725518D01*
X91170801Y-49863844D01*
X90870256Y-50064662D01*
X90614662Y-50320256D01*
X90413844Y-50620801D01*
X90275518Y-50954750D01*
X90205000Y-51309268D01*
X90205000Y-51670732D01*
X90275518Y-52025250D01*
X90413844Y-52359199D01*
X90605001Y-52645285D01*
X90605000Y-61616715D01*
X90522795Y-61739744D01*
X90444774Y-61928102D01*
X90405000Y-62128061D01*
X90405000Y-62331939D01*
X90444774Y-62531898D01*
X90522795Y-62720256D01*
X90636063Y-62889774D01*
X90780226Y-63033937D01*
X90949744Y-63147205D01*
X91138102Y-63225226D01*
X91338061Y-63265000D01*
X91541939Y-63265000D01*
X91741898Y-63225226D01*
X91930256Y-63147205D01*
X92099774Y-63033937D01*
X92243937Y-62889774D01*
X92357205Y-62720256D01*
X92435226Y-62531898D01*
X92475000Y-62331939D01*
X92475000Y-62128061D01*
X92435226Y-61928102D01*
X92357205Y-61739744D01*
X92275000Y-61616715D01*
X92275000Y-56025556D01*
X92364662Y-56159744D01*
X92620256Y-56415338D01*
X92920801Y-56616156D01*
X93145001Y-56709022D01*
X93145000Y-60346715D01*
X93062795Y-60469744D01*
X92984774Y-60658102D01*
X92945000Y-60858061D01*
X92945000Y-61061939D01*
X92984774Y-61261898D01*
X93062795Y-61450256D01*
X93176063Y-61619774D01*
X93320226Y-61763937D01*
X93489744Y-61877205D01*
X93653922Y-61945210D01*
X90836353Y-64762780D01*
X90588574Y-64660147D01*
X90311335Y-64605000D01*
X90028665Y-64605000D01*
X89751426Y-64660147D01*
X89490273Y-64768320D01*
X89255241Y-64925363D01*
X89055363Y-65125241D01*
X88898320Y-65360273D01*
X88790147Y-65621426D01*
X88735000Y-65898665D01*
X88735000Y-66181335D01*
X88790147Y-66458574D01*
X88850799Y-66605001D01*
X88105870Y-66605001D01*
X85308072Y-63807205D01*
X85308072Y-62650000D01*
X85295812Y-62525518D01*
X85259502Y-62405820D01*
X85200537Y-62295506D01*
X85121185Y-62198815D01*
X85024494Y-62119463D01*
X84914180Y-62060498D01*
X84794482Y-62024188D01*
X84670000Y-62011928D01*
X82970000Y-62011928D01*
X82845518Y-62024188D01*
X82725820Y-62060498D01*
X82615506Y-62119463D01*
X82518815Y-62198815D01*
X82439463Y-62295506D01*
X82380498Y-62405820D01*
X82344188Y-62525518D01*
X82331928Y-62650000D01*
X82331928Y-64350000D01*
X82344188Y-64474482D01*
X82380498Y-64594180D01*
X82439463Y-64704494D01*
X82518815Y-64801185D01*
X82615506Y-64880537D01*
X82725820Y-64939502D01*
X82798380Y-64961513D01*
X82666525Y-65093368D01*
X82504010Y-65336589D01*
X82392068Y-65606842D01*
X82335000Y-65893740D01*
X82335000Y-66186260D01*
X82392068Y-66473158D01*
X82504010Y-66743411D01*
X82666525Y-66986632D01*
X82873368Y-67193475D01*
X83055534Y-67315195D01*
X82938645Y-67384822D01*
X82722412Y-67579731D01*
X82548359Y-67813080D01*
X82423175Y-68075901D01*
X82378524Y-68223110D01*
X82499845Y-68453000D01*
X83693000Y-68453000D01*
X83693000Y-68433000D01*
X83947000Y-68433000D01*
X83947000Y-68453000D01*
X85140155Y-68453000D01*
X85261476Y-68223110D01*
X85216825Y-68075901D01*
X85091641Y-67813080D01*
X84917588Y-67579731D01*
X84701355Y-67384822D01*
X84584466Y-67315195D01*
X84766632Y-67193475D01*
X84973475Y-66986632D01*
X85135990Y-66743411D01*
X85247932Y-66473158D01*
X85305000Y-66186260D01*
X85305000Y-66165868D01*
X87140564Y-68001433D01*
X87166710Y-68033292D01*
X87198569Y-68059438D01*
X87198571Y-68059440D01*
X87293855Y-68137637D01*
X87438914Y-68215173D01*
X87596312Y-68262919D01*
X87760001Y-68279041D01*
X87801019Y-68275001D01*
X98844134Y-68275001D01*
X98913715Y-68344582D01*
X98895000Y-68438665D01*
X98895000Y-68721335D01*
X98950147Y-68998574D01*
X99058320Y-69259727D01*
X99215363Y-69494759D01*
X99415241Y-69694637D01*
X99494530Y-69747616D01*
X99507082Y-69875058D01*
X99554828Y-70032456D01*
X99632364Y-70177515D01*
X99632365Y-70177516D01*
X99736710Y-70304661D01*
X99768574Y-70330811D01*
X102437761Y-73000000D01*
X84676504Y-73000000D01*
X84688013Y-72988491D01*
X84899775Y-72671566D01*
X85045639Y-72319419D01*
X85120000Y-71945581D01*
X85120000Y-71564419D01*
X85045639Y-71190581D01*
X84899775Y-70838434D01*
X84688013Y-70521509D01*
X84418491Y-70251987D01*
X84101566Y-70040225D01*
X83947002Y-69976203D01*
X83947002Y-69900815D01*
X84176891Y-70021481D01*
X84451252Y-69924157D01*
X84701355Y-69775178D01*
X84917588Y-69580269D01*
X85091641Y-69346920D01*
X85216825Y-69084099D01*
X85261476Y-68936890D01*
X85140155Y-68707000D01*
X83947000Y-68707000D01*
X83947000Y-68727000D01*
X83693000Y-68727000D01*
X83693000Y-68707000D01*
X82499845Y-68707000D01*
X82378524Y-68936890D01*
X82423175Y-69084099D01*
X82548359Y-69346920D01*
X82722412Y-69580269D01*
X82938645Y-69775178D01*
X83013891Y-69820000D01*
X82994419Y-69820000D01*
X82620581Y-69894361D01*
X82268434Y-70040225D01*
X81951509Y-70251987D01*
X81940000Y-70263496D01*
X81940000Y-34710000D01*
X82331928Y-34710000D01*
X82331928Y-36410000D01*
X82344188Y-36534482D01*
X82380498Y-36654180D01*
X82439463Y-36764494D01*
X82518815Y-36861185D01*
X82615506Y-36940537D01*
X82725820Y-36999502D01*
X82798380Y-37021513D01*
X82666525Y-37153368D01*
X82504010Y-37396589D01*
X82392068Y-37666842D01*
X82335000Y-37953740D01*
X82335000Y-38246260D01*
X82392068Y-38533158D01*
X82504010Y-38803411D01*
X82666525Y-39046632D01*
X82873368Y-39253475D01*
X83047760Y-39370000D01*
X82873368Y-39486525D01*
X82666525Y-39693368D01*
X82504010Y-39936589D01*
X82392068Y-40206842D01*
X82335000Y-40493740D01*
X82335000Y-40786260D01*
X82392068Y-41073158D01*
X82504010Y-41343411D01*
X82666525Y-41586632D01*
X82873368Y-41793475D01*
X83047760Y-41910000D01*
X82873368Y-42026525D01*
X82666525Y-42233368D01*
X82504010Y-42476589D01*
X82392068Y-42746842D01*
X82335000Y-43033740D01*
X82335000Y-43326260D01*
X82392068Y-43613158D01*
X82504010Y-43883411D01*
X82666525Y-44126632D01*
X82873368Y-44333475D01*
X83047760Y-44450000D01*
X82873368Y-44566525D01*
X82666525Y-44773368D01*
X82504010Y-45016589D01*
X82392068Y-45286842D01*
X82335000Y-45573740D01*
X82335000Y-45866260D01*
X82392068Y-46153158D01*
X82504010Y-46423411D01*
X82666525Y-46666632D01*
X82873368Y-46873475D01*
X83047760Y-46990000D01*
X82873368Y-47106525D01*
X82666525Y-47313368D01*
X82504010Y-47556589D01*
X82392068Y-47826842D01*
X82335000Y-48113740D01*
X82335000Y-48406260D01*
X82392068Y-48693158D01*
X82504010Y-48963411D01*
X82666525Y-49206632D01*
X82873368Y-49413475D01*
X83047760Y-49530000D01*
X82873368Y-49646525D01*
X82666525Y-49853368D01*
X82504010Y-50096589D01*
X82392068Y-50366842D01*
X82335000Y-50653740D01*
X82335000Y-50946260D01*
X82392068Y-51233158D01*
X82504010Y-51503411D01*
X82666525Y-51746632D01*
X82873368Y-51953475D01*
X83047760Y-52070000D01*
X82873368Y-52186525D01*
X82666525Y-52393368D01*
X82504010Y-52636589D01*
X82392068Y-52906842D01*
X82335000Y-53193740D01*
X82335000Y-53486260D01*
X82392068Y-53773158D01*
X82504010Y-54043411D01*
X82666525Y-54286632D01*
X82873368Y-54493475D01*
X83047760Y-54610000D01*
X82873368Y-54726525D01*
X82666525Y-54933368D01*
X82504010Y-55176589D01*
X82392068Y-55446842D01*
X82335000Y-55733740D01*
X82335000Y-56026260D01*
X82392068Y-56313158D01*
X82504010Y-56583411D01*
X82666525Y-56826632D01*
X82873368Y-57033475D01*
X83047760Y-57150000D01*
X82873368Y-57266525D01*
X82666525Y-57473368D01*
X82504010Y-57716589D01*
X82392068Y-57986842D01*
X82335000Y-58273740D01*
X82335000Y-58566260D01*
X82392068Y-58853158D01*
X82504010Y-59123411D01*
X82666525Y-59366632D01*
X82873368Y-59573475D01*
X83116589Y-59735990D01*
X83386842Y-59847932D01*
X83673740Y-59905000D01*
X83966260Y-59905000D01*
X84253158Y-59847932D01*
X84523411Y-59735990D01*
X84766632Y-59573475D01*
X84973475Y-59366632D01*
X85135990Y-59123411D01*
X85247932Y-58853158D01*
X85305000Y-58566260D01*
X85305000Y-58273740D01*
X85247932Y-57986842D01*
X85135990Y-57716589D01*
X84973475Y-57473368D01*
X84766632Y-57266525D01*
X84592240Y-57150000D01*
X84766632Y-57033475D01*
X84973475Y-56826632D01*
X85135990Y-56583411D01*
X85247932Y-56313158D01*
X85305000Y-56026260D01*
X85305000Y-55733740D01*
X85247932Y-55446842D01*
X85135990Y-55176589D01*
X84973475Y-54933368D01*
X84766632Y-54726525D01*
X84592240Y-54610000D01*
X84766632Y-54493475D01*
X84973475Y-54286632D01*
X85135990Y-54043411D01*
X85247932Y-53773158D01*
X85305000Y-53486260D01*
X85305000Y-53193740D01*
X85247932Y-52906842D01*
X85135990Y-52636589D01*
X84973475Y-52393368D01*
X84766632Y-52186525D01*
X84592240Y-52070000D01*
X84766632Y-51953475D01*
X84973475Y-51746632D01*
X85135990Y-51503411D01*
X85247932Y-51233158D01*
X85305000Y-50946260D01*
X85305000Y-50653740D01*
X85247932Y-50366842D01*
X85135990Y-50096589D01*
X84973475Y-49853368D01*
X84766632Y-49646525D01*
X84592240Y-49530000D01*
X84766632Y-49413475D01*
X84973475Y-49206632D01*
X85135990Y-48963411D01*
X85247932Y-48693158D01*
X85305000Y-48406260D01*
X85305000Y-48113740D01*
X85247932Y-47826842D01*
X85135990Y-47556589D01*
X84973475Y-47313368D01*
X84766632Y-47106525D01*
X84592240Y-46990000D01*
X84766632Y-46873475D01*
X84973475Y-46666632D01*
X85135990Y-46423411D01*
X85247932Y-46153158D01*
X85305000Y-45866260D01*
X85305000Y-45573740D01*
X85247932Y-45286842D01*
X85135990Y-45016589D01*
X84973475Y-44773368D01*
X84766632Y-44566525D01*
X84592240Y-44450000D01*
X84766632Y-44333475D01*
X84973475Y-44126632D01*
X85135990Y-43883411D01*
X85247932Y-43613158D01*
X85305000Y-43326260D01*
X85305000Y-43033740D01*
X85247932Y-42746842D01*
X85135990Y-42476589D01*
X84973475Y-42233368D01*
X84766632Y-42026525D01*
X84592240Y-41910000D01*
X84766632Y-41793475D01*
X84973475Y-41586632D01*
X85135990Y-41343411D01*
X85247932Y-41073158D01*
X85305000Y-40786260D01*
X85305000Y-40765868D01*
X85525000Y-40985868D01*
X85525001Y-57806714D01*
X85442795Y-57929744D01*
X85364774Y-58118102D01*
X85325000Y-58318061D01*
X85325000Y-58521939D01*
X85364774Y-58721898D01*
X85442795Y-58910256D01*
X85556063Y-59079774D01*
X85700226Y-59223937D01*
X85869744Y-59337205D01*
X86058102Y-59415226D01*
X86258061Y-59455000D01*
X86461939Y-59455000D01*
X86628039Y-59421961D01*
X86595000Y-59588061D01*
X86595000Y-59791939D01*
X86634774Y-59991898D01*
X86712795Y-60180256D01*
X86826063Y-60349774D01*
X86970226Y-60493937D01*
X87139744Y-60607205D01*
X87328102Y-60685226D01*
X87528061Y-60725000D01*
X87731939Y-60725000D01*
X87931898Y-60685226D01*
X88065000Y-60630093D01*
X88065000Y-62886715D01*
X87982795Y-63009744D01*
X87904774Y-63198102D01*
X87865000Y-63398061D01*
X87865000Y-63601939D01*
X87904774Y-63801898D01*
X87982795Y-63990256D01*
X88096063Y-64159774D01*
X88240226Y-64303937D01*
X88409744Y-64417205D01*
X88598102Y-64495226D01*
X88798061Y-64535000D01*
X89001939Y-64535000D01*
X89201898Y-64495226D01*
X89390256Y-64417205D01*
X89559774Y-64303937D01*
X89703937Y-64159774D01*
X89817205Y-63990256D01*
X89895226Y-63801898D01*
X89935000Y-63601939D01*
X89935000Y-63398061D01*
X89895226Y-63198102D01*
X89817205Y-63009744D01*
X89735000Y-62886715D01*
X89735000Y-50475867D01*
X91470552Y-48740317D01*
X91504750Y-48754482D01*
X91859268Y-48825000D01*
X92220732Y-48825000D01*
X92575250Y-48754482D01*
X92909199Y-48616156D01*
X93209744Y-48415338D01*
X93465338Y-48159744D01*
X93666156Y-47859199D01*
X93804482Y-47525250D01*
X93875000Y-47170732D01*
X93875000Y-46809268D01*
X93845614Y-46661531D01*
X94455000Y-46661531D01*
X94455000Y-47318469D01*
X94583162Y-47962784D01*
X94834561Y-48569715D01*
X95199536Y-49115939D01*
X95664061Y-49580464D01*
X96210285Y-49945439D01*
X96817216Y-50196838D01*
X97461531Y-50325000D01*
X98118469Y-50325000D01*
X98762784Y-50196838D01*
X99369715Y-49945439D01*
X99915939Y-49580464D01*
X100380464Y-49115939D01*
X100745439Y-48569715D01*
X100996838Y-47962784D01*
X101125000Y-47318469D01*
X101125000Y-46661531D01*
X100996838Y-46017216D01*
X100745439Y-45410285D01*
X100380464Y-44864061D01*
X99915939Y-44399536D01*
X99369715Y-44034561D01*
X98762784Y-43783162D01*
X98118469Y-43655000D01*
X97461531Y-43655000D01*
X96817216Y-43783162D01*
X96210285Y-44034561D01*
X95664061Y-44399536D01*
X95199536Y-44864061D01*
X94834561Y-45410285D01*
X94583162Y-46017216D01*
X94455000Y-46661531D01*
X93845614Y-46661531D01*
X93804482Y-46454750D01*
X93666156Y-46120801D01*
X93465338Y-45820256D01*
X93209744Y-45564662D01*
X92909199Y-45363844D01*
X92575250Y-45225518D01*
X92220732Y-45155000D01*
X91859268Y-45155000D01*
X91504750Y-45225518D01*
X91170801Y-45363844D01*
X90870256Y-45564662D01*
X90614662Y-45820256D01*
X90413844Y-46120801D01*
X90275518Y-46454750D01*
X90205000Y-46809268D01*
X90205000Y-47170732D01*
X90275518Y-47525250D01*
X90289683Y-47559448D01*
X88465000Y-49384133D01*
X88465000Y-39411018D01*
X88469040Y-39370000D01*
X88452918Y-39206312D01*
X88405172Y-39048913D01*
X88327636Y-38903854D01*
X88249439Y-38808570D01*
X88249437Y-38808568D01*
X88223291Y-38776709D01*
X88191433Y-38750564D01*
X85308072Y-35867205D01*
X85308072Y-34710000D01*
X85295812Y-34585518D01*
X85259502Y-34465820D01*
X85200537Y-34355506D01*
X85121185Y-34258815D01*
X85024494Y-34179463D01*
X84914180Y-34120498D01*
X84794482Y-34084188D01*
X84670000Y-34071928D01*
X82970000Y-34071928D01*
X82845518Y-34084188D01*
X82725820Y-34120498D01*
X82615506Y-34179463D01*
X82518815Y-34258815D01*
X82439463Y-34355506D01*
X82380498Y-34465820D01*
X82344188Y-34585518D01*
X82331928Y-34710000D01*
X81940000Y-34710000D01*
X81940000Y-32606504D01*
X81951509Y-32618013D01*
X82268434Y-32829775D01*
X82620581Y-32975639D01*
X82994419Y-33050000D01*
X83375581Y-33050000D01*
X83749419Y-32975639D01*
X84101566Y-32829775D01*
X84418491Y-32618013D01*
X84688013Y-32348491D01*
X84899775Y-32031566D01*
X85045639Y-31679419D01*
X85051876Y-31648061D01*
X89135000Y-31648061D01*
X89135000Y-31851939D01*
X89174774Y-32051898D01*
X89252795Y-32240256D01*
X89335000Y-32363285D01*
X89335001Y-40578971D01*
X89330960Y-40620000D01*
X89347082Y-40783688D01*
X89394828Y-40941086D01*
X89472364Y-41086145D01*
X89472365Y-41086146D01*
X89576710Y-41213291D01*
X89608574Y-41239441D01*
X90289684Y-41920551D01*
X90275518Y-41954750D01*
X90205000Y-42309268D01*
X90205000Y-42670732D01*
X90275518Y-43025250D01*
X90413844Y-43359199D01*
X90614662Y-43659744D01*
X90870256Y-43915338D01*
X91170801Y-44116156D01*
X91504750Y-44254482D01*
X91859268Y-44325000D01*
X92220732Y-44325000D01*
X92575250Y-44254482D01*
X92909199Y-44116156D01*
X93209744Y-43915338D01*
X93465338Y-43659744D01*
X93666156Y-43359199D01*
X93804482Y-43025250D01*
X93875000Y-42670732D01*
X93875000Y-42309268D01*
X93804482Y-41954750D01*
X93666156Y-41620801D01*
X93465338Y-41320256D01*
X93209744Y-41064662D01*
X92909199Y-40863844D01*
X92575250Y-40725518D01*
X92220732Y-40655000D01*
X91859268Y-40655000D01*
X91504750Y-40725518D01*
X91470551Y-40739684D01*
X91005000Y-40274133D01*
X91005000Y-38809268D01*
X91955000Y-38809268D01*
X91955000Y-39170732D01*
X92025518Y-39525250D01*
X92163844Y-39859199D01*
X92364662Y-40159744D01*
X92620256Y-40415338D01*
X92920801Y-40616156D01*
X93254750Y-40754482D01*
X93609268Y-40825000D01*
X93970732Y-40825000D01*
X94325250Y-40754482D01*
X94659199Y-40616156D01*
X94959744Y-40415338D01*
X95215338Y-40159744D01*
X95416156Y-39859199D01*
X95554482Y-39525250D01*
X95625000Y-39170732D01*
X95625000Y-38809268D01*
X95554482Y-38454750D01*
X95416156Y-38120801D01*
X95215338Y-37820256D01*
X95204350Y-37809268D01*
X95955000Y-37809268D01*
X95955000Y-38170732D01*
X96025518Y-38525250D01*
X96163844Y-38859199D01*
X96364662Y-39159744D01*
X96620256Y-39415338D01*
X96920801Y-39616156D01*
X97254750Y-39754482D01*
X97609268Y-39825000D01*
X97970732Y-39825000D01*
X98325250Y-39754482D01*
X98659199Y-39616156D01*
X98959744Y-39415338D01*
X99215338Y-39159744D01*
X99416156Y-38859199D01*
X99436838Y-38809268D01*
X99955000Y-38809268D01*
X99955000Y-39170732D01*
X100025518Y-39525250D01*
X100163844Y-39859199D01*
X100364662Y-40159744D01*
X100620256Y-40415338D01*
X100920801Y-40616156D01*
X101254750Y-40754482D01*
X101609268Y-40825000D01*
X101970732Y-40825000D01*
X102325250Y-40754482D01*
X102659199Y-40616156D01*
X102959744Y-40415338D01*
X103215338Y-40159744D01*
X103416156Y-39859199D01*
X103554482Y-39525250D01*
X103625000Y-39170732D01*
X103625000Y-38809268D01*
X103554482Y-38454750D01*
X103537256Y-38413164D01*
X103567636Y-38376146D01*
X103645172Y-38231087D01*
X103678627Y-38120801D01*
X103692918Y-38073689D01*
X103705000Y-37951019D01*
X103705000Y-37951018D01*
X103709040Y-37910000D01*
X103705000Y-37868982D01*
X103705000Y-33633285D01*
X103787205Y-33510256D01*
X103865226Y-33321898D01*
X103905000Y-33121939D01*
X103905000Y-32918061D01*
X103865226Y-32718102D01*
X103787205Y-32529744D01*
X103673937Y-32360226D01*
X103529774Y-32216063D01*
X103360256Y-32102795D01*
X103171898Y-32024774D01*
X102971939Y-31985000D01*
X102768061Y-31985000D01*
X102568102Y-32024774D01*
X102379744Y-32102795D01*
X102210226Y-32216063D01*
X102066063Y-32360226D01*
X101952795Y-32529744D01*
X101874774Y-32718102D01*
X101835000Y-32918061D01*
X101835000Y-33121939D01*
X101874774Y-33321898D01*
X101952795Y-33510256D01*
X102035000Y-33633285D01*
X102035001Y-37167784D01*
X101970732Y-37155000D01*
X101609268Y-37155000D01*
X101254750Y-37225518D01*
X100920801Y-37363844D01*
X100620256Y-37564662D01*
X100364662Y-37820256D01*
X100163844Y-38120801D01*
X100025518Y-38454750D01*
X99955000Y-38809268D01*
X99436838Y-38809268D01*
X99554482Y-38525250D01*
X99625000Y-38170732D01*
X99625000Y-37809268D01*
X99554482Y-37454750D01*
X99416156Y-37120801D01*
X99215338Y-36820256D01*
X98959744Y-36564662D01*
X98659199Y-36363844D01*
X98625000Y-36349678D01*
X98625000Y-36173285D01*
X98707205Y-36050256D01*
X98785226Y-35861898D01*
X98825000Y-35661939D01*
X98825000Y-35458061D01*
X98785226Y-35258102D01*
X98707205Y-35069744D01*
X98593937Y-34900226D01*
X98449774Y-34756063D01*
X98280256Y-34642795D01*
X98091898Y-34564774D01*
X97891939Y-34525000D01*
X97688061Y-34525000D01*
X97488102Y-34564774D01*
X97299744Y-34642795D01*
X97130226Y-34756063D01*
X96986063Y-34900226D01*
X96872795Y-35069744D01*
X96794774Y-35258102D01*
X96755000Y-35458061D01*
X96755000Y-35661939D01*
X96794774Y-35861898D01*
X96872795Y-36050256D01*
X96955000Y-36173285D01*
X96955000Y-36349678D01*
X96920801Y-36363844D01*
X96620256Y-36564662D01*
X96364662Y-36820256D01*
X96163844Y-37120801D01*
X96025518Y-37454750D01*
X95955000Y-37809268D01*
X95204350Y-37809268D01*
X94959744Y-37564662D01*
X94815000Y-37467947D01*
X94815000Y-34903285D01*
X94897205Y-34780256D01*
X94975226Y-34591898D01*
X95015000Y-34391939D01*
X95015000Y-34188061D01*
X94975226Y-33988102D01*
X94897205Y-33799744D01*
X94783937Y-33630226D01*
X94639774Y-33486063D01*
X94470256Y-33372795D01*
X94281898Y-33294774D01*
X94081939Y-33255000D01*
X93878061Y-33255000D01*
X93678102Y-33294774D01*
X93489744Y-33372795D01*
X93320226Y-33486063D01*
X93176063Y-33630226D01*
X93062795Y-33799744D01*
X92984774Y-33988102D01*
X92945000Y-34188061D01*
X92945000Y-34391939D01*
X92984774Y-34591898D01*
X93062795Y-34780256D01*
X93145000Y-34903285D01*
X93145001Y-37270978D01*
X92920801Y-37363844D01*
X92620256Y-37564662D01*
X92364662Y-37820256D01*
X92163844Y-38120801D01*
X92025518Y-38454750D01*
X91955000Y-38809268D01*
X91005000Y-38809268D01*
X91005000Y-32363285D01*
X91087205Y-32240256D01*
X91165226Y-32051898D01*
X91205000Y-31851939D01*
X91205000Y-31648061D01*
X91165226Y-31448102D01*
X91087205Y-31259744D01*
X90973937Y-31090226D01*
X90829774Y-30946063D01*
X90660256Y-30832795D01*
X90471898Y-30754774D01*
X90271939Y-30715000D01*
X90068061Y-30715000D01*
X89868102Y-30754774D01*
X89679744Y-30832795D01*
X89510226Y-30946063D01*
X89366063Y-31090226D01*
X89252795Y-31259744D01*
X89174774Y-31448102D01*
X89135000Y-31648061D01*
X85051876Y-31648061D01*
X85120000Y-31305581D01*
X85120000Y-30924419D01*
X85045639Y-30550581D01*
X84899775Y-30198434D01*
X84688013Y-29881509D01*
X84676504Y-29870000D01*
X105842805Y-29870000D01*
X105762795Y-29989744D01*
G37*
X105762795Y-29989744D02*
X105684774Y-30178102D01*
X105645000Y-30378061D01*
X105645000Y-30581939D01*
X105684774Y-30781898D01*
X105762795Y-30970256D01*
X105845000Y-31093285D01*
X105845001Y-39004130D01*
X104109449Y-40739684D01*
X104075250Y-40725518D01*
X103720732Y-40655000D01*
X103359268Y-40655000D01*
X103004750Y-40725518D01*
X102670801Y-40863844D01*
X102370256Y-41064662D01*
X102114662Y-41320256D01*
X101913844Y-41620801D01*
X101775518Y-41954750D01*
X101705000Y-42309268D01*
X101705000Y-42670732D01*
X101775518Y-43025250D01*
X101913844Y-43359199D01*
X102114662Y-43659744D01*
X102370256Y-43915338D01*
X102670801Y-44116156D01*
X103004750Y-44254482D01*
X103359268Y-44325000D01*
X103720732Y-44325000D01*
X104075250Y-44254482D01*
X104409199Y-44116156D01*
X104709744Y-43915338D01*
X104965338Y-43659744D01*
X105166156Y-43359199D01*
X105304482Y-43025250D01*
X105375000Y-42670732D01*
X105375000Y-42309268D01*
X105304482Y-41954750D01*
X105290316Y-41920551D01*
X107241432Y-39969437D01*
X107273291Y-39943291D01*
X107342304Y-39859199D01*
X107377636Y-39816146D01*
X107455172Y-39671087D01*
X107481286Y-39585000D01*
X107502918Y-39513689D01*
X107515000Y-39391019D01*
X107515000Y-39391018D01*
X107519040Y-39350000D01*
X107515000Y-39308982D01*
X107515000Y-31093285D01*
X107597205Y-30970256D01*
X107675226Y-30781898D01*
X107715000Y-30581939D01*
X107715000Y-30378061D01*
X107675226Y-30178102D01*
X107597205Y-29989744D01*
X107517195Y-29870000D01*
X143923496Y-29870000D01*
X143911987Y-29881509D01*
X143700225Y-30198434D01*
X143554361Y-30550581D01*
X143480000Y-30924419D01*
X143480000Y-31305581D01*
X143554361Y-31679419D01*
X143698663Y-32027796D01*
X143029445Y-31358578D01*
X143003290Y-31326708D01*
X142876145Y-31222363D01*
X142731086Y-31144827D01*
X142573688Y-31097081D01*
X142451018Y-31084999D01*
X142451017Y-31084999D01*
X142409999Y-31080959D01*
X142368981Y-31084999D01*
X134491019Y-31084999D01*
X134450001Y-31080959D01*
X134408983Y-31084999D01*
X134408982Y-31084999D01*
X134286312Y-31097081D01*
X134145572Y-31139774D01*
X134128914Y-31144827D01*
X133983855Y-31222363D01*
X133908827Y-31283937D01*
X133856710Y-31326708D01*
X133830564Y-31358567D01*
X130653225Y-34535907D01*
X130508102Y-34564774D01*
X130319744Y-34642795D01*
X130150226Y-34756063D01*
X130006063Y-34900226D01*
X129892795Y-35069744D01*
X129814774Y-35258102D01*
X129775000Y-35458061D01*
X129775000Y-35661939D01*
X129814774Y-35861898D01*
X129892795Y-36050256D01*
X129975001Y-36173286D01*
X129975001Y-36349678D01*
X129940801Y-36363844D01*
X129640256Y-36564662D01*
X129384662Y-36820256D01*
X129183844Y-37120801D01*
X129045518Y-37454750D01*
X128975000Y-37809268D01*
X128975000Y-38170732D01*
X129045518Y-38525250D01*
X129183844Y-38859199D01*
X129384662Y-39159744D01*
X129640256Y-39415338D01*
X129940801Y-39616156D01*
X130274750Y-39754482D01*
X130629268Y-39825000D01*
X130990732Y-39825000D01*
X131345250Y-39754482D01*
X131679199Y-39616156D01*
X131979744Y-39415338D01*
X132235338Y-39159744D01*
X132436156Y-38859199D01*
X132574482Y-38525250D01*
X132645000Y-38170732D01*
X132645000Y-37809268D01*
X132574482Y-37454750D01*
X132436156Y-37120801D01*
X132235338Y-36820256D01*
X131979744Y-36564662D01*
X131679199Y-36363844D01*
X131645000Y-36349678D01*
X131645000Y-36173285D01*
X131727205Y-36050256D01*
X131805226Y-35861898D01*
X131834093Y-35716775D01*
X134795870Y-32754999D01*
X134887435Y-32754999D01*
X134865908Y-32863224D01*
X134248574Y-33480559D01*
X134216710Y-33506709D01*
X134190562Y-33538571D01*
X134112364Y-33633855D01*
X134034828Y-33778914D01*
X133987082Y-33936312D01*
X133970960Y-34100000D01*
X133975001Y-34141028D01*
X133975000Y-37349678D01*
X133940801Y-37363844D01*
X133640256Y-37564662D01*
X133384662Y-37820256D01*
X133183844Y-38120801D01*
X133045518Y-38454750D01*
X132975000Y-38809268D01*
X132975000Y-39170732D01*
X133045518Y-39525250D01*
X133183844Y-39859199D01*
X133384662Y-40159744D01*
X133640256Y-40415338D01*
X133940801Y-40616156D01*
X134274750Y-40754482D01*
X134629268Y-40825000D01*
X134990732Y-40825000D01*
X135345250Y-40754482D01*
X135679199Y-40616156D01*
X135979744Y-40415338D01*
X136235338Y-40159744D01*
X136436156Y-39859199D01*
X136574482Y-39525250D01*
X136645000Y-39170732D01*
X136645000Y-38809268D01*
X136574482Y-38454750D01*
X136436156Y-38120801D01*
X136235338Y-37820256D01*
X135979744Y-37564662D01*
X135679199Y-37363844D01*
X135645000Y-37349678D01*
X135645000Y-34445867D01*
X136046776Y-34044092D01*
X136191898Y-34015226D01*
X136380256Y-33937205D01*
X136549774Y-33823937D01*
X136693937Y-33679774D01*
X136807205Y-33510256D01*
X136885226Y-33321898D01*
X136925000Y-33121939D01*
X136925000Y-32918061D01*
X136892565Y-32754999D01*
X142064132Y-32754999D01*
X143527771Y-34218638D01*
X143478815Y-34258815D01*
X143399463Y-34355506D01*
X143340498Y-34465820D01*
X143304188Y-34585518D01*
X143291928Y-34710000D01*
X143291928Y-36113201D01*
X140535000Y-38870131D01*
X140535000Y-36173285D01*
X140617205Y-36050256D01*
X140695226Y-35861898D01*
X140735000Y-35661939D01*
X140735000Y-35458061D01*
X140695226Y-35258102D01*
X140617205Y-35069744D01*
X140503937Y-34900226D01*
X140359774Y-34756063D01*
X140190256Y-34642795D01*
X140001898Y-34564774D01*
X139801939Y-34525000D01*
X139598061Y-34525000D01*
X139398102Y-34564774D01*
X139209744Y-34642795D01*
X139040226Y-34756063D01*
X138896063Y-34900226D01*
X138782795Y-35069744D01*
X138704774Y-35258102D01*
X138665000Y-35458061D01*
X138665000Y-35661939D01*
X138704774Y-35861898D01*
X138782795Y-36050256D01*
X138865000Y-36173285D01*
X138865001Y-39004130D01*
X137129449Y-40739684D01*
X137095250Y-40725518D01*
X136740732Y-40655000D01*
X136379268Y-40655000D01*
X136024750Y-40725518D01*
X135690801Y-40863844D01*
X135390256Y-41064662D01*
X135134662Y-41320256D01*
X134933844Y-41620801D01*
X134795518Y-41954750D01*
X134725000Y-42309268D01*
X134725000Y-42670732D01*
X134795518Y-43025250D01*
X134933844Y-43359199D01*
X135134662Y-43659744D01*
X135390256Y-43915338D01*
X135690801Y-44116156D01*
X136024750Y-44254482D01*
X136379268Y-44325000D01*
X136740732Y-44325000D01*
X137095250Y-44254482D01*
X137429199Y-44116156D01*
X137729744Y-43915338D01*
X137985338Y-43659744D01*
X138186156Y-43359199D01*
X138324482Y-43025250D01*
X138395000Y-42670732D01*
X138395000Y-42309268D01*
X138324482Y-41954750D01*
X138310316Y-41920551D01*
X138762763Y-41468105D01*
X138704774Y-41608102D01*
X138665000Y-41808061D01*
X138665000Y-42011939D01*
X138704774Y-42211898D01*
X138782795Y-42400256D01*
X138865001Y-42523286D01*
X138865000Y-43504131D01*
X137129449Y-45239684D01*
X137095250Y-45225518D01*
X136740732Y-45155000D01*
X136379268Y-45155000D01*
X136024750Y-45225518D01*
X135690801Y-45363844D01*
X135390256Y-45564662D01*
X135134662Y-45820256D01*
X134933844Y-46120801D01*
X134795518Y-46454750D01*
X134725000Y-46809268D01*
X134725000Y-47170732D01*
X134795518Y-47525250D01*
X134933844Y-47859199D01*
X135134662Y-48159744D01*
X135390256Y-48415338D01*
X135690801Y-48616156D01*
X136024750Y-48754482D01*
X136379268Y-48825000D01*
X136740732Y-48825000D01*
X137095250Y-48754482D01*
X137129449Y-48740316D01*
X138865001Y-50475870D01*
X138865000Y-57806715D01*
X138782795Y-57929744D01*
X138704774Y-58118102D01*
X138665000Y-58318061D01*
X138665000Y-58521939D01*
X138704774Y-58721898D01*
X138782795Y-58910256D01*
X138896063Y-59079774D01*
X139040226Y-59223937D01*
X139209744Y-59337205D01*
X139398102Y-59415226D01*
X139598061Y-59455000D01*
X139801939Y-59455000D01*
X140001898Y-59415226D01*
X140190256Y-59337205D01*
X140359774Y-59223937D01*
X140365002Y-59218709D01*
X140365001Y-63204090D01*
X140293291Y-63116711D01*
X140261428Y-63090562D01*
X137726875Y-60556010D01*
X137819774Y-60493937D01*
X137963937Y-60349774D01*
X138077205Y-60180256D01*
X138155226Y-59991898D01*
X138195000Y-59791939D01*
X138195000Y-59588061D01*
X138155226Y-59388102D01*
X138077205Y-59199744D01*
X137995000Y-59076715D01*
X137995000Y-52645284D01*
X138186156Y-52359199D01*
X138324482Y-52025250D01*
X138395000Y-51670732D01*
X138395000Y-51309268D01*
X138324482Y-50954750D01*
X138186156Y-50620801D01*
X137985338Y-50320256D01*
X137729744Y-50064662D01*
X137429199Y-49863844D01*
X137095250Y-49725518D01*
X136740732Y-49655000D01*
X136379268Y-49655000D01*
X136024750Y-49725518D01*
X135690801Y-49863844D01*
X135390256Y-50064662D01*
X135134662Y-50320256D01*
X134933844Y-50620801D01*
X134795518Y-50954750D01*
X134725000Y-51309268D01*
X134725000Y-51670732D01*
X134795518Y-52025250D01*
X134933844Y-52359199D01*
X135134662Y-52659744D01*
X135390256Y-52915338D01*
X135690801Y-53116156D01*
X136024750Y-53254482D01*
X136325000Y-53314205D01*
X136325000Y-53954445D01*
X136235338Y-53820256D01*
X135979744Y-53564662D01*
X135679199Y-53363844D01*
X135345250Y-53225518D01*
X134990732Y-53155000D01*
X134629268Y-53155000D01*
X134274750Y-53225518D01*
X133940801Y-53363844D01*
X133640256Y-53564662D01*
X133601068Y-53603850D01*
X133529438Y-53516569D01*
X133529436Y-53516567D01*
X133503290Y-53484708D01*
X133471432Y-53458563D01*
X130302196Y-50289328D01*
X130481531Y-50325000D01*
X131138469Y-50325000D01*
X131782784Y-50196838D01*
X132389715Y-49945439D01*
X132935939Y-49580464D01*
X133400464Y-49115939D01*
X133765439Y-48569715D01*
X134016838Y-47962784D01*
X134145000Y-47318469D01*
X134145000Y-46661531D01*
X134016838Y-46017216D01*
X133765439Y-45410285D01*
X133400464Y-44864061D01*
X132935939Y-44399536D01*
X132389715Y-44034561D01*
X131782784Y-43783162D01*
X131138469Y-43655000D01*
X130481531Y-43655000D01*
X129837216Y-43783162D01*
X129230285Y-44034561D01*
X128684061Y-44399536D01*
X128248550Y-44835047D01*
X128244999Y-44798990D01*
X128244999Y-44798980D01*
X128232917Y-44676310D01*
X128185171Y-44518912D01*
X128107635Y-44373853D01*
X128003290Y-44246708D01*
X127971427Y-44220559D01*
X126810316Y-43059449D01*
X126824482Y-43025250D01*
X126895000Y-42670732D01*
X126895000Y-42309268D01*
X126824482Y-41954750D01*
X126686156Y-41620801D01*
X126485338Y-41320256D01*
X126229744Y-41064662D01*
X125929199Y-40863844D01*
X125595250Y-40725518D01*
X125240732Y-40655000D01*
X124879268Y-40655000D01*
X124524750Y-40725518D01*
X124490551Y-40739684D01*
X124025000Y-40274133D01*
X124025000Y-38809268D01*
X124975000Y-38809268D01*
X124975000Y-39170732D01*
X125045518Y-39525250D01*
X125183844Y-39859199D01*
X125384662Y-40159744D01*
X125640256Y-40415338D01*
X125940801Y-40616156D01*
X126274750Y-40754482D01*
X126629268Y-40825000D01*
X126990732Y-40825000D01*
X127345250Y-40754482D01*
X127679199Y-40616156D01*
X127979744Y-40415338D01*
X128235338Y-40159744D01*
X128436156Y-39859199D01*
X128574482Y-39525250D01*
X128645000Y-39170732D01*
X128645000Y-38809268D01*
X128574482Y-38454750D01*
X128436156Y-38120801D01*
X128235338Y-37820256D01*
X127979744Y-37564662D01*
X127835000Y-37467947D01*
X127835000Y-34903285D01*
X127917205Y-34780256D01*
X127995226Y-34591898D01*
X128035000Y-34391939D01*
X128035000Y-34188061D01*
X127995226Y-33988102D01*
X127917205Y-33799744D01*
X127803937Y-33630226D01*
X127659774Y-33486063D01*
X127490256Y-33372795D01*
X127301898Y-33294774D01*
X127101939Y-33255000D01*
X126898061Y-33255000D01*
X126698102Y-33294774D01*
X126509744Y-33372795D01*
X126340226Y-33486063D01*
X126196063Y-33630226D01*
X126082795Y-33799744D01*
X126004774Y-33988102D01*
X125965000Y-34188061D01*
X125965000Y-34391939D01*
X126004774Y-34591898D01*
X126082795Y-34780256D01*
X126165000Y-34903285D01*
X126165001Y-37270978D01*
X125940801Y-37363844D01*
X125640256Y-37564662D01*
X125384662Y-37820256D01*
X125183844Y-38120801D01*
X125045518Y-38454750D01*
X124975000Y-38809268D01*
X124025000Y-38809268D01*
X124025000Y-32363285D01*
X124107205Y-32240256D01*
X124185226Y-32051898D01*
X124225000Y-31851939D01*
X124225000Y-31648061D01*
X124185226Y-31448102D01*
X124107205Y-31259744D01*
X123993937Y-31090226D01*
X123849774Y-30946063D01*
X123680256Y-30832795D01*
X123491898Y-30754774D01*
X123291939Y-30715000D01*
X123088061Y-30715000D01*
X122888102Y-30754774D01*
X122699744Y-30832795D01*
X122530226Y-30946063D01*
X122386063Y-31090226D01*
X122272795Y-31259744D01*
X122194774Y-31448102D01*
X122155000Y-31648061D01*
X122155000Y-31851939D01*
X122194774Y-32051898D01*
X122272795Y-32240256D01*
X122355000Y-32363285D01*
X122355001Y-40578971D01*
X122350960Y-40620000D01*
X122367082Y-40783688D01*
X122414828Y-40941086D01*
X122492364Y-41086145D01*
X122492365Y-41086146D01*
X122596710Y-41213291D01*
X122628574Y-41239441D01*
X123309684Y-41920551D01*
X123295518Y-41954750D01*
X123225000Y-42309268D01*
X123225000Y-42670732D01*
X123295518Y-43025250D01*
X123433844Y-43359199D01*
X123634662Y-43659744D01*
X123890256Y-43915338D01*
X124190801Y-44116156D01*
X124524750Y-44254482D01*
X124879268Y-44325000D01*
X125240732Y-44325000D01*
X125595250Y-44254482D01*
X125629449Y-44240316D01*
X126574999Y-45185867D01*
X126574999Y-45954443D01*
X126485338Y-45820256D01*
X126229744Y-45564662D01*
X125929199Y-45363844D01*
X125595250Y-45225518D01*
X125240732Y-45155000D01*
X124879268Y-45155000D01*
X124524750Y-45225518D01*
X124190801Y-45363844D01*
X123890256Y-45564662D01*
X123634662Y-45820256D01*
X123433844Y-46120801D01*
X123295518Y-46454750D01*
X123225000Y-46809268D01*
X123225000Y-47170732D01*
X123295518Y-47525250D01*
X123309683Y-47559448D01*
X121485000Y-49384133D01*
X121485000Y-41253285D01*
X121567205Y-41130256D01*
X121645226Y-40941898D01*
X121685000Y-40741939D01*
X121685000Y-40538061D01*
X121645226Y-40338102D01*
X121567205Y-40149744D01*
X121453937Y-39980226D01*
X121309774Y-39836063D01*
X121140256Y-39722795D01*
X120951898Y-39644774D01*
X120751939Y-39605000D01*
X120548061Y-39605000D01*
X120348102Y-39644774D01*
X120159744Y-39722795D01*
X119990226Y-39836063D01*
X119846063Y-39980226D01*
X119732795Y-40149744D01*
X119654774Y-40338102D01*
X119615000Y-40538061D01*
X119615000Y-40741939D01*
X119654774Y-40941898D01*
X119732795Y-41130256D01*
X119815001Y-41253286D01*
X119815000Y-60346715D01*
X119732795Y-60469744D01*
X119654774Y-60658102D01*
X119615000Y-60858061D01*
X119615000Y-61061939D01*
X119654774Y-61261898D01*
X119732795Y-61450256D01*
X119846063Y-61619774D01*
X119990226Y-61763937D01*
X120159744Y-61877205D01*
X120348102Y-61955226D01*
X120548061Y-61995000D01*
X120751939Y-61995000D01*
X120951898Y-61955226D01*
X121085000Y-61900093D01*
X121085000Y-62886715D01*
X121002795Y-63009744D01*
X120924774Y-63198102D01*
X120885000Y-63398061D01*
X120885000Y-63601939D01*
X120924774Y-63801898D01*
X121002795Y-63990256D01*
X121116063Y-64159774D01*
X121260226Y-64303937D01*
X121429744Y-64417205D01*
X121618102Y-64495226D01*
X121818061Y-64535000D01*
X122021939Y-64535000D01*
X122221898Y-64495226D01*
X122410256Y-64417205D01*
X122579774Y-64303937D01*
X122723937Y-64159774D01*
X122837205Y-63990256D01*
X122915226Y-63801898D01*
X122955000Y-63601939D01*
X122955000Y-63398061D01*
X122915226Y-63198102D01*
X122837205Y-63009744D01*
X122755000Y-62886715D01*
X122755000Y-51309268D01*
X123225000Y-51309268D01*
X123225000Y-51670732D01*
X123295518Y-52025250D01*
X123433844Y-52359199D01*
X123625001Y-52645285D01*
X123625000Y-61616715D01*
X123542795Y-61739744D01*
X123464774Y-61928102D01*
X123425000Y-62128061D01*
X123425000Y-62331939D01*
X123464774Y-62531898D01*
X123542795Y-62720256D01*
X123656063Y-62889774D01*
X123800226Y-63033937D01*
X123969744Y-63147205D01*
X124158102Y-63225226D01*
X124358061Y-63265000D01*
X124561939Y-63265000D01*
X124761898Y-63225226D01*
X124950256Y-63147205D01*
X125119774Y-63033937D01*
X125263937Y-62889774D01*
X125377205Y-62720256D01*
X125455226Y-62531898D01*
X125495000Y-62331939D01*
X125495000Y-62128061D01*
X125455226Y-61928102D01*
X125377205Y-61739744D01*
X125295000Y-61616715D01*
X125295000Y-56025556D01*
X125384662Y-56159744D01*
X125640256Y-56415338D01*
X125940801Y-56616156D01*
X126165001Y-56709022D01*
X126165000Y-60346715D01*
X126082795Y-60469744D01*
X126004774Y-60658102D01*
X125965000Y-60858061D01*
X125965000Y-61061939D01*
X126004774Y-61261898D01*
X126082795Y-61450256D01*
X126196063Y-61619774D01*
X126340226Y-61763937D01*
X126509744Y-61877205D01*
X126698102Y-61955226D01*
X126898061Y-61995000D01*
X127101939Y-61995000D01*
X127301898Y-61955226D01*
X127490256Y-61877205D01*
X127659774Y-61763937D01*
X127803937Y-61619774D01*
X127917205Y-61450256D01*
X127995226Y-61261898D01*
X128035000Y-61061939D01*
X128035000Y-60858061D01*
X127995226Y-60658102D01*
X127917205Y-60469744D01*
X127835000Y-60346715D01*
X127835000Y-56512053D01*
X127979744Y-56415338D01*
X128235338Y-56159744D01*
X128436156Y-55859199D01*
X128574482Y-55525250D01*
X128645000Y-55170732D01*
X128645000Y-54809268D01*
X128574482Y-54454750D01*
X128436156Y-54120801D01*
X128235338Y-53820256D01*
X127979744Y-53564662D01*
X127679199Y-53363844D01*
X127345250Y-53225518D01*
X126990732Y-53155000D01*
X126629268Y-53155000D01*
X126274750Y-53225518D01*
X125940801Y-53363844D01*
X125640256Y-53564662D01*
X125384662Y-53820256D01*
X125295000Y-53954444D01*
X125295000Y-53314205D01*
X125595250Y-53254482D01*
X125929199Y-53116156D01*
X126229744Y-52915338D01*
X126485338Y-52659744D01*
X126686156Y-52359199D01*
X126824482Y-52025250D01*
X126895000Y-51670732D01*
X126895000Y-51309268D01*
X126824482Y-50954750D01*
X126686156Y-50620801D01*
X126485338Y-50320256D01*
X126229744Y-50064662D01*
X125929199Y-49863844D01*
X125595250Y-49725518D01*
X125240732Y-49655000D01*
X124879268Y-49655000D01*
X124524750Y-49725518D01*
X124190801Y-49863844D01*
X123890256Y-50064662D01*
X123634662Y-50320256D01*
X123433844Y-50620801D01*
X123295518Y-50954750D01*
X123225000Y-51309268D01*
X122755000Y-51309268D01*
X122755000Y-50475867D01*
X124490552Y-48740317D01*
X124524750Y-48754482D01*
X124879268Y-48825000D01*
X125240732Y-48825000D01*
X125595250Y-48754482D01*
X125929199Y-48616156D01*
X126229744Y-48415338D01*
X126485338Y-48159744D01*
X126575000Y-48025556D01*
X126575000Y-48536971D01*
X126570959Y-48577999D01*
X126587081Y-48741687D01*
X126634827Y-48899085D01*
X126712363Y-49044144D01*
X126712364Y-49044145D01*
X126816709Y-49171290D01*
X126848573Y-49197440D01*
X132074999Y-54423868D01*
X132074999Y-54549917D01*
X131979744Y-54454662D01*
X131679199Y-54253844D01*
X131345250Y-54115518D01*
X130990732Y-54045000D01*
X130629268Y-54045000D01*
X130274750Y-54115518D01*
X129940801Y-54253844D01*
X129640256Y-54454662D01*
X129384662Y-54710256D01*
X129183844Y-55010801D01*
X129045518Y-55344750D01*
X128975000Y-55699268D01*
X128975000Y-56060732D01*
X129045518Y-56415250D01*
X129183844Y-56749199D01*
X129384662Y-57049744D01*
X129640256Y-57305338D01*
X129940801Y-57506156D01*
X130274750Y-57644482D01*
X130629268Y-57715000D01*
X130990732Y-57715000D01*
X131345250Y-57644482D01*
X131679199Y-57506156D01*
X131979744Y-57305338D01*
X132074999Y-57210083D01*
X132075000Y-61428973D01*
X132070959Y-61470001D01*
X132087081Y-61633689D01*
X132134827Y-61791087D01*
X132212363Y-61936146D01*
X132212364Y-61936147D01*
X132316709Y-62063292D01*
X132348573Y-62089442D01*
X138360558Y-68101428D01*
X138386708Y-68133292D01*
X138513853Y-68237637D01*
X138658912Y-68315173D01*
X138816310Y-68362919D01*
X138938980Y-68375001D01*
X138938990Y-68375001D01*
X138979998Y-68379040D01*
X139021006Y-68375001D01*
X140378983Y-68375001D01*
X140420001Y-68379041D01*
X140461019Y-68375001D01*
X140461020Y-68375001D01*
X140583690Y-68362919D01*
X140741088Y-68315173D01*
X140886147Y-68237637D01*
X141013292Y-68133292D01*
X141039446Y-68101423D01*
X141761434Y-67379437D01*
X141793292Y-67353292D01*
X141830200Y-67308320D01*
X141856468Y-67276312D01*
X141897637Y-67226147D01*
X141975173Y-67081088D01*
X142022919Y-66923690D01*
X142035001Y-66801020D01*
X142035001Y-66801019D01*
X142039041Y-66760001D01*
X142035001Y-66718983D01*
X142035001Y-62650000D01*
X143291928Y-62650000D01*
X143291928Y-64350000D01*
X143304188Y-64474482D01*
X143340498Y-64594180D01*
X143399463Y-64704494D01*
X143478815Y-64801185D01*
X143575506Y-64880537D01*
X143685820Y-64939502D01*
X143758380Y-64961513D01*
X143626525Y-65093368D01*
X143464010Y-65336589D01*
X143352068Y-65606842D01*
X143295000Y-65893740D01*
X143295000Y-66186260D01*
X143352068Y-66473158D01*
X143464010Y-66743411D01*
X143626525Y-66986632D01*
X143833368Y-67193475D01*
X144015534Y-67315195D01*
X143898645Y-67384822D01*
X143682412Y-67579731D01*
X143508359Y-67813080D01*
X143383175Y-68075901D01*
X143338524Y-68223110D01*
X143459845Y-68453000D01*
X144653000Y-68453000D01*
X144653000Y-68433000D01*
X144907000Y-68433000D01*
X144907000Y-68453000D01*
X146100155Y-68453000D01*
X146221476Y-68223110D01*
X146176825Y-68075901D01*
X146051641Y-67813080D01*
X145877588Y-67579731D01*
X145661355Y-67384822D01*
X145544466Y-67315195D01*
X145726632Y-67193475D01*
X145933475Y-66986632D01*
X146095990Y-66743411D01*
X146207932Y-66473158D01*
X146265000Y-66186260D01*
X146265000Y-65893740D01*
X146207932Y-65606842D01*
X146095990Y-65336589D01*
X145933475Y-65093368D01*
X145801620Y-64961513D01*
X145874180Y-64939502D01*
X145984494Y-64880537D01*
X146081185Y-64801185D01*
X146160537Y-64704494D01*
X146219502Y-64594180D01*
X146255812Y-64474482D01*
X146268072Y-64350000D01*
X146268072Y-62650000D01*
X146255812Y-62525518D01*
X146219502Y-62405820D01*
X146160537Y-62295506D01*
X146081185Y-62198815D01*
X145984494Y-62119463D01*
X145874180Y-62060498D01*
X145754482Y-62024188D01*
X145630000Y-62011928D01*
X143930000Y-62011928D01*
X143805518Y-62024188D01*
X143685820Y-62060498D01*
X143575506Y-62119463D01*
X143478815Y-62198815D01*
X143399463Y-62295506D01*
X143340498Y-62405820D01*
X143304188Y-62525518D01*
X143291928Y-62650000D01*
X142035001Y-62650000D01*
X142035001Y-54725866D01*
X143295000Y-53465867D01*
X143295000Y-53486260D01*
X143352068Y-53773158D01*
X143464010Y-54043411D01*
X143626525Y-54286632D01*
X143833368Y-54493475D01*
X144007760Y-54610000D01*
X143833368Y-54726525D01*
X143626525Y-54933368D01*
X143464010Y-55176589D01*
X143352068Y-55446842D01*
X143295000Y-55733740D01*
X143295000Y-56026260D01*
X143352068Y-56313158D01*
X143464010Y-56583411D01*
X143626525Y-56826632D01*
X143833368Y-57033475D01*
X144007760Y-57150000D01*
X143833368Y-57266525D01*
X143626525Y-57473368D01*
X143464010Y-57716589D01*
X143352068Y-57986842D01*
X143295000Y-58273740D01*
X143295000Y-58566260D01*
X143352068Y-58853158D01*
X143464010Y-59123411D01*
X143626525Y-59366632D01*
X143833368Y-59573475D01*
X144076589Y-59735990D01*
X144346842Y-59847932D01*
X144633740Y-59905000D01*
X144926260Y-59905000D01*
X145213158Y-59847932D01*
X145483411Y-59735990D01*
X145726632Y-59573475D01*
X145933475Y-59366632D01*
X146095990Y-59123411D01*
X146207932Y-58853158D01*
X146265000Y-58566260D01*
X146265000Y-58273740D01*
X146207932Y-57986842D01*
X146095990Y-57716589D01*
X145933475Y-57473368D01*
X145726632Y-57266525D01*
X145552240Y-57150000D01*
X145726632Y-57033475D01*
X145933475Y-56826632D01*
X146095990Y-56583411D01*
X146207932Y-56313158D01*
X146265000Y-56026260D01*
X146265000Y-55733740D01*
X146207932Y-55446842D01*
X146095990Y-55176589D01*
X145933475Y-54933368D01*
X145726632Y-54726525D01*
X145552240Y-54610000D01*
X145726632Y-54493475D01*
X145933475Y-54286632D01*
X146095990Y-54043411D01*
X146207932Y-53773158D01*
X146265000Y-53486260D01*
X146265000Y-53193740D01*
X146207932Y-52906842D01*
X146095990Y-52636589D01*
X145933475Y-52393368D01*
X145726632Y-52186525D01*
X145552240Y-52070000D01*
X145726632Y-51953475D01*
X145933475Y-51746632D01*
X146095990Y-51503411D01*
X146207932Y-51233158D01*
X146265000Y-50946260D01*
X146265000Y-50653740D01*
X146207932Y-50366842D01*
X146095990Y-50096589D01*
X145933475Y-49853368D01*
X145726632Y-49646525D01*
X145552240Y-49530000D01*
X145726632Y-49413475D01*
X145933475Y-49206632D01*
X146095990Y-48963411D01*
X146207932Y-48693158D01*
X146265000Y-48406260D01*
X146265000Y-48113740D01*
X146207932Y-47826842D01*
X146095990Y-47556589D01*
X145933475Y-47313368D01*
X145726632Y-47106525D01*
X145552240Y-46990000D01*
X145726632Y-46873475D01*
X145933475Y-46666632D01*
X146095990Y-46423411D01*
X146207932Y-46153158D01*
X146265000Y-45866260D01*
X146265000Y-45573740D01*
X146238807Y-45442060D01*
X146660000Y-45020867D01*
X146660001Y-70263497D01*
X146648491Y-70251987D01*
X146331566Y-70040225D01*
X145979419Y-69894361D01*
X145605581Y-69820000D01*
X145586109Y-69820000D01*
X145661355Y-69775178D01*
X145877588Y-69580269D01*
X146051641Y-69346920D01*
X146176825Y-69084099D01*
X146221476Y-68936890D01*
X146100155Y-68707000D01*
X144907000Y-68707000D01*
X144907000Y-68727000D01*
X144653000Y-68727000D01*
X144653000Y-68707000D01*
X143459845Y-68707000D01*
X143338524Y-68936890D01*
X143383175Y-69084099D01*
X143508359Y-69346920D01*
X143682412Y-69580269D01*
X143898645Y-69775178D01*
X144148748Y-69924157D01*
X144423109Y-70021481D01*
X144652998Y-69900815D01*
X144652998Y-69976203D01*
X144498434Y-70040225D01*
X144181509Y-70251987D01*
X143911987Y-70521509D01*
X143700225Y-70838434D01*
X143554361Y-71190581D01*
X143480000Y-71564419D01*
X143480000Y-71945581D01*
X143554361Y-72319419D01*
X143700225Y-72671566D01*
X143911987Y-72988491D01*
X143923496Y-73000000D01*
X126538821Y-73000000D01*
X126607637Y-72916147D01*
X126685173Y-72771088D01*
X126732919Y-72613690D01*
X126745001Y-72491020D01*
X126745001Y-72491019D01*
X126749041Y-72450001D01*
X126745001Y-72408983D01*
X126745001Y-68745866D01*
X126835000Y-68655867D01*
X126835000Y-68721335D01*
X126890147Y-68998574D01*
X126998320Y-69259727D01*
X127155363Y-69494759D01*
X127355241Y-69694637D01*
X127590273Y-69851680D01*
X127851426Y-69959853D01*
X128128665Y-70015000D01*
X128411335Y-70015000D01*
X128688574Y-69959853D01*
X128949727Y-69851680D01*
X129184759Y-69694637D01*
X129384637Y-69494759D01*
X129437930Y-69415000D01*
X129498982Y-69415000D01*
X129540000Y-69419040D01*
X129581018Y-69415000D01*
X129581019Y-69415000D01*
X129703689Y-69402918D01*
X129861087Y-69355172D01*
X130006146Y-69277636D01*
X130133291Y-69173291D01*
X130159446Y-69141421D01*
X131844582Y-67456286D01*
X131938665Y-67475000D01*
X132221335Y-67475000D01*
X132498574Y-67419853D01*
X132759727Y-67311680D01*
X132994759Y-67154637D01*
X133194637Y-66954759D01*
X133351680Y-66719727D01*
X133459853Y-66458574D01*
X133515000Y-66181335D01*
X133515000Y-65898665D01*
X133459853Y-65621426D01*
X133351680Y-65360273D01*
X133194637Y-65125241D01*
X132994759Y-64925363D01*
X132759727Y-64768320D01*
X132498574Y-64660147D01*
X132221335Y-64605000D01*
X131938665Y-64605000D01*
X131661426Y-64660147D01*
X131400273Y-64768320D01*
X131165241Y-64925363D01*
X130965363Y-65125241D01*
X130808320Y-65360273D01*
X130700147Y-65621426D01*
X130645000Y-65898665D01*
X130645000Y-66181335D01*
X130663714Y-66275418D01*
X129329264Y-67609868D01*
X129184759Y-67465363D01*
X128952241Y-67310000D01*
X129184759Y-67154637D01*
X129384637Y-66954759D01*
X129541680Y-66719727D01*
X129649853Y-66458574D01*
X129705000Y-66181335D01*
X129705000Y-65898665D01*
X129649853Y-65621426D01*
X129541680Y-65360273D01*
X129384637Y-65125241D01*
X129184759Y-64925363D01*
X129105000Y-64872070D01*
X129105000Y-64113285D01*
X129187205Y-63990256D01*
X129265226Y-63801898D01*
X129305000Y-63601939D01*
X129305000Y-63398061D01*
X129265226Y-63198102D01*
X129187205Y-63009744D01*
X129073937Y-62840226D01*
X128929774Y-62696063D01*
X128760256Y-62582795D01*
X128571898Y-62504774D01*
X128371939Y-62465000D01*
X128168061Y-62465000D01*
X127968102Y-62504774D01*
X127779744Y-62582795D01*
X127610226Y-62696063D01*
X127466063Y-62840226D01*
X127352795Y-63009744D01*
X127274774Y-63198102D01*
X127235000Y-63398061D01*
X127235000Y-63601939D01*
X127274774Y-63801898D01*
X127352795Y-63990256D01*
X127435000Y-64113285D01*
X127435001Y-64872070D01*
X127355241Y-64925363D01*
X127155363Y-65125241D01*
X126998320Y-65360273D01*
X126890147Y-65621426D01*
X126835000Y-65898665D01*
X126835000Y-66181335D01*
X126853714Y-66275417D01*
X125348575Y-67780558D01*
X125316711Y-67806708D01*
X125272083Y-67861088D01*
X125212365Y-67933854D01*
X125134829Y-68078913D01*
X125087083Y-68236311D01*
X125070961Y-68399999D01*
X125075002Y-68441027D01*
X125075002Y-69283164D01*
X125053291Y-69256709D01*
X125021433Y-69230564D01*
X122088072Y-66297205D01*
X122088072Y-65240000D01*
X122075812Y-65115518D01*
X122039502Y-64995820D01*
X121980537Y-64885506D01*
X121901185Y-64788815D01*
X121804494Y-64709463D01*
X121694180Y-64650498D01*
X121574482Y-64614188D01*
X121450000Y-64601928D01*
X119850000Y-64601928D01*
X119725518Y-64614188D01*
X119605820Y-64650498D01*
X119495506Y-64709463D01*
X119398815Y-64788815D01*
X119319463Y-64885506D01*
X119260498Y-64995820D01*
X119224188Y-65115518D01*
X119211928Y-65240000D01*
X119211928Y-66840000D01*
X119224188Y-66964482D01*
X119260498Y-67084180D01*
X119319463Y-67194494D01*
X119398815Y-67291185D01*
X119495506Y-67370537D01*
X119605820Y-67429502D01*
X119725518Y-67465812D01*
X119750080Y-67468231D01*
X119586481Y-67616586D01*
X119418963Y-67842580D01*
X119298754Y-68096913D01*
X119258096Y-68230961D01*
X119380085Y-68453000D01*
X120523000Y-68453000D01*
X120523000Y-68433000D01*
X120777000Y-68433000D01*
X120777000Y-68453000D01*
X120797000Y-68453000D01*
X120797000Y-68707000D01*
X120777000Y-68707000D01*
X120777000Y-69850624D01*
X120980482Y-69961772D01*
X120973368Y-69966525D01*
X120766525Y-70173368D01*
X120650000Y-70347760D01*
X120533475Y-70173368D01*
X120326632Y-69966525D01*
X120319518Y-69961772D01*
X120523000Y-69850624D01*
X120523000Y-68707000D01*
X119380085Y-68707000D01*
X119258096Y-68929039D01*
X119298754Y-69063087D01*
X119418963Y-69317420D01*
X119586481Y-69543414D01*
X119732778Y-69676079D01*
X119526260Y-69635000D01*
X119233740Y-69635000D01*
X119102060Y-69661193D01*
X118945000Y-69504133D01*
X118945000Y-58461007D01*
X118949039Y-58419999D01*
X118945000Y-58378991D01*
X118945000Y-58378981D01*
X118932918Y-58256311D01*
X118885172Y-58098913D01*
X118807636Y-57953854D01*
X118703291Y-57826709D01*
X118671427Y-57800559D01*
X118185868Y-57315000D01*
X118251335Y-57315000D01*
X118528574Y-57259853D01*
X118789727Y-57151680D01*
X119024759Y-56994637D01*
X119224637Y-56794759D01*
X119381680Y-56559727D01*
X119489853Y-56298574D01*
X119545000Y-56021335D01*
X119545000Y-55738665D01*
X119489853Y-55461426D01*
X119381680Y-55200273D01*
X119224637Y-54965241D01*
X119024759Y-54765363D01*
X118792241Y-54610000D01*
X119024759Y-54454637D01*
X119224637Y-54254759D01*
X119381680Y-54019727D01*
X119489853Y-53758574D01*
X119545000Y-53481335D01*
X119545000Y-53198665D01*
X119489853Y-52921426D01*
X119381680Y-52660273D01*
X119224637Y-52425241D01*
X119024759Y-52225363D01*
X118792241Y-52070000D01*
X119024759Y-51914637D01*
X119224637Y-51714759D01*
X119381680Y-51479727D01*
X119489853Y-51218574D01*
X119545000Y-50941335D01*
X119545000Y-50658665D01*
X119489853Y-50381426D01*
X119381680Y-50120273D01*
X119224637Y-49885241D01*
X119024759Y-49685363D01*
X118789727Y-49528320D01*
X118779135Y-49523933D01*
X118965131Y-49412385D01*
X119173519Y-49223414D01*
X119341037Y-48997420D01*
X119461246Y-48743087D01*
X119501904Y-48609039D01*
X119379915Y-48387000D01*
X118237000Y-48387000D01*
X118237000Y-48407000D01*
X117983000Y-48407000D01*
X117983000Y-48387000D01*
X117963000Y-48387000D01*
X117963000Y-48133000D01*
X117983000Y-48133000D01*
X117983000Y-48113000D01*
X118237000Y-48113000D01*
X118237000Y-48133000D01*
X119379915Y-48133000D01*
X119501904Y-47910961D01*
X119461246Y-47776913D01*
X119341037Y-47522580D01*
X119173519Y-47296586D01*
X118965131Y-47107615D01*
X118779135Y-46996067D01*
X118789727Y-46991680D01*
X119024759Y-46834637D01*
X119224637Y-46634759D01*
X119381680Y-46399727D01*
X119489853Y-46138574D01*
X119545000Y-45861335D01*
X119545000Y-45578665D01*
X119489853Y-45301426D01*
X119381680Y-45040273D01*
X119224637Y-44805241D01*
X119024759Y-44605363D01*
X118792241Y-44450000D01*
X119024759Y-44294637D01*
X119224637Y-44094759D01*
X119381680Y-43859727D01*
X119489853Y-43598574D01*
X119545000Y-43321335D01*
X119545000Y-43038665D01*
X119489853Y-42761426D01*
X119381680Y-42500273D01*
X119224637Y-42265241D01*
X119024759Y-42065363D01*
X118792241Y-41910000D01*
X119024759Y-41754637D01*
X119224637Y-41554759D01*
X119381680Y-41319727D01*
X119489853Y-41058574D01*
X119545000Y-40781335D01*
X119545000Y-40498665D01*
X119489853Y-40221426D01*
X119381680Y-39960273D01*
X119224637Y-39725241D01*
X119024759Y-39525363D01*
X118792241Y-39370000D01*
X119024759Y-39214637D01*
X119224637Y-39014759D01*
X119381680Y-38779727D01*
X119489853Y-38518574D01*
X119545000Y-38241335D01*
X119545000Y-37958665D01*
X119489853Y-37681426D01*
X119381680Y-37420273D01*
X119224637Y-37185241D01*
X119024759Y-36985363D01*
X118789727Y-36828320D01*
X118528574Y-36720147D01*
X118251335Y-36665000D01*
X117968665Y-36665000D01*
X117691426Y-36720147D01*
X117675000Y-36726951D01*
X117675000Y-36173285D01*
X117757205Y-36050256D01*
X117835226Y-35861898D01*
X117875000Y-35661939D01*
X117875000Y-35458061D01*
X117835226Y-35258102D01*
X117757205Y-35069744D01*
X117643937Y-34900226D01*
X117499774Y-34756063D01*
X117330256Y-34642795D01*
X117141898Y-34564774D01*
X116941939Y-34525000D01*
X116738061Y-34525000D01*
X116538102Y-34564774D01*
X116405000Y-34619907D01*
X116405000Y-33633285D01*
X116487205Y-33510256D01*
X116565226Y-33321898D01*
X116605000Y-33121939D01*
X116605000Y-32918061D01*
X116565226Y-32718102D01*
X116487205Y-32529744D01*
X116373937Y-32360226D01*
X116229774Y-32216063D01*
X116060256Y-32102795D01*
X115871898Y-32024774D01*
X115671939Y-31985000D01*
X115468061Y-31985000D01*
X115268102Y-32024774D01*
X115079744Y-32102795D01*
X114910226Y-32216063D01*
X114766063Y-32360226D01*
X114652795Y-32529744D01*
X114574774Y-32718102D01*
X114535000Y-32918061D01*
X114535000Y-33121939D01*
X114574774Y-33321898D01*
X114652795Y-33510256D01*
X114735000Y-33633285D01*
X114735001Y-46244132D01*
X111906285Y-43415418D01*
X111925000Y-43321335D01*
X111925000Y-43038665D01*
X111869853Y-42761426D01*
X111761680Y-42500273D01*
X111604637Y-42265241D01*
X111404759Y-42065363D01*
X111172241Y-41910000D01*
X111404759Y-41754637D01*
X111604637Y-41554759D01*
X111761680Y-41319727D01*
X111869853Y-41058574D01*
X111925000Y-40781335D01*
X111925000Y-40498665D01*
X111869853Y-40221426D01*
X111761680Y-39960273D01*
X111604637Y-39725241D01*
X111406039Y-39526643D01*
X111414482Y-39525812D01*
X111534180Y-39489502D01*
X111644494Y-39430537D01*
X111741185Y-39351185D01*
X111820537Y-39254494D01*
X111879502Y-39144180D01*
X111915812Y-39024482D01*
X111928072Y-38900000D01*
X111928072Y-37300000D01*
X111915812Y-37175518D01*
X111879502Y-37055820D01*
X111820537Y-36945506D01*
X111741185Y-36848815D01*
X111644494Y-36769463D01*
X111534180Y-36710498D01*
X111414482Y-36674188D01*
X111290000Y-36661928D01*
X109690000Y-36661928D01*
X109565518Y-36674188D01*
X109445820Y-36710498D01*
X109335506Y-36769463D01*
X109238815Y-36848815D01*
X109159463Y-36945506D01*
X109100498Y-37055820D01*
X109064188Y-37175518D01*
X109051928Y-37300000D01*
X109051928Y-38900000D01*
X109064188Y-39024482D01*
X109100498Y-39144180D01*
X109159463Y-39254494D01*
X109238815Y-39351185D01*
X109335506Y-39430537D01*
X109445820Y-39489502D01*
X109565518Y-39525812D01*
X109573961Y-39526643D01*
X109375363Y-39725241D01*
X109218320Y-39960273D01*
X109110147Y-40221426D01*
X109055000Y-40498665D01*
X109055000Y-40781335D01*
X109110147Y-41058574D01*
X109218320Y-41319727D01*
X109375363Y-41554759D01*
X109575241Y-41754637D01*
X109807759Y-41910000D01*
X109575241Y-42065363D01*
X109375363Y-42265241D01*
X109218320Y-42500273D01*
X109110147Y-42761426D01*
X109055000Y-43038665D01*
X109055000Y-43321335D01*
X109110147Y-43598574D01*
X109218320Y-43859727D01*
X109375363Y-44094759D01*
X109575241Y-44294637D01*
X109807759Y-44450000D01*
X109575241Y-44605363D01*
X109375363Y-44805241D01*
X109218320Y-45040273D01*
X109110147Y-45301426D01*
X109055000Y-45578665D01*
X109055000Y-45861335D01*
X109073714Y-45955418D01*
X107728563Y-47300570D01*
X107696699Y-47326720D01*
X107670551Y-47358582D01*
X107592353Y-47453866D01*
X107514817Y-47598925D01*
X107467071Y-47756323D01*
X107450949Y-47920011D01*
X107454990Y-47961040D01*
X107454990Y-49808572D01*
X107377636Y-49663854D01*
X107367833Y-49651909D01*
X107299439Y-49568570D01*
X107299437Y-49568568D01*
X107273291Y-49536709D01*
X107241432Y-49510563D01*
X105290316Y-47559449D01*
X105304482Y-47525250D01*
X105375000Y-47170732D01*
X105375000Y-46809268D01*
X105304482Y-46454750D01*
X105166156Y-46120801D01*
X104965338Y-45820256D01*
X104709744Y-45564662D01*
X104409199Y-45363844D01*
X104075250Y-45225518D01*
X103720732Y-45155000D01*
X103359268Y-45155000D01*
X103004750Y-45225518D01*
X102670801Y-45363844D01*
X102370256Y-45564662D01*
X102114662Y-45820256D01*
X101913844Y-46120801D01*
X101775518Y-46454750D01*
X101705000Y-46809268D01*
X101705000Y-47170732D01*
X101775518Y-47525250D01*
X101913844Y-47859199D01*
X102114662Y-48159744D01*
X102370256Y-48415338D01*
X102670801Y-48616156D01*
X103004750Y-48754482D01*
X103359268Y-48825000D01*
X103720732Y-48825000D01*
X104075250Y-48754482D01*
X104109449Y-48740316D01*
X105845001Y-50475870D01*
X105845000Y-57806715D01*
X105762795Y-57929744D01*
X105684774Y-58118102D01*
X105645000Y-58318061D01*
X105645000Y-58521939D01*
X105684774Y-58721898D01*
X105762795Y-58910256D01*
X105876063Y-59079774D01*
X106020226Y-59223937D01*
X106113125Y-59286010D01*
X103848573Y-61550562D01*
X103816709Y-61576712D01*
X103755389Y-61651431D01*
X103712363Y-61703858D01*
X103634827Y-61848917D01*
X103587081Y-62006315D01*
X103570959Y-62170003D01*
X103575000Y-62211031D01*
X103574999Y-64011288D01*
X103529774Y-63966063D01*
X103360256Y-63852795D01*
X103171898Y-63774774D01*
X102971939Y-63735000D01*
X102768061Y-63735000D01*
X102568102Y-63774774D01*
X102379744Y-63852795D01*
X102210226Y-63966063D01*
X102066063Y-64110226D01*
X101952795Y-64279744D01*
X101874774Y-64468102D01*
X101835000Y-64668061D01*
X101835000Y-64871939D01*
X101874774Y-65071898D01*
X101952795Y-65260256D01*
X102035000Y-65383285D01*
X102035001Y-67268972D01*
X102030960Y-67310000D01*
X102047082Y-67473688D01*
X102094828Y-67631086D01*
X102164316Y-67761088D01*
X102172365Y-67776146D01*
X102276710Y-67903291D01*
X102308574Y-67929441D01*
X104014132Y-69635000D01*
X104012998Y-69635000D01*
X104012998Y-69799844D01*
X103783110Y-69678524D01*
X103635901Y-69723175D01*
X103373080Y-69848359D01*
X103139731Y-70022412D01*
X102944822Y-70238645D01*
X102795843Y-70488748D01*
X102698519Y-70763109D01*
X102819185Y-70992998D01*
X102792496Y-70992998D01*
X101369447Y-69569949D01*
X101444637Y-69494759D01*
X101601680Y-69259727D01*
X101709853Y-68998574D01*
X101765000Y-68721335D01*
X101765000Y-68438665D01*
X101709853Y-68161426D01*
X101601680Y-67900273D01*
X101444637Y-67665241D01*
X101244759Y-67465363D01*
X101012241Y-67310000D01*
X101244759Y-67154637D01*
X101444637Y-66954759D01*
X101601680Y-66719727D01*
X101709853Y-66458574D01*
X101765000Y-66181335D01*
X101765000Y-65898665D01*
X101709853Y-65621426D01*
X101601680Y-65360273D01*
X101444637Y-65125241D01*
X101244759Y-64925363D01*
X101009727Y-64768320D01*
X100748574Y-64660147D01*
X100471335Y-64605000D01*
X100188665Y-64605000D01*
X99911426Y-64660147D01*
X99650273Y-64768320D01*
X99415241Y-64925363D01*
X99215363Y-65125241D01*
X99162070Y-65205000D01*
X98957930Y-65205000D01*
X98904637Y-65125241D01*
X98704759Y-64925363D01*
X98469727Y-64768320D01*
X98208574Y-64660147D01*
X97931335Y-64605000D01*
X97648665Y-64605000D01*
X97371426Y-64660147D01*
X97110273Y-64768320D01*
X96875241Y-64925363D01*
X96675363Y-65125241D01*
X96518320Y-65360273D01*
X96410147Y-65621426D01*
X96355000Y-65898665D01*
X96355000Y-66181335D01*
X96410147Y-66458574D01*
X96470799Y-66605001D01*
X91489201Y-66605001D01*
X91549853Y-66458574D01*
X91561662Y-66399205D01*
X101220552Y-56740317D01*
X101254750Y-56754482D01*
X101609268Y-56825000D01*
X101970732Y-56825000D01*
X102325250Y-56754482D01*
X102659199Y-56616156D01*
X102959744Y-56415338D01*
X103215338Y-56159744D01*
X103305000Y-56025555D01*
X103305000Y-59076715D01*
X103222795Y-59199744D01*
X103144774Y-59388102D01*
X103105000Y-59588061D01*
X103105000Y-59791939D01*
X103144774Y-59991898D01*
X103222795Y-60180256D01*
X103336063Y-60349774D01*
X103480226Y-60493937D01*
X103649744Y-60607205D01*
X103838102Y-60685226D01*
X104038061Y-60725000D01*
X104241939Y-60725000D01*
X104441898Y-60685226D01*
X104630256Y-60607205D01*
X104799774Y-60493937D01*
X104943937Y-60349774D01*
X105057205Y-60180256D01*
X105135226Y-59991898D01*
X105175000Y-59791939D01*
X105175000Y-59588061D01*
X105135226Y-59388102D01*
X105057205Y-59199744D01*
X104975000Y-59076715D01*
X104975000Y-52645284D01*
X105166156Y-52359199D01*
X105304482Y-52025250D01*
X105375000Y-51670732D01*
X105375000Y-51309268D01*
X105304482Y-50954750D01*
X105166156Y-50620801D01*
X104965338Y-50320256D01*
X104709744Y-50064662D01*
X104409199Y-49863844D01*
X104075250Y-49725518D01*
X103720732Y-49655000D01*
X103359268Y-49655000D01*
X103004750Y-49725518D01*
X102670801Y-49863844D01*
X102370256Y-50064662D01*
X102114662Y-50320256D01*
X101913844Y-50620801D01*
X101775518Y-50954750D01*
X101705000Y-51309268D01*
X101705000Y-51670732D01*
X101775518Y-52025250D01*
X101913844Y-52359199D01*
X102114662Y-52659744D01*
X102370256Y-52915338D01*
X102670801Y-53116156D01*
X103004750Y-53254482D01*
X103305001Y-53314206D01*
X103305001Y-53954446D01*
X103215338Y-53820256D01*
X102959744Y-53564662D01*
X102659199Y-53363844D01*
X102325250Y-53225518D01*
X101970732Y-53155000D01*
X101609268Y-53155000D01*
X101254750Y-53225518D01*
X100920801Y-53363844D01*
X100620256Y-53564662D01*
X100364662Y-53820256D01*
X100163844Y-54120801D01*
X100025518Y-54454750D01*
X99955000Y-54809268D01*
X99955000Y-55170732D01*
X100025518Y-55525250D01*
X100039683Y-55559448D01*
X99625000Y-55974131D01*
X99625000Y-55699268D01*
X99554482Y-55344750D01*
X99416156Y-55010801D01*
X99215338Y-54710256D01*
X98959744Y-54454662D01*
X98659199Y-54253844D01*
X98325250Y-54115518D01*
X97970732Y-54045000D01*
X97609268Y-54045000D01*
X97254750Y-54115518D01*
X96920801Y-54253844D01*
X96620256Y-54454662D01*
X96364662Y-54710256D01*
X96163844Y-55010801D01*
X96025518Y-55344750D01*
X95955000Y-55699268D01*
X95955000Y-56060732D01*
X96025518Y-56415250D01*
X96163844Y-56749199D01*
X96364662Y-57049744D01*
X96620256Y-57305338D01*
X96920801Y-57506156D01*
X97254750Y-57644482D01*
X97609268Y-57715000D01*
X97884132Y-57715000D01*
X94965210Y-60633922D01*
X94897205Y-60469744D01*
X94815000Y-60346715D01*
X94815000Y-56512053D01*
X94959744Y-56415338D01*
X95215338Y-56159744D01*
X95416156Y-55859199D01*
X95554482Y-55525250D01*
X95625000Y-55170732D01*
X95625000Y-54809268D01*
X95554482Y-54454750D01*
X95416156Y-54120801D01*
X95215338Y-53820256D01*
X94959744Y-53564662D01*
X94659199Y-53363844D01*
X94325250Y-53225518D01*
X93970732Y-53155000D01*
X93609268Y-53155000D01*
X93254750Y-53225518D01*
X92920801Y-53363844D01*
X92620256Y-53564662D01*
X92364662Y-53820256D01*
X92275000Y-53954444D01*
X92275000Y-53314205D01*
X92575250Y-53254482D01*
X92909199Y-53116156D01*
X93209744Y-52915338D01*
X93465338Y-52659744D01*
X93666156Y-52359199D01*
X93804482Y-52025250D01*
X93875000Y-51670732D01*
X93875000Y-51309268D01*
X93804482Y-50954750D01*
X93666156Y-50620801D01*
X93465338Y-50320256D01*
X93209744Y-50064662D01*
X92909199Y-49863844D01*
X92575250Y-49725518D01*
X92220732Y-49655000D01*
X91859268Y-49655000D01*
X91504750Y-49725518D01*
X91170801Y-49863844D01*
X90870256Y-50064662D01*
X90614662Y-50320256D01*
X90413844Y-50620801D01*
X90275518Y-50954750D01*
X90205000Y-51309268D01*
X90205000Y-51670732D01*
X90275518Y-52025250D01*
X90413844Y-52359199D01*
X90605001Y-52645285D01*
X90605000Y-61616715D01*
X90522795Y-61739744D01*
X90444774Y-61928102D01*
X90405000Y-62128061D01*
X90405000Y-62331939D01*
X90444774Y-62531898D01*
X90522795Y-62720256D01*
X90636063Y-62889774D01*
X90780226Y-63033937D01*
X90949744Y-63147205D01*
X91138102Y-63225226D01*
X91338061Y-63265000D01*
X91541939Y-63265000D01*
X91741898Y-63225226D01*
X91930256Y-63147205D01*
X92099774Y-63033937D01*
X92243937Y-62889774D01*
X92357205Y-62720256D01*
X92435226Y-62531898D01*
X92475000Y-62331939D01*
X92475000Y-62128061D01*
X92435226Y-61928102D01*
X92357205Y-61739744D01*
X92275000Y-61616715D01*
X92275000Y-56025556D01*
X92364662Y-56159744D01*
X92620256Y-56415338D01*
X92920801Y-56616156D01*
X93145001Y-56709022D01*
X93145000Y-60346715D01*
X93062795Y-60469744D01*
X92984774Y-60658102D01*
X92945000Y-60858061D01*
X92945000Y-61061939D01*
X92984774Y-61261898D01*
X93062795Y-61450256D01*
X93176063Y-61619774D01*
X93320226Y-61763937D01*
X93489744Y-61877205D01*
X93653922Y-61945210D01*
X90836353Y-64762780D01*
X90588574Y-64660147D01*
X90311335Y-64605000D01*
X90028665Y-64605000D01*
X89751426Y-64660147D01*
X89490273Y-64768320D01*
X89255241Y-64925363D01*
X89055363Y-65125241D01*
X88898320Y-65360273D01*
X88790147Y-65621426D01*
X88735000Y-65898665D01*
X88735000Y-66181335D01*
X88790147Y-66458574D01*
X88850799Y-66605001D01*
X88105870Y-66605001D01*
X85308072Y-63807205D01*
X85308072Y-62650000D01*
X85295812Y-62525518D01*
X85259502Y-62405820D01*
X85200537Y-62295506D01*
X85121185Y-62198815D01*
X85024494Y-62119463D01*
X84914180Y-62060498D01*
X84794482Y-62024188D01*
X84670000Y-62011928D01*
X82970000Y-62011928D01*
X82845518Y-62024188D01*
X82725820Y-62060498D01*
X82615506Y-62119463D01*
X82518815Y-62198815D01*
X82439463Y-62295506D01*
X82380498Y-62405820D01*
X82344188Y-62525518D01*
X82331928Y-62650000D01*
X82331928Y-64350000D01*
X82344188Y-64474482D01*
X82380498Y-64594180D01*
X82439463Y-64704494D01*
X82518815Y-64801185D01*
X82615506Y-64880537D01*
X82725820Y-64939502D01*
X82798380Y-64961513D01*
X82666525Y-65093368D01*
X82504010Y-65336589D01*
X82392068Y-65606842D01*
X82335000Y-65893740D01*
X82335000Y-66186260D01*
X82392068Y-66473158D01*
X82504010Y-66743411D01*
X82666525Y-66986632D01*
X82873368Y-67193475D01*
X83055534Y-67315195D01*
X82938645Y-67384822D01*
X82722412Y-67579731D01*
X82548359Y-67813080D01*
X82423175Y-68075901D01*
X82378524Y-68223110D01*
X82499845Y-68453000D01*
X83693000Y-68453000D01*
X83693000Y-68433000D01*
X83947000Y-68433000D01*
X83947000Y-68453000D01*
X85140155Y-68453000D01*
X85261476Y-68223110D01*
X85216825Y-68075901D01*
X85091641Y-67813080D01*
X84917588Y-67579731D01*
X84701355Y-67384822D01*
X84584466Y-67315195D01*
X84766632Y-67193475D01*
X84973475Y-66986632D01*
X85135990Y-66743411D01*
X85247932Y-66473158D01*
X85305000Y-66186260D01*
X85305000Y-66165868D01*
X87140564Y-68001433D01*
X87166710Y-68033292D01*
X87198569Y-68059438D01*
X87198571Y-68059440D01*
X87293855Y-68137637D01*
X87438914Y-68215173D01*
X87596312Y-68262919D01*
X87760001Y-68279041D01*
X87801019Y-68275001D01*
X98844134Y-68275001D01*
X98913715Y-68344582D01*
X98895000Y-68438665D01*
X98895000Y-68721335D01*
X98950147Y-68998574D01*
X99058320Y-69259727D01*
X99215363Y-69494759D01*
X99415241Y-69694637D01*
X99494530Y-69747616D01*
X99507082Y-69875058D01*
X99554828Y-70032456D01*
X99632364Y-70177515D01*
X99632365Y-70177516D01*
X99736710Y-70304661D01*
X99768574Y-70330811D01*
X102437761Y-73000000D01*
X84676504Y-73000000D01*
X84688013Y-72988491D01*
X84899775Y-72671566D01*
X85045639Y-72319419D01*
X85120000Y-71945581D01*
X85120000Y-71564419D01*
X85045639Y-71190581D01*
X84899775Y-70838434D01*
X84688013Y-70521509D01*
X84418491Y-70251987D01*
X84101566Y-70040225D01*
X83947002Y-69976203D01*
X83947002Y-69900815D01*
X84176891Y-70021481D01*
X84451252Y-69924157D01*
X84701355Y-69775178D01*
X84917588Y-69580269D01*
X85091641Y-69346920D01*
X85216825Y-69084099D01*
X85261476Y-68936890D01*
X85140155Y-68707000D01*
X83947000Y-68707000D01*
X83947000Y-68727000D01*
X83693000Y-68727000D01*
X83693000Y-68707000D01*
X82499845Y-68707000D01*
X82378524Y-68936890D01*
X82423175Y-69084099D01*
X82548359Y-69346920D01*
X82722412Y-69580269D01*
X82938645Y-69775178D01*
X83013891Y-69820000D01*
X82994419Y-69820000D01*
X82620581Y-69894361D01*
X82268434Y-70040225D01*
X81951509Y-70251987D01*
X81940000Y-70263496D01*
X81940000Y-34710000D01*
X82331928Y-34710000D01*
X82331928Y-36410000D01*
X82344188Y-36534482D01*
X82380498Y-36654180D01*
X82439463Y-36764494D01*
X82518815Y-36861185D01*
X82615506Y-36940537D01*
X82725820Y-36999502D01*
X82798380Y-37021513D01*
X82666525Y-37153368D01*
X82504010Y-37396589D01*
X82392068Y-37666842D01*
X82335000Y-37953740D01*
X82335000Y-38246260D01*
X82392068Y-38533158D01*
X82504010Y-38803411D01*
X82666525Y-39046632D01*
X82873368Y-39253475D01*
X83047760Y-39370000D01*
X82873368Y-39486525D01*
X82666525Y-39693368D01*
X82504010Y-39936589D01*
X82392068Y-40206842D01*
X82335000Y-40493740D01*
X82335000Y-40786260D01*
X82392068Y-41073158D01*
X82504010Y-41343411D01*
X82666525Y-41586632D01*
X82873368Y-41793475D01*
X83047760Y-41910000D01*
X82873368Y-42026525D01*
X82666525Y-42233368D01*
X82504010Y-42476589D01*
X82392068Y-42746842D01*
X82335000Y-43033740D01*
X82335000Y-43326260D01*
X82392068Y-43613158D01*
X82504010Y-43883411D01*
X82666525Y-44126632D01*
X82873368Y-44333475D01*
X83047760Y-44450000D01*
X82873368Y-44566525D01*
X82666525Y-44773368D01*
X82504010Y-45016589D01*
X82392068Y-45286842D01*
X82335000Y-45573740D01*
X82335000Y-45866260D01*
X82392068Y-46153158D01*
X82504010Y-46423411D01*
X82666525Y-46666632D01*
X82873368Y-46873475D01*
X83047760Y-46990000D01*
X82873368Y-47106525D01*
X82666525Y-47313368D01*
X82504010Y-47556589D01*
X82392068Y-47826842D01*
X82335000Y-48113740D01*
X82335000Y-48406260D01*
X82392068Y-48693158D01*
X82504010Y-48963411D01*
X82666525Y-49206632D01*
X82873368Y-49413475D01*
X83047760Y-49530000D01*
X82873368Y-49646525D01*
X82666525Y-49853368D01*
X82504010Y-50096589D01*
X82392068Y-50366842D01*
X82335000Y-50653740D01*
X82335000Y-50946260D01*
X82392068Y-51233158D01*
X82504010Y-51503411D01*
X82666525Y-51746632D01*
X82873368Y-51953475D01*
X83047760Y-52070000D01*
X82873368Y-52186525D01*
X82666525Y-52393368D01*
X82504010Y-52636589D01*
X82392068Y-52906842D01*
X82335000Y-53193740D01*
X82335000Y-53486260D01*
X82392068Y-53773158D01*
X82504010Y-54043411D01*
X82666525Y-54286632D01*
X82873368Y-54493475D01*
X83047760Y-54610000D01*
X82873368Y-54726525D01*
X82666525Y-54933368D01*
X82504010Y-55176589D01*
X82392068Y-55446842D01*
X82335000Y-55733740D01*
X82335000Y-56026260D01*
X82392068Y-56313158D01*
X82504010Y-56583411D01*
X82666525Y-56826632D01*
X82873368Y-57033475D01*
X83047760Y-57150000D01*
X82873368Y-57266525D01*
X82666525Y-57473368D01*
X82504010Y-57716589D01*
X82392068Y-57986842D01*
X82335000Y-58273740D01*
X82335000Y-58566260D01*
X82392068Y-58853158D01*
X82504010Y-59123411D01*
X82666525Y-59366632D01*
X82873368Y-59573475D01*
X83116589Y-59735990D01*
X83386842Y-59847932D01*
X83673740Y-59905000D01*
X83966260Y-59905000D01*
X84253158Y-59847932D01*
X84523411Y-59735990D01*
X84766632Y-59573475D01*
X84973475Y-59366632D01*
X85135990Y-59123411D01*
X85247932Y-58853158D01*
X85305000Y-58566260D01*
X85305000Y-58273740D01*
X85247932Y-57986842D01*
X85135990Y-57716589D01*
X84973475Y-57473368D01*
X84766632Y-57266525D01*
X84592240Y-57150000D01*
X84766632Y-57033475D01*
X84973475Y-56826632D01*
X85135990Y-56583411D01*
X85247932Y-56313158D01*
X85305000Y-56026260D01*
X85305000Y-55733740D01*
X85247932Y-55446842D01*
X85135990Y-55176589D01*
X84973475Y-54933368D01*
X84766632Y-54726525D01*
X84592240Y-54610000D01*
X84766632Y-54493475D01*
X84973475Y-54286632D01*
X85135990Y-54043411D01*
X85247932Y-53773158D01*
X85305000Y-53486260D01*
X85305000Y-53193740D01*
X85247932Y-52906842D01*
X85135990Y-52636589D01*
X84973475Y-52393368D01*
X84766632Y-52186525D01*
X84592240Y-52070000D01*
X84766632Y-51953475D01*
X84973475Y-51746632D01*
X85135990Y-51503411D01*
X85247932Y-51233158D01*
X85305000Y-50946260D01*
X85305000Y-50653740D01*
X85247932Y-50366842D01*
X85135990Y-50096589D01*
X84973475Y-49853368D01*
X84766632Y-49646525D01*
X84592240Y-49530000D01*
X84766632Y-49413475D01*
X84973475Y-49206632D01*
X85135990Y-48963411D01*
X85247932Y-48693158D01*
X85305000Y-48406260D01*
X85305000Y-48113740D01*
X85247932Y-47826842D01*
X85135990Y-47556589D01*
X84973475Y-47313368D01*
X84766632Y-47106525D01*
X84592240Y-46990000D01*
X84766632Y-46873475D01*
X84973475Y-46666632D01*
X85135990Y-46423411D01*
X85247932Y-46153158D01*
X85305000Y-45866260D01*
X85305000Y-45573740D01*
X85247932Y-45286842D01*
X85135990Y-45016589D01*
X84973475Y-44773368D01*
X84766632Y-44566525D01*
X84592240Y-44450000D01*
X84766632Y-44333475D01*
X84973475Y-44126632D01*
X85135990Y-43883411D01*
X85247932Y-43613158D01*
X85305000Y-43326260D01*
X85305000Y-43033740D01*
X85247932Y-42746842D01*
X85135990Y-42476589D01*
X84973475Y-42233368D01*
X84766632Y-42026525D01*
X84592240Y-41910000D01*
X84766632Y-41793475D01*
X84973475Y-41586632D01*
X85135990Y-41343411D01*
X85247932Y-41073158D01*
X85305000Y-40786260D01*
X85305000Y-40765868D01*
X85525000Y-40985868D01*
X85525001Y-57806714D01*
X85442795Y-57929744D01*
X85364774Y-58118102D01*
X85325000Y-58318061D01*
X85325000Y-58521939D01*
X85364774Y-58721898D01*
X85442795Y-58910256D01*
X85556063Y-59079774D01*
X85700226Y-59223937D01*
X85869744Y-59337205D01*
X86058102Y-59415226D01*
X86258061Y-59455000D01*
X86461939Y-59455000D01*
X86628039Y-59421961D01*
X86595000Y-59588061D01*
X86595000Y-59791939D01*
X86634774Y-59991898D01*
X86712795Y-60180256D01*
X86826063Y-60349774D01*
X86970226Y-60493937D01*
X87139744Y-60607205D01*
X87328102Y-60685226D01*
X87528061Y-60725000D01*
X87731939Y-60725000D01*
X87931898Y-60685226D01*
X88065000Y-60630093D01*
X88065000Y-62886715D01*
X87982795Y-63009744D01*
X87904774Y-63198102D01*
X87865000Y-63398061D01*
X87865000Y-63601939D01*
X87904774Y-63801898D01*
X87982795Y-63990256D01*
X88096063Y-64159774D01*
X88240226Y-64303937D01*
X88409744Y-64417205D01*
X88598102Y-64495226D01*
X88798061Y-64535000D01*
X89001939Y-64535000D01*
X89201898Y-64495226D01*
X89390256Y-64417205D01*
X89559774Y-64303937D01*
X89703937Y-64159774D01*
X89817205Y-63990256D01*
X89895226Y-63801898D01*
X89935000Y-63601939D01*
X89935000Y-63398061D01*
X89895226Y-63198102D01*
X89817205Y-63009744D01*
X89735000Y-62886715D01*
X89735000Y-50475867D01*
X91470552Y-48740317D01*
X91504750Y-48754482D01*
X91859268Y-48825000D01*
X92220732Y-48825000D01*
X92575250Y-48754482D01*
X92909199Y-48616156D01*
X93209744Y-48415338D01*
X93465338Y-48159744D01*
X93666156Y-47859199D01*
X93804482Y-47525250D01*
X93875000Y-47170732D01*
X93875000Y-46809268D01*
X93845614Y-46661531D01*
X94455000Y-46661531D01*
X94455000Y-47318469D01*
X94583162Y-47962784D01*
X94834561Y-48569715D01*
X95199536Y-49115939D01*
X95664061Y-49580464D01*
X96210285Y-49945439D01*
X96817216Y-50196838D01*
X97461531Y-50325000D01*
X98118469Y-50325000D01*
X98762784Y-50196838D01*
X99369715Y-49945439D01*
X99915939Y-49580464D01*
X100380464Y-49115939D01*
X100745439Y-48569715D01*
X100996838Y-47962784D01*
X101125000Y-47318469D01*
X101125000Y-46661531D01*
X100996838Y-46017216D01*
X100745439Y-45410285D01*
X100380464Y-44864061D01*
X99915939Y-44399536D01*
X99369715Y-44034561D01*
X98762784Y-43783162D01*
X98118469Y-43655000D01*
X97461531Y-43655000D01*
X96817216Y-43783162D01*
X96210285Y-44034561D01*
X95664061Y-44399536D01*
X95199536Y-44864061D01*
X94834561Y-45410285D01*
X94583162Y-46017216D01*
X94455000Y-46661531D01*
X93845614Y-46661531D01*
X93804482Y-46454750D01*
X93666156Y-46120801D01*
X93465338Y-45820256D01*
X93209744Y-45564662D01*
X92909199Y-45363844D01*
X92575250Y-45225518D01*
X92220732Y-45155000D01*
X91859268Y-45155000D01*
X91504750Y-45225518D01*
X91170801Y-45363844D01*
X90870256Y-45564662D01*
X90614662Y-45820256D01*
X90413844Y-46120801D01*
X90275518Y-46454750D01*
X90205000Y-46809268D01*
X90205000Y-47170732D01*
X90275518Y-47525250D01*
X90289683Y-47559448D01*
X88465000Y-49384133D01*
X88465000Y-39411018D01*
X88469040Y-39370000D01*
X88452918Y-39206312D01*
X88405172Y-39048913D01*
X88327636Y-38903854D01*
X88249439Y-38808570D01*
X88249437Y-38808568D01*
X88223291Y-38776709D01*
X88191433Y-38750564D01*
X85308072Y-35867205D01*
X85308072Y-34710000D01*
X85295812Y-34585518D01*
X85259502Y-34465820D01*
X85200537Y-34355506D01*
X85121185Y-34258815D01*
X85024494Y-34179463D01*
X84914180Y-34120498D01*
X84794482Y-34084188D01*
X84670000Y-34071928D01*
X82970000Y-34071928D01*
X82845518Y-34084188D01*
X82725820Y-34120498D01*
X82615506Y-34179463D01*
X82518815Y-34258815D01*
X82439463Y-34355506D01*
X82380498Y-34465820D01*
X82344188Y-34585518D01*
X82331928Y-34710000D01*
X81940000Y-34710000D01*
X81940000Y-32606504D01*
X81951509Y-32618013D01*
X82268434Y-32829775D01*
X82620581Y-32975639D01*
X82994419Y-33050000D01*
X83375581Y-33050000D01*
X83749419Y-32975639D01*
X84101566Y-32829775D01*
X84418491Y-32618013D01*
X84688013Y-32348491D01*
X84899775Y-32031566D01*
X85045639Y-31679419D01*
X85051876Y-31648061D01*
X89135000Y-31648061D01*
X89135000Y-31851939D01*
X89174774Y-32051898D01*
X89252795Y-32240256D01*
X89335000Y-32363285D01*
X89335001Y-40578971D01*
X89330960Y-40620000D01*
X89347082Y-40783688D01*
X89394828Y-40941086D01*
X89472364Y-41086145D01*
X89472365Y-41086146D01*
X89576710Y-41213291D01*
X89608574Y-41239441D01*
X90289684Y-41920551D01*
X90275518Y-41954750D01*
X90205000Y-42309268D01*
X90205000Y-42670732D01*
X90275518Y-43025250D01*
X90413844Y-43359199D01*
X90614662Y-43659744D01*
X90870256Y-43915338D01*
X91170801Y-44116156D01*
X91504750Y-44254482D01*
X91859268Y-44325000D01*
X92220732Y-44325000D01*
X92575250Y-44254482D01*
X92909199Y-44116156D01*
X93209744Y-43915338D01*
X93465338Y-43659744D01*
X93666156Y-43359199D01*
X93804482Y-43025250D01*
X93875000Y-42670732D01*
X93875000Y-42309268D01*
X93804482Y-41954750D01*
X93666156Y-41620801D01*
X93465338Y-41320256D01*
X93209744Y-41064662D01*
X92909199Y-40863844D01*
X92575250Y-40725518D01*
X92220732Y-40655000D01*
X91859268Y-40655000D01*
X91504750Y-40725518D01*
X91470551Y-40739684D01*
X91005000Y-40274133D01*
X91005000Y-38809268D01*
X91955000Y-38809268D01*
X91955000Y-39170732D01*
X92025518Y-39525250D01*
X92163844Y-39859199D01*
X92364662Y-40159744D01*
X92620256Y-40415338D01*
X92920801Y-40616156D01*
X93254750Y-40754482D01*
X93609268Y-40825000D01*
X93970732Y-40825000D01*
X94325250Y-40754482D01*
X94659199Y-40616156D01*
X94959744Y-40415338D01*
X95215338Y-40159744D01*
X95416156Y-39859199D01*
X95554482Y-39525250D01*
X95625000Y-39170732D01*
X95625000Y-38809268D01*
X95554482Y-38454750D01*
X95416156Y-38120801D01*
X95215338Y-37820256D01*
X95204350Y-37809268D01*
X95955000Y-37809268D01*
X95955000Y-38170732D01*
X96025518Y-38525250D01*
X96163844Y-38859199D01*
X96364662Y-39159744D01*
X96620256Y-39415338D01*
X96920801Y-39616156D01*
X97254750Y-39754482D01*
X97609268Y-39825000D01*
X97970732Y-39825000D01*
X98325250Y-39754482D01*
X98659199Y-39616156D01*
X98959744Y-39415338D01*
X99215338Y-39159744D01*
X99416156Y-38859199D01*
X99436838Y-38809268D01*
X99955000Y-38809268D01*
X99955000Y-39170732D01*
X100025518Y-39525250D01*
X100163844Y-39859199D01*
X100364662Y-40159744D01*
X100620256Y-40415338D01*
X100920801Y-40616156D01*
X101254750Y-40754482D01*
X101609268Y-40825000D01*
X101970732Y-40825000D01*
X102325250Y-40754482D01*
X102659199Y-40616156D01*
X102959744Y-40415338D01*
X103215338Y-40159744D01*
X103416156Y-39859199D01*
X103554482Y-39525250D01*
X103625000Y-39170732D01*
X103625000Y-38809268D01*
X103554482Y-38454750D01*
X103537256Y-38413164D01*
X103567636Y-38376146D01*
X103645172Y-38231087D01*
X103678627Y-38120801D01*
X103692918Y-38073689D01*
X103705000Y-37951019D01*
X103705000Y-37951018D01*
X103709040Y-37910000D01*
X103705000Y-37868982D01*
X103705000Y-33633285D01*
X103787205Y-33510256D01*
X103865226Y-33321898D01*
X103905000Y-33121939D01*
X103905000Y-32918061D01*
X103865226Y-32718102D01*
X103787205Y-32529744D01*
X103673937Y-32360226D01*
X103529774Y-32216063D01*
X103360256Y-32102795D01*
X103171898Y-32024774D01*
X102971939Y-31985000D01*
X102768061Y-31985000D01*
X102568102Y-32024774D01*
X102379744Y-32102795D01*
X102210226Y-32216063D01*
X102066063Y-32360226D01*
X101952795Y-32529744D01*
X101874774Y-32718102D01*
X101835000Y-32918061D01*
X101835000Y-33121939D01*
X101874774Y-33321898D01*
X101952795Y-33510256D01*
X102035000Y-33633285D01*
X102035001Y-37167784D01*
X101970732Y-37155000D01*
X101609268Y-37155000D01*
X101254750Y-37225518D01*
X100920801Y-37363844D01*
X100620256Y-37564662D01*
X100364662Y-37820256D01*
X100163844Y-38120801D01*
X100025518Y-38454750D01*
X99955000Y-38809268D01*
X99436838Y-38809268D01*
X99554482Y-38525250D01*
X99625000Y-38170732D01*
X99625000Y-37809268D01*
X99554482Y-37454750D01*
X99416156Y-37120801D01*
X99215338Y-36820256D01*
X98959744Y-36564662D01*
X98659199Y-36363844D01*
X98625000Y-36349678D01*
X98625000Y-36173285D01*
X98707205Y-36050256D01*
X98785226Y-35861898D01*
X98825000Y-35661939D01*
X98825000Y-35458061D01*
X98785226Y-35258102D01*
X98707205Y-35069744D01*
X98593937Y-34900226D01*
X98449774Y-34756063D01*
X98280256Y-34642795D01*
X98091898Y-34564774D01*
X97891939Y-34525000D01*
X97688061Y-34525000D01*
X97488102Y-34564774D01*
X97299744Y-34642795D01*
X97130226Y-34756063D01*
X96986063Y-34900226D01*
X96872795Y-35069744D01*
X96794774Y-35258102D01*
X96755000Y-35458061D01*
X96755000Y-35661939D01*
X96794774Y-35861898D01*
X96872795Y-36050256D01*
X96955000Y-36173285D01*
X96955000Y-36349678D01*
X96920801Y-36363844D01*
X96620256Y-36564662D01*
X96364662Y-36820256D01*
X96163844Y-37120801D01*
X96025518Y-37454750D01*
X95955000Y-37809268D01*
X95204350Y-37809268D01*
X94959744Y-37564662D01*
X94815000Y-37467947D01*
X94815000Y-34903285D01*
X94897205Y-34780256D01*
X94975226Y-34591898D01*
X95015000Y-34391939D01*
X95015000Y-34188061D01*
X94975226Y-33988102D01*
X94897205Y-33799744D01*
X94783937Y-33630226D01*
X94639774Y-33486063D01*
X94470256Y-33372795D01*
X94281898Y-33294774D01*
X94081939Y-33255000D01*
X93878061Y-33255000D01*
X93678102Y-33294774D01*
X93489744Y-33372795D01*
X93320226Y-33486063D01*
X93176063Y-33630226D01*
X93062795Y-33799744D01*
X92984774Y-33988102D01*
X92945000Y-34188061D01*
X92945000Y-34391939D01*
X92984774Y-34591898D01*
X93062795Y-34780256D01*
X93145000Y-34903285D01*
X93145001Y-37270978D01*
X92920801Y-37363844D01*
X92620256Y-37564662D01*
X92364662Y-37820256D01*
X92163844Y-38120801D01*
X92025518Y-38454750D01*
X91955000Y-38809268D01*
X91005000Y-38809268D01*
X91005000Y-32363285D01*
X91087205Y-32240256D01*
X91165226Y-32051898D01*
X91205000Y-31851939D01*
X91205000Y-31648061D01*
X91165226Y-31448102D01*
X91087205Y-31259744D01*
X90973937Y-31090226D01*
X90829774Y-30946063D01*
X90660256Y-30832795D01*
X90471898Y-30754774D01*
X90271939Y-30715000D01*
X90068061Y-30715000D01*
X89868102Y-30754774D01*
X89679744Y-30832795D01*
X89510226Y-30946063D01*
X89366063Y-31090226D01*
X89252795Y-31259744D01*
X89174774Y-31448102D01*
X89135000Y-31648061D01*
X85051876Y-31648061D01*
X85120000Y-31305581D01*
X85120000Y-30924419D01*
X85045639Y-30550581D01*
X84899775Y-30198434D01*
X84688013Y-29881509D01*
X84676504Y-29870000D01*
X105842805Y-29870000D01*
X105762795Y-29989744D01*
G36*
X104267000Y-70993000D02*
G01*
X104287000Y-70993000D01*
X104287000Y-71247000D01*
X104267000Y-71247000D01*
X104267000Y-71267000D01*
X104013000Y-71267000D01*
X104013000Y-71247000D01*
X103993000Y-71247000D01*
X103993000Y-70993000D01*
X104013000Y-70993000D01*
X104013000Y-70973000D01*
X104267000Y-70973000D01*
X104267000Y-70993000D01*
G37*
X104267000Y-70993000D02*
X104287000Y-70993000D01*
X104287000Y-71247000D01*
X104267000Y-71247000D01*
X104267000Y-71267000D01*
X104013000Y-71267000D01*
X104013000Y-71247000D01*
X103993000Y-71247000D01*
X103993000Y-70993000D01*
X104013000Y-70993000D01*
X104013000Y-70973000D01*
X104267000Y-70973000D01*
X104267000Y-70993000D01*
G36*
X110925001Y-67445868D02*
G01*
X110925000Y-69891935D01*
X110813368Y-69966525D01*
X110681513Y-70098380D01*
X110659502Y-70025820D01*
X110600537Y-69915506D01*
X110521185Y-69818815D01*
X110424494Y-69739463D01*
X110314180Y-69680498D01*
X110194482Y-69644188D01*
X110070000Y-69631928D01*
X109335361Y-69631928D01*
X109339502Y-69624180D01*
X109375812Y-69504482D01*
X109388072Y-69380000D01*
X109388072Y-67780000D01*
X109375812Y-67655518D01*
X109339502Y-67535820D01*
X109280537Y-67425506D01*
X109201185Y-67328815D01*
X109104494Y-67249463D01*
X108994180Y-67190498D01*
X108874482Y-67154188D01*
X108849920Y-67151769D01*
X109013519Y-67003414D01*
X109181037Y-66777420D01*
X109301246Y-66523087D01*
X109341904Y-66389039D01*
X109219915Y-66167000D01*
X108077000Y-66167000D01*
X108077000Y-66187000D01*
X107823000Y-66187000D01*
X107823000Y-66167000D01*
X107803000Y-66167000D01*
X107803000Y-65913000D01*
X107823000Y-65913000D01*
X107823000Y-65893000D01*
X108077000Y-65893000D01*
X108077000Y-65913000D01*
X109219915Y-65913000D01*
X109280982Y-65801848D01*
X110925001Y-67445868D01*
G37*
X110925001Y-67445868D02*
X110925000Y-69891935D01*
X110813368Y-69966525D01*
X110681513Y-70098380D01*
X110659502Y-70025820D01*
X110600537Y-69915506D01*
X110521185Y-69818815D01*
X110424494Y-69739463D01*
X110314180Y-69680498D01*
X110194482Y-69644188D01*
X110070000Y-69631928D01*
X109335361Y-69631928D01*
X109339502Y-69624180D01*
X109375812Y-69504482D01*
X109388072Y-69380000D01*
X109388072Y-67780000D01*
X109375812Y-67655518D01*
X109339502Y-67535820D01*
X109280537Y-67425506D01*
X109201185Y-67328815D01*
X109104494Y-67249463D01*
X108994180Y-67190498D01*
X108874482Y-67154188D01*
X108849920Y-67151769D01*
X109013519Y-67003414D01*
X109181037Y-66777420D01*
X109301246Y-66523087D01*
X109341904Y-66389039D01*
X109219915Y-66167000D01*
X108077000Y-66167000D01*
X108077000Y-66187000D01*
X107823000Y-66187000D01*
X107823000Y-66167000D01*
X107803000Y-66167000D01*
X107803000Y-65913000D01*
X107823000Y-65913000D01*
X107823000Y-65893000D01*
X108077000Y-65893000D01*
X108077000Y-65913000D01*
X109219915Y-65913000D01*
X109280982Y-65801848D01*
X110925001Y-67445868D01*
%TD*%
M02*
