%TF.GenerationSoftware,KiCad,Pcbnew,(5.1.6)-1*%
%TF.CreationDate,2021-12-10T20:44:56+09:00*%
%TF.ProjectId,nixie-kit-1,6e697869-652d-46b6-9974-2d312e6b6963,rev?*%
%TF.SameCoordinates,Original*%
%TF.FileFunction,Soldermask,Bot*%
%TF.FilePolarity,Negative*%
%FSLAX46Y46*%
G04 Gerber Fmt 4.6, Leading zero omitted, Abs format (unit mm)*
G04 Created by KiCad (PCBNEW (5.1.6)-1) date 2021-12-10 20:44:56*
%MOMM*%
%LPD*%
G01*
G04 APERTURE LIST*
%ADD10C,2.700000*%
%ADD11C,1.800000*%
%ADD12O,1.800000X1.800000*%
%ADD13R,1.800000X1.800000*%
%ADD14R,1.700000X1.700000*%
%ADD15O,1.700000X1.700000*%
%ADD16C,2.500000*%
%ADD17C,5.500000*%
%ADD18C,1.700000*%
G04 APERTURE END LIST*
D10*
%TO.C,REF\u002A\u002A*%
X83185000Y-71755000D03*
%TD*%
%TO.C,REF\u002A\u002A*%
X145415000Y-71755000D03*
%TD*%
%TO.C,REF\u002A\u002A*%
X145415000Y-31115000D03*
%TD*%
%TO.C,REF\u002A\u002A*%
X83185000Y-31115000D03*
%TD*%
D11*
%TO.C,J1*%
X124460000Y-71120000D03*
D12*
X121920000Y-71120000D03*
%TD*%
D11*
%TO.C,J1*%
X119380000Y-71120000D03*
D12*
X116840000Y-71120000D03*
X114300000Y-71120000D03*
X111760000Y-71120000D03*
%TD*%
%TO.C,J2*%
X104140000Y-71120000D03*
X106680000Y-71120000D03*
D13*
X109220000Y-71120000D03*
%TD*%
D14*
%TO.C,U2*%
X107950000Y-68580000D03*
D15*
X100330000Y-66040000D03*
X107950000Y-66040000D03*
X100330000Y-68580000D03*
%TD*%
D14*
%TO.C,U3*%
X120650000Y-66040000D03*
D15*
X128270000Y-68580000D03*
X120650000Y-68580000D03*
X128270000Y-66040000D03*
%TD*%
D12*
%TO.C,J5*%
X144780000Y-68580000D03*
X144780000Y-66040000D03*
D13*
X144780000Y-63500000D03*
%TD*%
%TO.C,J3*%
X83820000Y-63500000D03*
D12*
X83820000Y-66040000D03*
X83820000Y-68580000D03*
%TD*%
%TO.C,J4*%
X144780000Y-58420000D03*
X144780000Y-55880000D03*
X144780000Y-53340000D03*
X144780000Y-50800000D03*
X144780000Y-48260000D03*
X144780000Y-45720000D03*
X144780000Y-43180000D03*
X144780000Y-40640000D03*
X144780000Y-38100000D03*
D13*
X144780000Y-35560000D03*
%TD*%
%TO.C,J2*%
X83820000Y-35560000D03*
D12*
X83820000Y-38100000D03*
X83820000Y-40640000D03*
X83820000Y-43180000D03*
X83820000Y-45720000D03*
X83820000Y-48260000D03*
X83820000Y-50800000D03*
X83820000Y-53340000D03*
X83820000Y-55880000D03*
X83820000Y-58420000D03*
%TD*%
D16*
%TO.C,N1*%
X103540000Y-51490000D03*
X93790000Y-54990000D03*
X92040000Y-51490000D03*
X92040000Y-46990000D03*
X92040000Y-42490000D03*
X93790000Y-38990000D03*
X97790000Y-37990000D03*
X101790000Y-38990000D03*
X103540000Y-42490000D03*
X103540000Y-46990000D03*
X101790000Y-54990000D03*
X97790000Y-55880000D03*
D17*
X97790000Y-46990000D03*
%TD*%
%TO.C,N2*%
X130810000Y-46990000D03*
D16*
X130810000Y-55880000D03*
X136560000Y-51490000D03*
X126810000Y-54990000D03*
X125060000Y-51490000D03*
X125060000Y-46990000D03*
X125060000Y-42490000D03*
X126810000Y-38990000D03*
X130810000Y-37990000D03*
X134810000Y-38990000D03*
X136560000Y-42490000D03*
X136560000Y-46990000D03*
X134810000Y-54990000D03*
%TD*%
D18*
%TO.C,R1*%
X97790000Y-66040000D03*
D15*
X90170000Y-66040000D03*
%TD*%
%TO.C,R2*%
X139700000Y-66040000D03*
D18*
X132080000Y-66040000D03*
%TD*%
D14*
%TO.C,U1*%
X110490000Y-38100000D03*
D15*
X118110000Y-55880000D03*
X110490000Y-40640000D03*
X118110000Y-53340000D03*
X110490000Y-43180000D03*
X118110000Y-50800000D03*
X110490000Y-45720000D03*
X118110000Y-48260000D03*
X110490000Y-48260000D03*
X118110000Y-45720000D03*
X110490000Y-50800000D03*
X118110000Y-43180000D03*
X110490000Y-53340000D03*
X118110000Y-40640000D03*
X110490000Y-55880000D03*
X118110000Y-38100000D03*
%TD*%
M02*
