M48
; DRILL file {KiCad (5.1.6)-1} date 12/10/21 20:44:58
; FORMAT={-:-/ absolute / metric / decimal}
; #@! TF.CreationDate,2021-12-10T20:44:58+09:00
; #@! TF.GenerationSoftware,Kicad,Pcbnew,(5.1.6)-1
; #@! TF.FileFunction,Plated,1,2,PTH
FMAT,2
METRIC
T1C0.400
T2C0.800
T3C1.000
T4C1.500
T5C2.000
T6C5.000
%
G90
G05
T1
X86.36Y-58.42
X87.63Y-59.69
X88.9Y-63.5
X90.17Y-31.75
X91.44Y-62.23
X93.98Y-34.29
X93.98Y-60.96
X97.79Y-35.56
X102.87Y-33.02
X102.87Y-64.77
X104.14Y-59.69
X105.41Y-64.77
X106.68Y-30.48
X106.68Y-58.42
X110.49Y-62.23
X115.57Y-33.02
X116.84Y-35.56
X120.65Y-40.64
X120.65Y-60.96
X121.92Y-63.5
X123.19Y-31.75
X124.46Y-62.23
X127.0Y-34.29
X127.0Y-60.96
X128.27Y-63.5
X130.81Y-35.56
X135.89Y-33.02
X137.16Y-59.69
X139.7Y-35.56
X139.7Y-41.91
X139.7Y-58.42
X140.97Y-52.07
X142.24Y-43.18
T2
X110.49Y-38.1
X110.49Y-40.64
X110.49Y-43.18
X110.49Y-45.72
X110.49Y-48.26
X110.49Y-50.8
X110.49Y-53.34
X110.49Y-55.88
X118.11Y-38.1
X118.11Y-40.64
X118.11Y-43.18
X118.11Y-45.72
X118.11Y-48.26
X118.11Y-50.8
X118.11Y-53.34
X118.11Y-55.88
X90.17Y-66.04
X97.79Y-66.04
X120.65Y-66.04
X120.65Y-68.58
X128.27Y-66.04
X128.27Y-68.58
X132.08Y-66.04
X139.7Y-66.04
X100.33Y-66.04
X100.33Y-68.58
X107.95Y-66.04
X107.95Y-68.58
T3
X83.82Y-63.5
X83.82Y-66.04
X83.82Y-68.58
X144.78Y-35.56
X144.78Y-38.1
X144.78Y-40.64
X144.78Y-43.18
X144.78Y-45.72
X144.78Y-48.26
X144.78Y-50.8
X144.78Y-53.34
X144.78Y-55.88
X144.78Y-58.42
X83.82Y-35.56
X83.82Y-38.1
X83.82Y-40.64
X83.82Y-43.18
X83.82Y-45.72
X83.82Y-48.26
X83.82Y-50.8
X83.82Y-53.34
X83.82Y-55.88
X83.82Y-58.42
X144.78Y-63.5
X144.78Y-66.04
X144.78Y-68.58
X104.14Y-71.12
X106.68Y-71.12
X109.22Y-71.12
X111.76Y-71.12
X114.3Y-71.12
X116.84Y-71.12
X119.38Y-71.12
X121.92Y-71.12
X124.46Y-71.12
T4
X125.06Y-42.49
X125.06Y-46.99
X125.06Y-51.49
X126.81Y-38.99
X126.81Y-54.99
X130.81Y-37.99
X130.81Y-55.88
X134.81Y-38.99
X134.81Y-54.99
X136.56Y-42.49
X136.56Y-46.99
X136.56Y-51.49
X92.04Y-42.49
X92.04Y-46.99
X92.04Y-51.49
X93.79Y-38.99
X93.79Y-54.99
X97.79Y-37.99
X97.79Y-55.88
X101.79Y-38.99
X101.79Y-54.99
X103.54Y-42.49
X103.54Y-46.99
X103.54Y-51.49
T5
X83.185Y-31.115
X145.415Y-31.115
X83.185Y-71.755
X145.415Y-71.755
T6
X130.81Y-46.99
X97.79Y-46.99
T0
M30
